<svg width="138" height="137" viewBox="0 0 138 137" fill="none" xmlns="http://www.w3.org/2000/svg">
<rect width="138" height="137" rx="16" fill="#5867B6"/>
<path d="M38.7999 43C38.4999 42.8 38.1999 42.6 37.9999 42.4C37.6999 42.2 37.2999 42.3 37.0999 42.5L35.7999 43.8C35.3999 44.2 35.5999 44.8 35.9999 45L38.2999 45.9C38.3999 46 38.5999 46.1 38.5999 46.2L39.1999 47C39.3999 47.3 39.7999 47.4 40.1999 47.2L45.4999 44.2C45.7999 44 45.8999 43.7 45.7999 43.4L45.5999 42.6C45.4999 42.3 45.1999 42 44.8999 42H40.8999C40.6999 42 40.4999 42.1 40.3999 42.2L39.6999 43C39.3999 43.2 39.0999 43.2 38.7999 43Z" fill="#65C8C6"/>
<path d="M43.6 116.801C43.2 116.901 40.8 117.701 40 118.001C39.8 118.101 39.7 118.201 39.6 118.301L38.2 121.001C38.1 121.201 38.1 121.501 38.2 121.701L39.4 123.601C39.6 123.801 39.8 124.001 40.1 123.901L44.4 123.001C44.5 123.001 44.6 123.001 44.7 123.001L47 123.601C47.2 123.701 47.4 123.601 47.6 123.501L52.9 120.101C53.1 119.901 53.3 119.601 53.2 119.401L52.6 116.301C52.5 116.001 52.3 115.801 52 115.701L50.5 115.401H50.4L46.2 115.301C46.1 115.301 45.9 115.301 45.8 115.401L43.6 116.701C43.7 116.801 43.7 116.801 43.6 116.801Z" fill="#65C8C6"/>
<path d="M105.8 39.3994L105.1 40.0994C104.9 40.2994 104.8 40.6994 105 40.8994L105.4 41.6994C105.4 41.7994 105.4 41.7994 105.5 41.8994L105.8 43.1994C105.9 43.4994 106.2 43.6994 106.5 43.6994H106.9C107.1 43.6994 107.4 43.5994 107.5 43.3994L108.8 41.4994C108.9 41.3994 108.9 41.1994 108.9 41.0994V40.2994C108.9 39.9994 108.7 39.6994 108.4 39.6994L106.6 39.1994C106.3 39.0994 106 39.1994 105.8 39.3994Z" fill="#65C8C6"/>
<path d="M109.1 42.9999L108.4 43.6999C108.3 43.7999 108.2 43.9999 108.2 44.1999V44.5999C108.2 44.9999 108.5 45.2999 108.9 45.2999H109.6C109.9 45.2999 110.1 45.1999 110.2 44.9999L110.7 44.2999C110.9 43.9999 110.8 43.5999 110.6 43.3999L110.1 42.9999C109.8 42.6999 109.4 42.7999 109.1 42.9999Z" fill="#65C8C6"/>
<path d="M68.5 31.2004L71.6 44.7004C71.7 45.3004 72.2 45.7004 72.8 45.7004H80C80.5 45.7004 81 46.0004 81.2 46.5004L83.5 52.1004C83.7 52.6004 84.3 52.9004 84.8 52.9004L98.7 51.3004L98.6 51.0004C98.6 51.0004 98.6 51.0004 98.6 50.9004L98.1 48.0004C98.1 47.9004 98.1 47.9004 98 47.8004L95.2 39.7004C95.1 39.3004 94.8 39.0004 94.4 38.9004L93.2 38.6004C92.7 38.5004 92.4 38.1004 92.3 37.6004L91.9 34.5004C91.9 34.2004 91.7 33.9004 91.5 33.7004L88.2 30.9004C88.1 30.8004 88.1 30.7004 88 30.7004L83.7 24.5004C83.6 24.3004 83.6 24.1004 83.5 23.9004L83 20.3004C82.9 19.9004 82.6 19.5004 82.2 19.5004L81.9 19.4004C81.4 19.3004 81.1 18.9004 81.1 18.4004L81.3 16.0004C81.3 15.5004 81.1 15.1004 80.7 14.8004L79.5 14.1004C78.7 13.7004 77.8 14.1004 77.6 15.0004C77.4 16.4004 77.1 18.2004 77.1 18.1004C77.1 18.0004 76.5 17.4004 76 16.9004C75.6 16.5004 75 16.6004 74.8 17.1004L73.8 19.6004C73.6 20.1004 73.1 20.4004 72.6 20.4004L66.6 20.1004C66.3 20.1004 66 20.0004 65.8 19.8004L65.2 19.3004C64.6 18.8004 63.8 18.9004 63.4 19.5004L63.2 20.0004C63 20.3004 62.6 20.5004 62.1 20.5004L56.5 20.3004C56.4 20.3004 56.3 20.3004 56.2 20.4004L55.6 20.7004L68 30.5004C68.2 30.7004 68.4 30.9004 68.5 31.2004Z" fill="#65C8C6"/>
<path d="M40.2 35.0011L40.6 35.1011C41.2 35.3011 41.5 35.8011 41.5 36.4011L41.3 38.1011C41.3 38.5011 41.4 38.9011 41.7 39.1011L42.6 40.0011C43 40.4011 43.6 40.5011 44.1 40.2011L45.9 39.2011C46.4 38.9011 47.1 39.0011 47.5 39.5011L48.7 41.0011C49.1 41.5011 49.1 42.1011 48.7 42.6011L47.5 44.0011C47.1 44.4011 47.1 45.1011 47.5 45.5011L48.1 46.3011C48.3 46.5011 48.5 46.7011 48.7 46.8011L61.3 50.6011C61.6 50.7011 62 50.7011 62.3 50.5011L69 46.7011C69.5 46.4011 69.7 45.9011 69.6 45.3011L66.6 32.4011C66.5 32.1011 66.4 31.9011 66.1 31.7011L54.1 22.2011C53.7 21.9011 53.2 21.8011 52.8 22.1011L50.8 23.1011C50.3 23.3011 50.3 24.0011 50.7 24.3011C51.1 24.6011 51.1 25.2011 50.6 25.5011L49 26.4011C48.6 26.6011 48.3 27.1011 48.4 27.6011L48.6 29.6011C48.7 30.4011 48 31.0011 47.3 31.0011H46.9C46.5 31.0011 46.2 30.8011 46 30.5011L45.5 29.9011C45.2 29.5011 44.6 29.3011 44.1 29.4011L41.1 30.3011C40.7 30.4011 40.4 30.7011 40.3 31.0011L39.3 33.4011C39.1 34.0011 39.5 34.8011 40.2 35.0011Z" fill="#DAAAF1"/>
<path d="M81.5 52.6012L79.8 48.5012C79.6 48.0012 79.1 47.7012 78.6 47.7012H71.5C71.3 47.7012 71.1 47.8012 70.9 47.9012L63.8 51.9012C63.3 52.2012 63.1 52.7012 63.2 53.3012C64.3 58.2012 64.2 58.3012 63.9 58.7012L63.8 58.8012C63.7 59.0012 63.3 59.8012 62.9 60.6012C62.7 60.9012 62.7 61.4012 62.9 61.7012L68.2 72.9012C68.4 73.2012 68.7 73.5012 69.1 73.6012L71.7 74.2012C72.3 74.3012 72.9 74.0012 73.1 73.5012L74.9 69.6012C75 69.3012 75.1 69.0012 75 68.7012L72.4 60.6012C72.2 60.0012 72.4 59.4012 72.9 59.1012L80.9 54.2012C81.6 53.8012 81.8 53.2012 81.5 52.6012Z" fill="#DBB0B0"/>
<path d="M64.3 89.9004V83.2004C64.3 82.8004 64.4 82.5004 64.7 82.3004L69.6 77.8004C70.3 77.1004 70 75.9004 69 75.6004L68.4 75.5004C68.1 75.4004 67.9 75.5004 67.6 75.6004L63.1 77.5004C62.7 77.7004 62.2 77.6004 61.8 77.3004L55.3 72.2004C55 72.0004 54.7 71.9004 54.4 71.9004L47.6 72.8004C46.8 72.9004 46.3 73.7004 46.6 74.5004L46.9 75.3004C47 75.6004 47 75.9004 46.9 76.1004L46.2 78.0004C46.1 78.3004 45.9 78.5004 45.6 78.5004H45C44.7 78.5004 44.4 78.8004 44.4 79.1004L44 82.5004C44 82.6004 43.9 82.8004 43.9 82.9004L41 88.3004C40.6 89.0004 40.8 89.7004 41.3 90.0004L44.6 92.2004C44.8 92.4004 45.1 92.4004 45.4 92.4004L63.1 91.1004C63.8 91.1004 64.3 90.5004 64.3 89.9004Z" fill="#65C8C6"/>
<path d="M101.2 68.9997C100.9 68.7997 100.5 68.7997 100.3 69.0997L99.9 69.4997C99.5 69.8997 98.8 69.5997 98.7 69.0997L97.6 57.9997C97.6 57.5997 97.7 57.1997 98 56.9997L99.2 55.7997C99.5 55.4997 99.7 54.9997 99.6 54.5997L99.5 54.3997C99.3 53.7997 98.8 53.3997 98.1 53.4997L83.8 55.1997C83.6 55.1997 83.4 55.2997 83.3 55.3997L75.4 60.1997C74.9 60.4997 74.7 61.0997 74.9 61.6997L77.3 68.9997C77.4 69.2997 77.4 69.5997 77.2 69.8997L75.3 73.9997C75 74.6997 75.3 75.3997 76 75.6997L83 78.3997C83.2 78.4997 83.4 78.4997 83.6 78.4997L88.4 77.7997C88.9 77.6997 89.3 77.2997 89.5 76.7997L90.1 73.9997C90.2 73.3997 90.7 72.9997 91.3 72.9997L101.3 72.7997L101.2 72.0997C101.2 71.9997 101.2 71.7997 101.3 71.6997L101.9 70.3997C102.1 70.0997 102 69.6997 101.7 69.4997L101.2 68.9997Z" fill="#E8D79B"/>
<path d="M89.1 87.4004L92.3 83.7004C92.7 83.2004 92.7 82.5004 92.3 82.0004L90.3 79.9004C90 79.6004 89.6 79.5004 89.2001 79.5004L83.5 80.3004C83.3 80.3004 83.1001 80.3004 82.9001 80.2004L74.3 77.0004C73.8 76.8004 73.3 76.9004 73 77.3004L66.7001 83.2004C66.4001 83.4004 66.3 83.8004 66.3 84.1004V91.5004C66.3 91.7004 66.4 91.9004 66.5 92.1004L70.9001 100.2C71.1001 100.1 71.3001 100.1 71.4001 100.2L72.3 100.5C72.9 100.7 73.5 100.5 73.8 100L74.7001 98.6004C74.9001 98.2004 75.4001 98.0004 75.9001 98.0004L78 98.2004C78.1 98.2004 78.3001 98.3004 78.4001 98.3004L83.1 100.3C83.5 100.5 83.9 100.4 84.3 100.2L86 99.2004C86.4 99.0004 86.6 98.6004 86.6 98.2004L86.8 95.7004C86.8 95.3004 87.0001 94.9004 87.4001 94.7004L89.4001 93.4004C89.8001 93.1004 90.1001 92.6004 89.9001 92.0004L89.1 88.7004C88.7 88.1004 88.8 87.7004 89.1 87.4004Z" fill="#DAAAF1"/>
<path d="M91.7 75.7996L91.4 77.3996C91.3 77.7996 91.4 78.1996 91.7 78.4996L94.9 81.8996C95.3 82.3996 95.4 83.0996 94.9 83.5996L91.3 87.8996C91 88.1996 90.9 88.5996 91 88.9996L91.2 89.7996C91.4 90.6996 92.4 90.9996 93.1 90.5996L95.9 88.6996C96 88.4996 96.2 88.3996 96.3 88.1996L98.8 83.6996C98.9 83.5996 98.9 83.4996 99 83.3996L100.3 82.0996C100.5 81.8996 100.6 81.5996 100.4 81.2996L100.1 80.5996C100 80.3996 100 80.2996 100.1 80.0996L101.5 75.4996C101.5 75.3996 101.5 75.2996 101.5 75.1996L101.4 74.5996L92.8 74.7996C92.3 74.7996 91.8 75.1996 91.7 75.7996Z" fill="#DBB0B0"/>
<path d="M63.9 93.1002L44.9 94.5002C44.6 94.5002 44.3 94.4002 44.1 94.3002L38.7 90.7002C38.4 90.5002 38.1 90.4002 37.8 90.5002L36.8 90.7002C36 90.9002 35.6 91.7002 35.9 92.4002L36.3 93.3002C36.5 93.7002 36.4 94.2002 36.1 94.5002L33.9 97.3002C33.7 97.5002 33.6 97.8002 33.6 98.1002V101.4C33.6 101.6 33.6 101.8 33.7 102L35.1 104.8C35.3 105.1 35.3 105.6 35.1 105.9L33.1 110.1C33 110.2 33 110.4 33 110.7L33.1 111.1C33.2 111.9 33.9 112.4 34.7 112.2L39.2 111.1C39.4 111 39.5 110.9 39.7 110.9L42.8 108.5C43.3 108.1 44 108.2 44.5 108.6L45.4 109.5C45.6 109.7 46 109.9 46.3 109.9L56 110C56.5 110 57 109.7 57.2 109.2L57.4 108.6C57.6 108.1 58.1 107.8 58.6 107.8H59.2C59.6 107.8 60 107.6 60.2 107.3L60.7 106.7C61.1 106.2 61.7 106.1 62.2 106.3L63.1 106.7C63.6 106.9 64.1 106.8 64.5 106.5L64.6 106.4C65 106 65.1 105.4 64.8 104.8L64.5 104.3C64.1 103.7 64.4 102.9 65 102.5H65.1C65.3 102.4 65.5 102.4 65.8 102.4L68.9 102.7C69.2 102.7 69.4 102.6 69.5 102.4L64.9 93.8002C64.8 93.3002 64.4 93.0002 63.9 93.1002Z" fill="#DBB0B0"/>
<path d="M39.8 57.0007C40.3 56.9007 40.9 57.2007 41.1 57.7007L41.9 59.4007C42.1 59.8007 42.1 60.3007 41.8 60.6007L41.7 61.0007C41.3 61.6007 41.5 62.4007 42.1 62.7007L44.9 64.5007C45.3 64.7007 45.5 65.2007 45.5 65.6007L45.4 68.3007C45.4 68.8007 45.6 69.2007 46 69.4007L47.5 70.3007C47.7 70.5007 48 70.5007 48.3 70.5007L55.1 69.6007C55.4 69.6007 55.8 69.7007 56 69.9007L62.2 74.8007C62.6 75.1007 63.1 75.2007 63.5 75.0007L65.4 74.2007C66.1 73.9007 66.4 73.1007 66 72.5007L60.5 61.0007L60.7 60.6007C61.3 59.4007 61.7 58.6007 62 58.1007C62.1 57.8007 62.2 57.5007 62.1 57.3007C61.9 56.4007 61.6 54.9007 61.3 53.3007C61.2 52.9007 60.9 52.5007 60.4 52.4007L47.8 48.6007C47.6 48.6007 47.4 48.6007 47.3 48.5007L45.7 47.3007C45.3 47.0007 44.7 46.9007 44.2 47.2007L40.4 49.8007C40.2 50.0007 40 50.2007 39.9 50.5007L38.4 55.5007C38.2 56.3007 38.9 57.1007 39.8 57.0007Z" fill="#E8D79B"/>
<circle cx="69" cy="69" r="57" fill="#707070" fill-opacity="0.26" style="mix-blend-mode:darken"/>
<circle cx="69" cy="69" r="56.5" stroke="white" stroke-opacity="0.36"/>
<circle cx="69" cy="69" r="44" fill="#707070" fill-opacity="0.26" style="mix-blend-mode:darken"/>
<circle cx="69" cy="69" r="43.5" stroke="white" stroke-opacity="0.36"/>
<circle cx="69" cy="69" r="31" fill="#707070" fill-opacity="0.26" style="mix-blend-mode:darken"/>
<circle cx="69" cy="69" r="30.5" stroke="white" stroke-opacity="0.36"/>
<g filter="url(#filter0_d)">
<circle cx="69" cy="69" r="18" fill="white"/>
</g>
<circle cx="69" cy="77" r="2" fill="#ED5E5E"/>
<path d="M75 74C73.4087 72.0791 71.2504 71 69 71C66.7496 71 64.5913 72.0791 63 74" stroke="#ED5E5E" stroke-width="2"/>
<path d="M79 71C76.3478 67.7986 72.7507 66 69 66C65.2493 66 61.6522 67.7985 59 71" stroke="#ED5E5E" stroke-width="2"/>
<path d="M82 68C78.5522 63.518 73.8759 61 69 61C64.1241 61 59.4478 63.518 56 68" stroke="#ED5E5E" stroke-width="2"/>
<defs>
<filter id="filter0_d" x="51" y="51" width="40" height="40" filterUnits="userSpaceOnUse" color-interpolation-filters="sRGB">
<feFlood flood-opacity="0" result="BackgroundImageFix"/>
<feColorMatrix in="SourceAlpha" type="matrix" values="0 0 0 0 0 0 0 0 0 0 0 0 0 0 0 0 0 0 127 0" result="hardAlpha"/>
<feOffset dx="2" dy="2"/>
<feGaussianBlur stdDeviation="1"/>
<feColorMatrix type="matrix" values="0 0 0 0 0 0 0 0 0 0 0 0 0 0 0 0 0 0 0.35 0"/>
<feBlend mode="normal" in2="BackgroundImageFix" result="effect1_dropShadow"/>
<feBlend mode="normal" in="SourceGraphic" in2="effect1_dropShadow" result="shape"/>
</filter>
</defs>
</svg>
