<svg width="138" height="138" viewBox="0 0 138 138" fill="none" xmlns="http://www.w3.org/2000/svg">
<rect width="138" height="137" rx="16" fill="#FFF5DB"/>
<path d="M63.8529 104C63.3476 104 62.9266 104.417 63.0108 104.917C63.4318 108.333 66.4633 111 70 111C73.6209 111 76.5682 108.333 76.9892 104.917C77.0734 104.417 76.6524 104 76.1471 104H63.8529Z" fill="#EAA53E"/>
<path d="M70 38C72.7614 38 75 35.7614 75 33C75 30.2386 72.7614 28 70 28C67.2386 28 65 30.2386 65 33C65 35.7614 67.2386 38 70 38Z" fill="#EAA53E"/>
<path d="M99.2566 90.4727C92.055 87.0235 92.7751 74.407 92.7751 57.7968C92.7751 47.7217 86.3837 39.1896 77.3817 36.1036C76.5715 35.8313 75.7613 36.1036 75.3112 36.8297C74.231 38.645 72.2505 39.825 70 39.825V102C70 102 90.1645 102 96.1059 102C103.758 101.909 105.378 93.3772 99.2566 90.4727Z" fill="#EAA53E"/>
<path d="M64.6888 36.8309C64.2387 36.1037 63.3385 35.831 62.6183 36.1037C53.7063 39.194 47.2249 47.7378 47.2249 57.8268C47.2249 74.4599 47.945 87.0938 40.7434 90.5477C34.622 93.4562 36.2424 102 43.8941 102C49.8355 102 70 102 70 102V39.8303C67.7495 39.8303 65.769 38.6487 64.6888 36.8309Z" fill="#FFBF11"/>
<path d="M115.49 53.3809H22.1329C20.9844 53.3809 20 54.3653 20 55.5138V71.839C20 72.9875 20.9844 73.9719 22.1329 73.9719H30.3365C30.3365 73.9719 30.5827 80.2067 38.13 86.8516C38.7863 87.4258 39.6887 86.7695 39.4425 86.0312C37.3916 79.0582 40.8372 74.0539 40.8372 74.0539H115.49C116.638 74.0539 117.623 73.0695 117.623 71.921V55.5138C117.623 54.2833 116.721 53.3809 115.49 53.3809Z" fill="#ED5E5E"/>
<path d="M25 65.1937H26.6407C26.6407 65.9321 27.379 66.3422 28.1994 66.3422C29.1018 66.3422 29.8401 65.85 29.8401 65.0297C29.8401 64.2093 29.1838 63.7171 28.1174 63.7171H27.297V62.4865H28.0353C28.9377 62.4865 29.594 61.9943 29.594 61.174C29.594 60.4356 29.0198 59.9434 28.2814 59.9434C27.4611 59.9434 26.8048 60.4356 26.8048 61.174H25.1641C25.1641 59.6973 26.4766 58.7129 28.1994 58.7129C29.9222 58.7129 31.0707 59.7794 31.0707 61.174C31.0707 62.1584 30.4144 62.8967 29.512 63.0608V63.1428C30.7425 63.3069 31.3988 64.1273 31.3988 65.1937C31.3988 66.6704 30.0042 67.7369 28.1994 67.7369C26.3946 67.6548 25.082 66.6704 25 65.1937Z" fill="white"/>
<path d="M33.6138 69.7057H32.5473C32.7114 69.2135 32.9575 67.983 33.0395 66.8345V66.3422H34.4341L34.3521 66.8345C34.2701 67.9009 33.8599 69.2135 33.6138 69.7057Z" fill="white"/>
<path d="M35.6647 63.2249C35.6647 60.3536 36.8952 58.7129 39.0282 58.7129C41.1611 58.7129 42.3916 60.3536 42.3916 63.2249C42.3916 66.0961 41.1611 67.7369 39.0282 67.7369C36.9773 67.7369 35.6647 66.0961 35.6647 63.2249ZM40.833 63.2249C40.833 61.174 40.1767 60.0255 39.0282 60.0255C37.9617 60.0255 37.3054 61.0919 37.2234 63.2249C37.2234 65.3578 37.8797 66.4243 39.0282 66.4243C40.1767 66.4243 40.833 65.2758 40.833 63.2249Z" fill="white"/>
<path d="M43.7042 63.2249C43.7042 60.3536 44.9348 58.7129 47.0677 58.7129C49.2006 58.7129 50.4312 60.3536 50.4312 63.2249C50.4312 66.0961 49.2006 67.7369 47.0677 67.7369C44.9348 67.7369 43.7042 66.0961 43.7042 63.2249ZM48.8725 63.2249C48.8725 61.174 48.2162 60.0255 47.0677 60.0255C46.0012 60.0255 45.3449 61.0919 45.2629 63.2249C45.2629 65.3578 45.9192 66.4243 47.0677 66.4243C48.1342 66.4243 48.8725 65.2758 48.8725 63.2249Z" fill="white"/>
<path d="M51.7438 63.2249C51.7438 60.3536 52.9743 58.7129 55.1072 58.7129C57.2402 58.7129 58.4707 60.3536 58.4707 63.2249C58.4707 66.0961 57.2402 67.7369 55.1072 67.7369C52.9743 67.7369 51.7438 66.0961 51.7438 63.2249ZM56.83 63.2249C56.83 61.174 56.1737 60.0255 55.0252 60.0255C53.9587 60.0255 53.3024 61.0919 53.2204 63.2249C53.2204 65.3578 53.8767 66.4243 55.0252 66.4243C56.1737 66.4243 56.83 65.2758 56.83 63.2249Z" fill="white"/>
<path d="M60.5216 69.7057H59.4552C59.6192 69.2135 59.8653 67.983 59.9474 66.8345V66.3422H61.342L61.2599 66.8345C61.1779 67.9009 60.6857 69.2135 60.5216 69.7057Z" fill="white"/>
<path d="M62.5725 63.2249C62.5725 60.3536 63.8031 58.7129 65.936 58.7129C68.0689 58.7129 69.2995 60.3536 69.2995 63.2249C69.2995 66.0961 68.0689 67.7369 65.936 67.7369C63.8031 67.7369 62.5725 66.0961 62.5725 63.2249ZM67.7408 63.2249C67.7408 61.174 67.0845 60.0255 65.936 60.0255C64.8695 60.0255 64.2132 61.0919 64.1312 63.2249C64.1312 65.3578 64.7875 66.4243 65.936 66.4243C67.0845 66.4243 67.7408 65.2758 67.7408 63.2249Z" fill="white"/>
<path d="M70.6121 63.2249C70.6121 60.3536 71.8426 58.7129 73.9755 58.7129C76.1085 58.7129 77.339 60.3536 77.339 63.2249C77.339 66.0961 76.1085 67.7369 73.9755 67.7369C71.8426 67.7369 70.6121 66.0961 70.6121 63.2249ZM75.6983 63.2249C75.6983 61.174 75.042 60.0255 73.8935 60.0255C72.827 60.0255 72.1707 61.0919 72.0887 63.2249C72.0887 65.3578 72.745 66.4243 73.8935 66.4243C75.042 66.4243 75.6983 65.2758 75.6983 63.2249Z" fill="white"/>
<path d="M78.5695 63.2249C78.5695 60.3536 79.8001 58.7129 81.933 58.7129C84.066 58.7129 85.2965 60.3536 85.2965 63.2249C85.2965 66.0961 84.066 67.7369 81.933 67.7369C79.8821 67.7369 78.5695 66.0961 78.5695 63.2249ZM83.7378 63.2249C83.7378 61.174 83.0815 60.0255 81.933 60.0255C80.8666 60.0255 80.2103 61.0919 80.1282 63.2249C80.1282 65.3578 80.7845 66.4243 81.933 66.4243C83.0815 66.4243 83.7378 65.2758 83.7378 63.2249Z" fill="white"/>
<path d="M87.3474 69.7057H86.2809C86.445 69.2135 86.6911 67.983 86.7732 66.8345V66.3422H88.1678L88.0857 66.8345C88.0857 67.9009 87.5935 69.2135 87.3474 69.7057Z" fill="white"/>
<path d="M89.4804 63.2249C89.4804 60.3536 90.7109 58.7129 92.8438 58.7129C94.9768 58.7129 96.2073 60.3536 96.2073 63.2249C96.2073 66.0961 94.9768 67.7369 92.8438 67.7369C90.7109 67.7369 89.4804 66.0961 89.4804 63.2249ZM94.5666 63.2249C94.5666 61.174 93.9103 60.0255 92.7618 60.0255C91.6953 60.0255 91.039 61.0919 90.957 63.2249C90.957 65.3578 91.6133 66.4243 92.7618 66.4243C93.9103 66.4243 94.5666 65.2758 94.5666 63.2249Z" fill="white"/>
<path d="M97.4379 63.2249C97.4379 60.3536 98.6684 58.7129 100.801 58.7129C102.934 58.7129 104.165 60.3536 104.165 63.2249C104.165 66.0961 102.934 67.7369 100.801 67.7369C98.7504 67.7369 97.4379 66.0961 97.4379 63.2249ZM102.606 63.2249C102.606 61.174 101.95 60.0255 100.801 60.0255C99.7349 60.0255 99.0786 61.0919 98.9965 63.2249C98.9965 65.3578 99.6528 66.4243 100.801 66.4243C101.95 66.4243 102.606 65.2758 102.606 63.2249Z" fill="white"/>
<path d="M105.477 63.2249C105.477 60.3536 106.708 58.7129 108.841 58.7129C110.974 58.7129 112.204 60.3536 112.204 63.2249C112.204 66.0961 110.974 67.7369 108.841 67.7369C106.708 67.7369 105.477 66.0961 105.477 63.2249ZM110.646 63.2249C110.646 61.174 109.989 60.0255 108.841 60.0255C107.774 60.0255 107.118 61.0919 107.036 63.2249C107.036 65.3578 107.692 66.4243 108.841 66.4243C109.907 66.4243 110.646 65.2758 110.646 63.2249Z" fill="white"/>
</svg>
