<svg width="138" height="137" viewBox="0 0 138 137" fill="none" xmlns="http://www.w3.org/2000/svg">
<rect width="138" height="137" rx="16" fill="#E4F6F1"/>
<path d="M69.3 79.6992C68.7 79.6992 68.3 79.2992 68.3 78.6992V76.6992C68.3 76.0992 68.7 75.6992 69.3 75.6992C69.9 75.6992 70.3 76.0992 70.3 76.6992V78.6992C70.3 79.1992 69.9 79.6992 69.3 79.6992Z" fill="#6495F7"/>
<path d="M61.1 80.7996C60.7 80.7996 60.3 80.4996 60.1 80.0996L59.6 78.1996C59.5 77.6996 59.8 77.0996 60.3 76.9996C60.8 76.8996 61.4 77.1996 61.5 77.6996L62 79.5996C62.1 80.0996 61.8 80.6996 61.3 80.7996C61.2 80.7996 61.1 80.7996 61.1 80.7996Z" fill="#818AD7"/>
<path d="M53.4001 83.9988C53.1001 83.9988 52.7001 83.7988 52.5001 83.4988L51.5001 81.7988C51.2001 81.2988 51.4001 80.6988 51.9001 80.3988C52.4001 80.0988 53.0001 80.2988 53.3001 80.7988L54.3001 82.4988C54.6001 82.9988 54.4001 83.5988 53.9001 83.8988C53.7001 83.8988 53.5001 83.9988 53.4001 83.9988Z" fill="#A47CB0"/>
<path d="M46.8 88.9996C46.5 88.9996 46.3 88.8996 46.1 88.6996L44.7 87.2996C44.3 86.8996 44.3 86.2996 44.7 85.8996C45.1 85.4996 45.7 85.4996 46.1 85.8996L47.5 87.2996C47.9 87.6996 47.9 88.2996 47.5 88.6996C47.3 88.8996 47 88.9996 46.8 88.9996Z" fill="#B9749A"/>
<path d="M41.7 95.6001C41.5 95.6001 41.4 95.6001 41.2 95.5001L39.5 94.5001C39 94.2001 38.9 93.6001 39.1 93.1001C39.4 92.6001 40 92.5001 40.5 92.7001L42.2 93.7001C42.7 94.0001 42.8 94.6001 42.6 95.1001C42.4 95.4001 42 95.6001 41.7 95.6001Z" fill="#CE6B82"/>
<path d="M38.5001 103.3C38.4001 103.3 38.3001 103.3 38.2001 103.3L36.3001 102.8C35.8001 102.7 35.4001 102.1 35.6001 101.6C35.7001 101.1 36.3001 100.8 36.8001 100.9L38.7001 101.4C39.2001 101.5 39.6001 102.1 39.4001 102.6C39.4001 103 39.0001 103.3 38.5001 103.3Z" fill="#D96776"/>
<path d="M37.4 111.5H35.4C34.8 111.5 34.4 111.1 34.4 110.5C34.4 109.9 34.8 109.5 35.4 109.5H37.4C38 109.5 38.4 109.9 38.4 110.5C38.4 111.1 38 111.5 37.4 111.5Z" fill="#ED5E5E"/>
<path d="M103.1 111.5H101.1C100.5 111.5 100.1 111.1 100.1 110.5C100.1 109.9 100.5 109.5 101.1 109.5H103.1C103.7 109.5 104.1 109.9 104.1 110.5C104.1 111.1 103.7 111.5 103.1 111.5Z" fill="#42CEC6"/>
<path d="M100.1 103.3C99.7 103.3 99.3 103 99.1 102.6C99 102.1 99.3 101.5 99.8 101.4L101.7 100.9C102.2 100.8 102.8 101.1 102.9 101.6C103 102.1 102.7 102.7 102.2 102.8L100.3 103.3C100.2 103.3 100.2 103.3 100.1 103.3Z" fill="#49C4D0"/>
<path d="M96.9001 95.5995C96.6001 95.5995 96.2001 95.3995 96.0001 95.0995C95.7001 94.5995 95.9001 93.9995 96.4001 93.6995L98.1001 92.6995C98.6001 92.3995 99.2001 92.5995 99.5001 93.0995C99.8001 93.5995 99.6001 94.1995 99.1001 94.4995L97.4001 95.4995C97.2001 95.5995 97.1001 95.5995 96.9001 95.5995Z" fill="#4DBED5"/>
<path d="M91.8001 88.9996C91.5001 88.9996 91.3 88.8996 91.1 88.6996C90.7 88.2996 90.7 87.6996 91.1 87.2996L92.5001 85.8996C92.9001 85.4996 93.5001 85.4996 93.9001 85.8996C94.3001 86.2996 94.3001 86.8996 93.9001 87.2996L92.5001 88.6996C92.4001 88.8996 92.1001 88.9996 91.8001 88.9996Z" fill="#51B6DC"/>
<path d="M85.2001 83.9993C85.0001 83.9993 84.9001 83.9993 84.7001 83.8993C84.2001 83.5993 84.1001 82.9993 84.3001 82.4993L85.3001 80.7993C85.6001 80.2993 86.2001 80.1993 86.7001 80.3993C87.2001 80.6993 87.3001 81.2993 87.1001 81.7993L86.1001 83.4993C85.9001 83.7993 85.6001 83.9993 85.2001 83.9993Z" fill="#59AAE6"/>
<path d="M77.5 80.7996C77.4 80.7996 77.3 80.7996 77.2 80.7996C76.7 80.6996 76.4 80.0996 76.5 79.5996L77 77.6996C77.1 77.1996 77.7 76.8996 78.2 76.9996C78.7 77.0996 79 77.6996 78.9 78.1996L78.5 79.9996C78.4 80.4996 78 80.7996 77.5 80.7996Z" fill="#5DA2ED"/>
<path d="M85.5 95.6998C85.9 95.1998 85.3 94.5998 84.8 94.9998L71.4 106.2C71.2 106.4 71.2 106.7 71.4 106.9L73.7 109.1C73.9 109.3 74.3 109.3 74.4 109.1L85.5 95.6998Z" fill="#848484"/>
<path d="M72.9999 110.7C73.1999 110.5 73.1999 110.2 72.9999 110L70.4999 107.5C70.2999 107.3 69.9999 107.3 69.7999 107.5L67.8999 109.1C67.5999 109.3 67.3999 109.6 67.1999 110C66.6999 111.1 66.9999 112.2 67.6999 112.8C68.3999 113.5 69.4999 113.8 70.5999 113.3C70.8999 113.1 71.1999 112.9 71.3999 112.6L72.9999 110.7Z" fill="#C5C5C5"/>
<path d="M98 61C107.941 61 116 52.9411 116 43C116 33.0589 107.941 25 98 25C88.0589 25 80 33.0589 80 43C80 52.9411 88.0589 61 98 61Z" fill="#FFE866"/>
<path d="M105.1 45.5C105.1 49.6 101.8 52.8 97.8 52.8C93.8 52.8 90.5 49.5 90.5 45.5" stroke="#333333" stroke-width="2" stroke-miterlimit="10"/>
<path d="M91.5 40.8008C92.8807 40.8008 94 39.6815 94 38.3008C94 36.9201 92.8807 35.8008 91.5 35.8008C90.1193 35.8008 89 36.9201 89 38.3008C89 39.6815 90.1193 40.8008 91.5 40.8008Z" fill="#333333"/>
<path d="M104.1 40.8008C105.481 40.8008 106.6 39.6815 106.6 38.3008C106.6 36.9201 105.481 35.8008 104.1 35.8008C102.719 35.8008 101.6 36.9201 101.6 38.3008C101.6 39.6815 102.719 40.8008 104.1 40.8008Z" fill="#333333"/>
<path d="M41 61C50.9411 61 59 52.9411 59 43C59 33.0589 50.9411 25 41 25C31.0589 25 23 33.0589 23 43C23 52.9411 31.0589 61 41 61Z" fill="#FFE866"/>
<path d="M33.5 52.8008C33.5 48.7008 36.8 45.5008 40.8 45.5008C44.8 45.5008 48.1 48.8008 48.1 52.8008" stroke="#333333" stroke-width="2" stroke-miterlimit="10"/>
<path d="M34.5 40.8008C35.8807 40.8008 37 39.6815 37 38.3008C37 36.9201 35.8807 35.8008 34.5 35.8008C33.1193 35.8008 32 36.9201 32 38.3008C32 39.6815 33.1193 40.8008 34.5 40.8008Z" fill="#333333"/>
<path d="M47.1 40.8008C48.4807 40.8008 49.6 39.6815 49.6 38.3008C49.6 36.9201 48.4807 35.8008 47.1 35.8008C45.7193 35.8008 44.6 36.9201 44.6 38.3008C44.6 39.6815 45.7193 40.8008 47.1 40.8008Z" fill="#333333"/>
</svg>
