<?xml version="1.0" encoding="utf-8"?>
<!-- Generator: Adobe Illustrator 24.1.2, SVG Export Plug-In . SVG Version: 6.00 Build 0)  -->
<svg version="1.1" id="Layer_1" xmlns="http://www.w3.org/2000/svg" xmlns:xlink="http://www.w3.org/1999/xlink" x="0px" y="0px"
	 viewBox="0 0 38 37" style="enable-background:new 0 0 38 37;" xml:space="preserve">
<style type="text/css">
	.st0{fill:#FFFFFF;}
</style>
<path class="st0" d="M23.9,14.7c-0.1-0.1-0.2-0.2-0.2-0.4v-2.6h-1v1.9l-3.6-3.2L10.6,18l0.7,0.8l1.3-1.1V26c0,0.3,0.2,0.5,0.4,0.5
	h3.6c0.3,0,0.4-0.2,0.4-0.5v-5.4c0-0.3,0.2-0.5,0.4-0.5h3.4c0.3,0,0.4,0.2,0.4,0.5V26c0,0.3,0.2,0.5,0.4,0.5h3.5
	c0.3,0,0.4-0.2,0.4-0.5v-8.3l1.3,1.1l0.7-0.8L23.9,14.7z"/>
</svg>
