<?xml version="1.0" encoding="utf-8"?>
<!-- Generator: Adobe Illustrator 24.1.2, SVG Export Plug-In . SVG Version: 6.00 Build 0)  -->
<!DOCTYPE svg PUBLIC "-//W3C//DTD SVG 1.1//EN" "http://www.w3.org/Graphics/SVG/1.1/DTD/svg11.dtd" [
	<!ENTITY ns_extend "http://ns.adobe.com/Extensibility/1.0/">
	<!ENTITY ns_ai "http://ns.adobe.com/AdobeIllustrator/10.0/">
	<!ENTITY ns_graphs "http://ns.adobe.com/Graphs/1.0/">
	<!ENTITY ns_vars "http://ns.adobe.com/Variables/1.0/">
	<!ENTITY ns_imrep "http://ns.adobe.com/ImageReplacement/1.0/">
	<!ENTITY ns_sfw "http://ns.adobe.com/SaveForWeb/1.0/">
	<!ENTITY ns_custom "http://ns.adobe.com/GenericCustomNamespace/1.0/">
	<!ENTITY ns_adobe_xpath "http://ns.adobe.com/XPath/1.0/">
]>
<svg version="1.1" id="Layer_1" xmlns:x="&ns_extend;" xmlns:i="&ns_ai;" xmlns:graph="&ns_graphs;"
	 xmlns="http://www.w3.org/2000/svg" xmlns:xlink="http://www.w3.org/1999/xlink" x="0px" y="0px" width="22px" height="22px"
	 viewBox="0 0 22 22" enable-background="new 0 0 22 22" xml:space="preserve">
<metadata>
	<sfw  xmlns="&ns_sfw;">
		<slices></slices>
		<sliceSourceBounds  bottomLeftOrigin="true" height="11.843" width="11.84" x="5.08" y="-16.921"></sliceSourceBounds>
	</sfw>
</metadata>
<g>
	<path fill="#FFFFFF" d="M12.284,9.017c-0.078-0.078-0.205-0.078-0.283,0l-0.778,0.778c-0.078,0.078-0.078,0.205,0,0.283
		l0.565,0.565c0.488,0.488,0.488,1.28,0,1.768l-2.645,2.645c-0.488,0.488-1.28,0.488-1.768,0l-0.43-0.43
		c-0.488-0.488-0.488-1.28,0-1.768l0.789-0.789c0.057-0.057,0.07-0.141,0.039-0.214c-0.179-0.414-0.278-0.852-0.3-1.295
		c0,0,0.001-0.135-0.063-0.184s-0.151,0.047-0.151,0.047l-1.375,1.375c-1.072,1.072-1.072,2.817,0,3.889l0.43,0.43
		c1.074,1.074,2.815,1.074,3.889,0l2.645-2.645c1.074-1.074,1.074-2.815,0-3.889L12.284,9.017z"/>
	<path fill="#FFFFFF" d="M16.116,6.314l-0.43-0.43c-1.074-1.074-2.815-1.074-3.889,0L9.151,8.529c-1.074,1.074-1.074,2.815,0,3.889
		l0.565,0.565c0.078,0.078,0.205,0.078,0.283,0l0.778-0.778c0.078-0.078,0.078-0.205,0-0.283l-0.565-0.565
		c-0.488-0.488-0.488-1.28,0-1.768l2.645-2.645c0.488-0.488,1.28-0.488,1.768,0l0.43,0.43c0.488,0.488,0.488,1.28,0,1.768
		l-0.789,0.789c-0.057,0.057-0.07,0.141-0.039,0.214c0.179,0.414,0.278,0.852,0.3,1.295c0,0-0.001,0.135,0.063,0.184
		c0.064,0.05,0.151-0.047,0.151-0.047l1.375-1.375C17.188,9.131,17.188,7.387,16.116,6.314z"/>
</g>
</svg>
