<?xml version="1.0" encoding="utf-8"?>
<!-- Generator: Adobe Illustrator 24.1.2, SVG Export Plug-In . SVG Version: 6.00 Build 0)  -->
<!DOCTYPE svg PUBLIC "-//W3C//DTD SVG 1.1//EN" "http://www.w3.org/Graphics/SVG/1.1/DTD/svg11.dtd" [
	<!ENTITY ns_extend "http://ns.adobe.com/Extensibility/1.0/">
	<!ENTITY ns_ai "http://ns.adobe.com/AdobeIllustrator/10.0/">
	<!ENTITY ns_graphs "http://ns.adobe.com/Graphs/1.0/">
	<!ENTITY ns_vars "http://ns.adobe.com/Variables/1.0/">
	<!ENTITY ns_imrep "http://ns.adobe.com/ImageReplacement/1.0/">
	<!ENTITY ns_sfw "http://ns.adobe.com/SaveForWeb/1.0/">
	<!ENTITY ns_custom "http://ns.adobe.com/GenericCustomNamespace/1.0/">
	<!ENTITY ns_adobe_xpath "http://ns.adobe.com/XPath/1.0/">
]>
<svg version="1.1" id="Layer_1" xmlns:x="&ns_extend;" xmlns:i="&ns_ai;" xmlns:graph="&ns_graphs;"
	 xmlns="http://www.w3.org/2000/svg" xmlns:xlink="http://www.w3.org/1999/xlink" x="0px" y="0px" width="25px" height="25px"
	 viewBox="0 0 25 25" style="enable-background:new 0 0 25 25;" xml:space="preserve">
<style type="text/css">
	.st0{fill:#191F28;}
</style>
<metadata>
	<sfw  xmlns="&ns_sfw;">
		<slices></slices>
		<sliceSourceBounds  bottomLeftOrigin="true" height="12.8" width="12.4" x="37.3" y="6.7"></sliceSourceBounds>
	</sfw>
</metadata>
<g>
	<rect x="6.5" y="9" class="st0" width="2.4" height="8.9"/>
	<path class="st0" d="M7.7,5.1c-0.8,0-1.4,0.6-1.4,1.4S6.9,8,7.7,8c0.8,0,1.4-0.6,1.4-1.4S8.5,5.1,7.7,5.1z"/>
	<path class="st0" d="M13,10.4V9h-2.4v8.9H13v-4.6c0-2.5,3.2-2.7,3.2,0v4.6h2.4v-5.5C18.7,8.2,14.1,8.3,13,10.4z"/>
	<path class="st0" d="M8.9,17.9H6.5V9h2.4V17.9z M7.7,8C6.9,8,6.3,7.3,6.3,6.5s0.6-1.4,1.4-1.4s1.4,0.6,1.4,1.4S8.5,8,7.7,8z
		 M18.7,17.9h-2.4v-4.6c0-2.7-3.2-2.5-3.2,0v4.6h-2.4V9H13v1.4c1.1-2.1,5.7-2.3,5.7,2V17.9z"/>
</g>
</svg>
