<?xml version="1.0" encoding="utf-8"?>
<!-- Generator: Adobe Illustrator 24.1.2, SVG Export Plug-In . SVG Version: 6.00 Build 0)  -->
<svg version="1.1" id="Layer_1" xmlns="http://www.w3.org/2000/svg" xmlns:xlink="http://www.w3.org/1999/xlink" x="0px" y="0px"
	 viewBox="0 0 25 25" style="enable-background:new 0 0 25 25;" xml:space="preserve">
<style type="text/css">
	.st0{fill:#191F28;}
</style>
<g>
	<path class="st0" d="M17.7,8c-0.2-0.1-0.4-0.3-0.6-0.3c-0.1-0.1-0.3-0.1-0.5-0.1c-0.1,0-0.2,0-4,0c-2.9,0-3.9,0-3.9,0
		c-0.4,0-0.7,0.1-1,0.3C6.8,8.2,6.3,8.9,6.3,9.7c0,0.2,0,5.4,0,5.6c0.1,1.1,0.9,1.9,2,2.2c0.2,0-0.1,0,4.2,0c4.1,0,4,0,4.2,0
		c0.4-0.1,0.8-0.3,1.1-0.5c0.1-0.1,0.3-0.3,0.4-0.4c0.3-0.3,0.5-0.8,0.5-1.2c0-0.2,0-5.4,0-5.6C18.7,9,18.3,8.4,17.7,8z M15.4,12.7
		c-0.2,0.1-0.5,0.3-0.7,0.4c-2.2,1.3-4.1,2.4-4.1,2.4l0,0v-1.1c0-1.7,0-5,0-5c0,0,0.9,0.5,2,1.1s2.2,1.3,2.5,1.5
		c0.5,0.3,0.7,0.4,0.7,0.4C15.7,12.5,15.6,12.6,15.4,12.7z"/>
</g>
</svg>
