<svg width="25" height="25" viewBox="0 0 25 25" fill="none" xmlns="http://www.w3.org/2000/svg">
<path d="M12.5 0C5.6 0 0 5.6 0 12.5C0 19.4 5.6 25 12.5 25C19.4 25 25 19.4 25 12.5C25 5.6 19.4 0 12.5 0ZM18.725 15.275C18.675 15.725 18.5 16.175 18.225 16.5C18.15 16.6 17.95 16.8 17.85 16.9C17.525 17.175 17.15 17.35 16.725 17.45C16.45 17.5 18.125 17.5 12.5 17.5C6.875 17.5 8.55 17.5 8.275 17.45C7.175 17.225 6.375 16.35 6.275 15.275C6.25 15.125 6.25 9.875 6.25 9.725C6.325 8.9 6.85 8.175 7.625 7.775C7.95 7.625 8.25 7.525 8.625 7.5C8.65 7.5 9.65 7.5 12.55 7.5C17.525 7.5 16.45 7.5 16.55 7.525C16.725 7.55 16.925 7.6 17.05 7.65C17.225 7.7 17.5 7.85 17.65 7.95C18.275 8.375 18.65 9 18.725 9.725C18.75 9.875 18.75 15.125 18.725 15.275Z" fill="#696D73"/>
<path d="M15.0499 12.0751C14.7249 11.9001 13.5999 11.2251 12.5249 10.6001C11.4499 9.9751 10.5749 9.4751 10.5749 9.4751C10.5499 9.4751 10.5499 12.7251 10.5749 14.4501V15.5251L10.5999 15.5001C10.6249 15.5001 12.5499 14.3501 14.7249 13.0751C14.8999 12.9751 15.1999 12.8001 15.3999 12.6751C15.5999 12.5501 15.7499 12.4751 15.7499 12.4751C15.7249 12.4751 15.5999 12.4001 15.0499 12.0751Z" fill="#696D73"/>
</svg>
