<svg width="31" height="31" viewBox="0 0 31 31" fill="none" xmlns="http://www.w3.org/2000/svg">
<g clip-path="url(#clip0)">
<path d="M16.2 8.50039V2.00039C16.2 1.70039 15.9 1.40039 15.6 1.40039H6.1C5.8 1.40039 5.5 1.70039 5.5 2.00039V28.0004C5.5 28.3004 5.8 28.6004 6.1 28.6004H23.9C24.2 28.6004 24.5 28.3004 24.5 28.0004V10.3004C24.5 10.0004 24.2 9.70039 23.9 9.70039H17.4C16.7 9.70039 16.2 9.20039 16.2 8.50039Z" fill="#CAD8EC"/>
<path d="M17.6 1.99942V7.69942C17.6 7.99942 17.9 8.29942 18.2 8.29942H23.9C24.4 8.29942 24.7 7.69942 24.3 7.29942L18.6 1.59942C18.3 1.19942 17.6 1.49942 17.6 1.99942Z" fill="#6A8FC8"/>
<path d="M9 19H21" stroke="#6A8FC8" stroke-width="2" stroke-linecap="round"/>
<path d="M9 23H21" stroke="#6A8FC8" stroke-width="2" stroke-linecap="round"/>
<path d="M9 15H21" stroke="#6A8FC8" stroke-width="2" stroke-linecap="round"/>
</g>
<defs>
<clipPath id="clip0">
<rect width="19" height="27.2" fill="white" transform="translate(5.5 1.40039)"/>
</clipPath>
</defs>
</svg>
