<?xml version="1.0" encoding="utf-8"?>
<!-- Generator: Adobe Illustrator 24.1.2, SVG Export Plug-In . SVG Version: 6.00 Build 0)  -->
<svg version="1.1" id="Layer_1" xmlns="http://www.w3.org/2000/svg" xmlns:xlink="http://www.w3.org/1999/xlink" x="0px" y="0px"
	 viewBox="0 0 16 16" style="enable-background:new 0 0 16 16;" xml:space="preserve">
<style type="text/css">
	.st0{fill:#FFFFFF;}
</style>
<g>
	<path class="st0" d="M7.7,11.3c0.1,0.1,0.2,0.1,0.4,0.1s0.3,0,0.4-0.1l3-3c0.2-0.2,0.2-0.5,0-0.7c-0.2-0.2-0.5-0.2-0.7,0L8.5,9.8
		V3.2C8.5,3,8.3,2.7,8,2.7S7.5,3,7.5,3.2v6.5L5.4,7.6c-0.2-0.2-0.5-0.2-0.7,0c-0.2,0.2-0.2,0.5,0,0.7L7.7,11.3z"/>
	<path class="st0" d="M12.9,12.3H3.1c-0.3,0-0.5,0.2-0.5,0.5s0.2,0.5,0.5,0.5h9.8c0.3,0,0.5-0.2,0.5-0.5S13.2,12.3,12.9,12.3z"/>
</g>
</svg>
