<?xml version="1.0" encoding="utf-8"?>
<!-- Generator: Adobe Illustrator 24.1.2, SVG Export Plug-In . SVG Version: 6.00 Build 0)  -->
<svg version="1.1" id="Layer_1" xmlns="http://www.w3.org/2000/svg" xmlns:xlink="http://www.w3.org/1999/xlink" x="0px" y="0px"
	 viewBox="0 0 138 137" style="enable-background:new 0 0 138 137;" xml:space="preserve">
<style type="text/css">
	.st0{fill:#8B8B97;}
	.st1{fill:#E0CDC6;}
	.st2{fill:#F1DDD0;}
	.st3{fill:#FF7466;}
	.st4{fill:#FFFFFF;}
	.st5{fill:#F9F0EB;}
</style>
<path class="st0" d="M16,0h106c8.8,0,16,7.2,16,16v105c0,8.8-7.2,16-16,16H16c-8.8,0-16-7.2-16-16V16C0,7.2,7.2,0,16,0z"/>
<g>
	<g>
		<path class="st1" d="M90.9,61.1h-18c-1.4,0-2.5,1.1-2.5,2.5v1.3c0,4.6,3.7,8.3,8.3,8.3h5.7c0.7,0,1.3,0.6,1.3,1.3V76
			c0,0.7-0.6,1.3-1.3,1.3h-2.7c-7.3,0-13.8,3.7-18.8,9c-0.5,0.5-1.3,0.5-1.8,0.1l-1.4-1.3c-0.6-0.5-0.6-1.4-0.1-1.9l2.9-3
			c3.2-3.3,4.9-7.7,4.7-12.2l-0.1-1.8c-1,2.3-3.4,4-6.1,4h-5.4c-0.8,0-1.6-0.1-2.3-0.4c-1,2.3-3.4,3.9-6.1,3.9h-5.4
			c-0.9,0-1.7-0.2-2.5-0.5v9.2c0,7.6,4.5,14.5,11.5,17.5l2.8,1.2c1.5,0.7,2.5,2.1,2.5,3.8v13.3c0,1.6,1.3,2.9,2.9,2.9h20.5
			c1.6,0,2.9-1.3,2.9-2.9v-13.3c0-1.7,1-3.1,2.5-3.8l2.8-1.2c7-3,11.5-9.9,11.5-17.5V69.4C99.2,64.8,95.5,61.1,90.9,61.1z"/>
	</g>
	<path class="st2" d="M53.1,63V48.4c0-1.7,1.3-3,3-3h4.4c1.7,0,3,1.3,3,3V63c0,1.7-1.3,3-3,3h-4.4C54.4,66,53.1,64.6,53.1,63z"/>
	<path class="st2" d="M39.3,66.4V51.9c0-1.7,1.3-3,3-3h4.4c1.7,0,3,1.3,3,3v14.6c0,1.7-1.3,3-3,3h-4.4
		C40.7,69.4,39.3,68.1,39.3,66.4z"/>
	<g>
		<path class="st2" d="M72.9,57h4.5V44.4c0-1.4-1.1-2.5-2.5-2.5h-5.4c-1.4,0-2.5,1.1-2.5,2.5V60c0,0.2,0,0.4,0.1,0.5
			C68.1,58.5,70.3,57,72.9,57z"/>
		<path class="st2" d="M91.1,57V26.3c0-2.1-1.7-3.8-3.8-3.8h-2.8c-2.1,0-3.8,1.7-3.8,3.8V57h10.2C91,57,91,57,91.1,57z"/>
	</g>
</g>
<path class="st3" d="M26.1,15.3h22.9c5.3,0,9.5,4.3,9.5,9.5l0,0c0,5.3-4.3,9.5-9.5,9.5H26.1c-5.3,0-9.5-4.3-9.5-9.5l0,0
	C16.5,19.6,20.8,15.3,26.1,15.3z"/>
<g>
	<path class="st4" d="M29.5,29.3l-3.9-5.7h-0.1v5.7h-1.9v-9.1h1.7l3.9,5.7h0.1v-5.7h1.9v9.1H29.5z"/>
	<path class="st4" d="M36.8,29.4c-2.4,0-4.2-1.7-4.2-4.7c0-3,1.8-4.7,4.2-4.7c2.4,0,4.2,1.7,4.2,4.7S39.2,29.4,36.8,29.4z
		 M36.8,21.8c-1.4,0-2.3,1-2.3,3s0.9,3,2.3,3c1.4,0,2.3-1,2.3-3S38.2,21.8,36.8,21.8z"/>
	<path class="st4" d="M41.9,28.3c0-0.6,0.5-1.1,1.1-1.1c0.6,0,1.1,0.5,1.1,1.1c0,0.6-0.5,1.1-1.1,1.1C42.3,29.4,41.9,28.9,41.9,28.3
		z"/>
	<path class="st4" d="M50,29.3V22h-0.1l-2.1,1.3v-1.7l2.2-1.4h1.8v9.1H50z"/>
</g>
<path class="st5" d="M73.1,61.1c0.5,3.1,2.4,3.8,3.1,3.9c0.5,0.1,3,0,4.4,0c0.5,0,1-0.5,1-1v-2.9H73.1z"/>
</svg>
