<?xml version="1.0" encoding="utf-8"?>
<!-- Generator: Adobe Illustrator 24.1.2, SVG Export Plug-In . SVG Version: 6.00 Build 0)  -->
<svg version="1.1" id="Layer_1" xmlns="http://www.w3.org/2000/svg" xmlns:xlink="http://www.w3.org/1999/xlink" x="0px" y="0px"
	 viewBox="0 0 138 137" enable-background="new 0 0 138 137" xml:space="preserve">
<g>
	<path fill="#8A8A96" d="M16,0.1h106c8.8,0,16,7.2,16,16v105c0,8.8-7.2,16-16,16H16c-8.8,0-16-7.2-16-16v-105C0,7.2,7.2,0.1,16,0.1z
		"/>
	<path fill="#DFCDC6" d="M90.9,61.2h-18c-1.4,0-2.5,1.1-2.5,2.5V65c0,4.6,3.7,8.3,8.3,8.3h5.7c0.7,0,1.3,0.6,1.3,1.3V76
		c0,0.7-0.6,1.3-1.3,1.3h-2.7c-7.3,0-13.8,3.7-18.8,9c-0.5,0.5-1.3,0.5-1.8,0.1l-1.4-1.3c-0.6-0.5-0.6-1.4-0.1-1.9l2.9-3
		c3.2-3.3,4.9-7.7,4.7-12.2l-0.1-1.8c-1,2.3-3.4,4-6.1,4h-5.4c-0.8,0-1.6-0.1-2.3-0.4c-1,2.3-3.4,3.9-6.1,3.9h-5.5
		c-0.9,0-1.7-0.2-2.5-0.5v9.2c0,7.6,4.5,14.5,11.5,17.5l2.8,1.2c1.5,0.7,2.5,2.1,2.5,3.8v13.3c0,1.6,1.3,2.9,2.9,2.9h20.5
		c1.6,0,2.9-1.3,2.9-2.9v-13.3c0-1.7,1-3.1,2.5-3.8l2.8-1.2c7-3,11.5-9.9,11.5-17.5V69.5C99.2,64.9,95.5,61.2,90.9,61.2z"/>
	<path fill="#F1DCCF" d="M53.1,63.1V48.5c0-1.7,1.3-3,3-3h4.4c1.7,0,3,1.3,3,3v14.6c0,1.7-1.3,3-3,3h-4.4
		C54.4,66.1,53.1,64.7,53.1,63.1z"/>
	<path fill="#F1DCCF" d="M39.3,66.5V51.9c0-1.7,1.3-3,3-3h4.4c1.7,0,3,1.3,3,3v14.6c0,1.7-1.3,3-3,3h-4.4
		C40.7,69.5,39.3,68.1,39.3,66.5z"/>
	<path fill="#F1DCCF" d="M72.9,57.1h4.5V44.5c0-1.4-1.1-2.5-2.5-2.5h-5.5c-1.4,0-2.5,1.1-2.5,2.5v15.6c0,0.2,0,0.4,0.1,0.5
		C68.1,58.5,70.3,57.1,72.9,57.1z"/>
	<path fill="#F1DCCF" d="M91.1,57.1V26.4c0-2.1-1.7-3.8-3.8-3.8h-2.8c-2.1,0-3.8,1.7-3.8,3.8v30.7h10.2H91.1z"/>
	<path fill="#F27468" d="M26.1,15.4H49c5.3,0,9.5,4.3,9.5,9.5c0,5.3-4.3,9.5-9.5,9.5H26.1c-5.3,0-9.5-4.3-9.5-9.5
		C16.5,19.7,20.8,15.4,26.1,15.4z"/>
	<polygon fill="#FFFFFF" points="29.5,29.3 25.5,23.6 25.4,23.6 25.4,29.3 23.5,29.3 23.5,20.3 25.2,20.3 29.1,26 29.2,26 
		29.2,20.3 31.1,20.3 31.1,29.3 	"/>
	<path fill="#FFFFFF" d="M36.8,29.5c-2.4,0-4.2-1.7-4.2-4.7s1.8-4.7,4.2-4.7s4.2,1.7,4.2,4.7S39.2,29.5,36.8,29.5z M36.8,21.8
		c-1.4,0-2.3,1-2.3,3s0.9,3,2.3,3c1.4,0,2.3-1,2.3-3S38.2,21.8,36.8,21.8z"/>
	<path fill="#FFFFFF" d="M41.9,28.4c0-0.6,0.5-1.1,1.1-1.1s1.1,0.5,1.1,1.1s-0.5,1.1-1.1,1.1C42.3,29.4,41.9,29,41.9,28.4z"/>
	<polygon fill="#FFFFFF" points="50,29.3 50,22.1 49.9,22.1 47.9,23.4 47.9,21.7 50.1,20.3 51.9,20.3 51.9,29.3 	"/>
	<path fill="#F9F0EA" d="M73.1,61.2c0.5,3.1,2.4,3.8,3.1,3.9c0.5,0.1,3,0,4.4,0c0.5,0,1-0.5,1-1v-2.9C81.6,61.2,73.1,61.2,73.1,61.2
		z"/>
</g>
</svg>
