<svg width="138" height="137" viewBox="0 0 138 137" fill="none" xmlns="http://www.w3.org/2000/svg">
<rect width="138" height="137" rx="16" fill="#F4EDE6"/>
<g clip-path="url(#clip0)">
<path d="M63.1 84.6992H61.1V99.5992H63.1V84.6992Z" fill="#848484"/>
<path d="M76.9 84.6992H74.9V99.5992H76.9V84.6992Z" fill="#848484"/>
<path d="M117 77.5V36C117 33.8 115.2 32 113 32H25C22.8 32 21 33.8 21 36V77.5C21 77.8 21.2 78 21.5 78H116.5C116.8 78 117 77.8 117 77.5Z" fill="#C1E5F0"/>
<rect x="25" y="36" width="22" height="10" rx="5" fill="#84CBE1"/>
<path d="M31.8455 40.6914H32.9343C32.7926 39.5156 31.9027 38.8395 30.7244 38.8395C29.3796 38.8395 28.353 39.7891 28.353 41.4545C28.353 43.1151 29.3622 44.0696 30.7244 44.0696C32.0295 44.0696 32.8175 43.2021 32.9343 42.2649L31.8455 42.2599C31.7436 42.8043 31.3161 43.1175 30.7418 43.1175C29.9688 43.1175 29.4442 42.5433 29.4442 41.4545C29.4442 40.3956 29.9613 39.7915 30.7493 39.7915C31.3384 39.7915 31.7635 40.1321 31.8455 40.6914ZM33.5123 38.9091V39.7965H35.0708V44H36.1348V39.7965H37.6934V38.9091H33.5123ZM40.5321 42.777L39.3017 38.9091H38.106L39.8635 44H41.2505L43.0055 38.9091H41.8123L40.5794 42.777H40.5321Z" fill="white"/>
<path d="M21 80.5V82C21 84.2 22.8 86 25 86H113C115.2 86 117 84.2 117 82V80.5C117 80.2 116.8 80 116.5 80H21.5C21.2 80 21 80.2 21 80.5Z" fill="#C5C5C5"/>
<path d="M39 100.6V102.6C39 103.7 39.9 104.6 41 104.6H97C98.1 104.6 99 103.7 99 102.6V100.6C99 99.4996 98.1 98.5996 97 98.5996H41C39.9 98.5996 39 99.4996 39 100.6Z" fill="#C5C5C5"/>
<path d="M107 100.6V102.6C107 103.7 107.9 104.6 109 104.6H115C116.1 104.6 117 103.7 117 102.6V100.6C117 99.4996 116.1 98.5996 115 98.5996H109C107.9 98.5996 107 99.4996 107 100.6Z" fill="#848484"/>
<path d="M21 100.6V102.6C21 103.7 21.9 104.6 23 104.6H29C30.1 104.6 31 103.7 31 102.6V100.6C31 99.4996 30.1 98.5996 29 98.5996H23C21.9 98.5996 21 99.4996 21 100.6Z" fill="#848484"/>
<circle cx="100" cy="83" r="1" fill="#848484"/>
<path d="M97 86H103V87C103 87.5523 102.552 88 102 88H98C97.4477 88 97 87.5523 97 87V86Z" fill="#FFA011"/>
<circle cx="68.5" cy="55.5" r="14" stroke="#84CBE1"/>
<path d="M59.5 55.5C59.5 51.5791 60.5422 48.0525 62.2007 45.521C63.8621 42.9851 66.0999 41.5 68.5 41.5C70.9001 41.5 73.1379 42.9851 74.7993 45.521C76.4578 48.0525 77.5 51.5792 77.5 55.5C77.5 59.4208 76.4578 62.9476 74.7993 65.479C73.1379 68.0149 70.9001 69.5 68.5 69.5C66.0999 69.5 63.8621 68.0149 62.2007 65.479C60.5422 62.9475 59.5 59.4208 59.5 55.5Z" stroke="#84CBE1"/>
<path d="M65.5 55.5C65.5 51.5235 65.8895 47.9397 66.5112 45.3643C66.8229 44.0726 67.1866 43.0625 67.5719 42.3873C67.9793 41.6735 68.3113 41.5 68.5 41.5C68.6887 41.5 69.0207 41.6735 69.4281 42.3873C69.8134 43.0625 70.1771 44.0726 70.4888 45.3643C71.1105 47.9397 71.5 51.5235 71.5 55.5C71.5 59.4765 71.1105 63.0603 70.4888 65.6357C70.1771 66.9274 69.8134 67.9375 69.4281 68.6127C69.0207 69.3265 68.6887 69.5 68.5 69.5C68.3113 69.5 67.9793 69.3265 67.5719 68.6127C67.1866 67.9375 66.8229 66.9274 66.5112 65.6357C65.8895 63.0603 65.5 59.4765 65.5 55.5Z" stroke="#84CBE1"/>
<path d="M56 49H81" stroke="#84CBE1"/>
<path d="M55 56H82" stroke="#84CBE1"/>
<path d="M56 62H81" stroke="#84CBE1"/>
</g>
<defs>
<clipPath id="clip0">
<rect width="96" height="72.6" fill="white" transform="translate(21 32)"/>
</clipPath>
</defs>
</svg>
