<?xml version="1.0" encoding="utf-8"?>
<!-- Generator: Adobe Illustrator 24.1.2, SVG Export Plug-In . SVG Version: 6.00 Build 0)  -->
<!DOCTYPE svg PUBLIC "-//W3C//DTD SVG 1.1//EN" "http://www.w3.org/Graphics/SVG/1.1/DTD/svg11.dtd" [
	<!ENTITY ns_extend "http://ns.adobe.com/Extensibility/1.0/">
	<!ENTITY ns_ai "http://ns.adobe.com/AdobeIllustrator/10.0/">
	<!ENTITY ns_graphs "http://ns.adobe.com/Graphs/1.0/">
	<!ENTITY ns_vars "http://ns.adobe.com/Variables/1.0/">
	<!ENTITY ns_imrep "http://ns.adobe.com/ImageReplacement/1.0/">
	<!ENTITY ns_sfw "http://ns.adobe.com/SaveForWeb/1.0/">
	<!ENTITY ns_custom "http://ns.adobe.com/GenericCustomNamespace/1.0/">
	<!ENTITY ns_adobe_xpath "http://ns.adobe.com/XPath/1.0/">
	<!ENTITY st0 "opacity:0.7;">
	<!ENTITY st1 "fill:#232323;">
]>
<svg version="1.1" id="Layer_1" xmlns:x="&ns_extend;" xmlns:i="&ns_ai;" xmlns:graph="&ns_graphs;"
	 xmlns="http://www.w3.org/2000/svg" xmlns:xlink="http://www.w3.org/1999/xlink" x="0px" y="0px" width="22px" height="22px"
	 viewBox="0 0 22 22" style="enable-background:new 0 0 22 22;" xml:space="preserve">
<metadata>
	<sfw  xmlns="&ns_sfw;">
		<slices></slices>
		<sliceSourceBounds  bottomLeftOrigin="true" height="11.843" width="11.84" x="0.093" y="-11.926"></sliceSourceBounds>
	</sfw>
</metadata>
<g style="&st0;">
	<g>
		<path style="&st1;" d="M2.07,5.629L0.898,6.801c-1.072,1.072-1.072,2.817,0,3.889l0.43,0.43c1.074,1.074,2.815,1.074,3.889,0
			l2.645-2.645c1.074-1.074,1.074-2.815,0-3.889L7.574,4.297c-0.078-0.078-0.205-0.078-0.283,0L6.513,5.075
			c-0.078,0.078-0.078,0.205,0,0.283l0.289,0.289c0.488,0.488,0.488,1.28,0,1.768L4.156,10.06c-0.488,0.488-1.28,0.488-1.768,0
			l-0.43-0.43c-0.488-0.488-0.488-1.28,0-1.768l0.586-0.586c0.057-0.057,0.07-0.141,0.039-0.214c-0.179-0.414-0.278-0.852-0.3-1.295
			c0,0,0.001-0.135-0.063-0.184C2.156,5.532,2.07,5.629,2.07,5.629z"/>
	</g>
	<g>
		<path style="&st1;" d="M9.957,6.38l1.172-1.172c1.072-1.072,1.072-2.817,0-3.889l-0.43-0.43c-1.074-1.074-2.815-1.074-3.889,0
			L4.165,3.534c-1.074,1.074-1.074,2.815,0,3.889l0.289,0.289c0.078,0.078,0.205,0.078,0.283,0l0.778-0.778
			c0.078-0.078,0.078-0.205,0-0.283L5.225,6.362c-0.488-0.488-0.488-1.28,0-1.768l2.645-2.645c0.488-0.488,1.28-0.488,1.768,0
			l0.43,0.43c0.488,0.488,0.488,1.28,0,1.768L9.482,4.733C9.426,4.79,9.412,4.874,9.444,4.948c0.179,0.414,0.278,0.852,0.3,1.295
			c0,0-0.001,0.135,0.063,0.184C9.871,6.476,9.957,6.38,9.957,6.38z"/>
	</g>
</g>
</svg>
