<?xml version="1.0" encoding="utf-8"?>
<!-- Generator: Adobe Illustrator 24.1.2, SVG Export Plug-In . SVG Version: 6.00 Build 0)  -->
<!DOCTYPE svg PUBLIC "-//W3C//DTD SVG 1.1//EN" "http://www.w3.org/Graphics/SVG/1.1/DTD/svg11.dtd" [
	<!ENTITY ns_extend "http://ns.adobe.com/Extensibility/1.0/">
	<!ENTITY ns_ai "http://ns.adobe.com/AdobeIllustrator/10.0/">
	<!ENTITY ns_graphs "http://ns.adobe.com/Graphs/1.0/">
	<!ENTITY ns_vars "http://ns.adobe.com/Variables/1.0/">
	<!ENTITY ns_imrep "http://ns.adobe.com/ImageReplacement/1.0/">
	<!ENTITY ns_sfw "http://ns.adobe.com/SaveForWeb/1.0/">
	<!ENTITY ns_custom "http://ns.adobe.com/GenericCustomNamespace/1.0/">
	<!ENTITY ns_adobe_xpath "http://ns.adobe.com/XPath/1.0/">
	<!ENTITY st0 "fill:#F7EED7;">
	<!ENTITY st1 "fill:#6495F7;">
	<!ENTITY st2 "fill:#FFF0D3;">
	<!ENTITY st3 "fill:#FFC011;">
	<!ENTITY st4 "fill:#EAA53E;">
]>
<svg version="1.1" id="Layer_1" xmlns:x="&ns_extend;" xmlns:i="&ns_ai;" xmlns:graph="&ns_graphs;"
	 xmlns="http://www.w3.org/2000/svg" xmlns:xlink="http://www.w3.org/1999/xlink" x="0px" y="0px" width="139px" height="137px"
	 viewBox="0 0 139 137" style="enable-background:new 0 0 139 137;" xml:space="preserve">
<metadata>
	<sfw  xmlns="&ns_sfw;">
		<slices></slices>
		<sliceSourceBounds  bottomLeftOrigin="true" height="137" width="138" x="0.5" y="0"></sliceSourceBounds>
	</sfw>
</metadata>
<path style="&st0;" d="M16.5,0h106c8.837,0,16,7.163,16,16v105c0,8.837-7.163,16-16,16h-106c-8.837,0-16-7.163-16-16V16
	C0.5,7.163,7.663,0,16.5,0z"/>
<path style="&st1;" d="M50.3,45.9V25.5c0-0.3-0.2-0.5-0.5-0.5h-3.9c-0.3,0-0.5,0.2-0.5,0.5v20.3c0,0.3-0.2,0.5-0.5,0.5h-3.4
	c-0.4,0-0.6,0.5-0.4,0.8l6.4,9.2c0.2,0.3,0.6,0.3,0.8,0l6.4-9.2c0.2-0.3,0-0.8-0.4-0.8h-3.5C50.5,46.4,50.3,46.2,50.3,45.9z"/>
<path style="&st2;" d="M66.6,73.8H29.1c-1.4,0-2.6,1.2-2.6,2.6v4.5c0,1.4,1.2,2.6,2.6,2.6h37.5c1.4,0,2.6-1.2,2.6-2.6v-4.5
	C69.1,74.9,68,73.8,66.6,73.8z"/>
<path style="&st2;" d="M66.6,64.1H29.1c-1.4,0-2.6,1.2-2.6,2.6v4.5c0,1.4,1.2,2.6,2.6,2.6h37.5c1.4,0,2.6-1.2,2.6-2.6v-4.5
	C69.1,65.2,68,64.1,66.6,64.1z"/>
<path style="&st2;" d="M109.3,64.1H71.8c-1.4,0-2.6,1.2-2.6,2.6v4.5c0,1.4,1.2,2.6,2.6,2.6h37.5c1.4,0,2.6-1.2,2.6-2.6v-4.5
	C111.9,65.2,110.8,64.1,109.3,64.1z"/>
<path style="&st2;" d="M109.3,54.4H71.8c-1.4,0-2.6,1.2-2.6,2.6v4.5c0,1.4,1.2,2.6,2.6,2.6h37.5c1.4,0,2.6-1.2,2.6-2.6V57
	C111.9,55.6,110.8,54.4,109.3,54.4z"/>
<path style="&st2;" d="M109.3,44.7H71.8c-1.4,0-2.6,1.2-2.6,2.6v4.5c0,1.4,1.2,2.6,2.6,2.6h37.5c1.4,0,2.6-1.2,2.6-2.6v-4.5
	C111.9,45.9,110.8,44.7,109.3,44.7z"/>
<path style="&st2;" d="M66.6,73.8H29.1c-1.4,0-2.6,1.2-2.6,2.6v4.5c0,1.4,1.2,2.6,2.6,2.6h37.5c1.4,0,2.6-1.2,2.6-2.6v-4.5
	C69.1,74.9,68,73.8,66.6,73.8z"/>
<path style="&st3;" d="M66.6,93.2H29.1c-1.4,0-2.6,1.2-2.6,2.6v4.5c0,1.4,1.2,2.6,2.6,2.6h37.5c1.4,0,2.6-1.2,2.6-2.6v-4.5
	C69.1,94.4,68,93.2,66.6,93.2z"/>
<path style="&st3;" d="M66.6,102.9H29.1c-1.4,0-2.6,1.2-2.6,2.6v4.5c0,1.4,1.2,2.6,2.6,2.6h37.5c1.4,0,2.6-1.2,2.6-2.6v-4.5
	C69.1,104.1,68,102.9,66.6,102.9z"/>
<path style="&st3;" d="M66.6,83.5H29.1c-1.4,0-2.6,1.2-2.6,2.6v4.5c0,1.4,1.2,2.6,2.6,2.6h37.5c1.4,0,2.6-1.2,2.6-2.6v-4.5
	C69.1,84.7,68,83.5,66.6,83.5z"/>
<path style="&st3;" d="M109.3,73.8H71.8c-1.4,0-2.6,1.2-2.6,2.6v4.5c0,1.4,1.2,2.6,2.6,2.6h37.5c1.4,0,2.6-1.2,2.6-2.6v-4.5
	C111.9,74.9,110.8,73.8,109.3,73.8z"/>
<path style="&st3;" d="M109.3,93.2H71.8c-1.4,0-2.6,1.2-2.6,2.6v4.5c0,1.4,1.2,2.6,2.6,2.6h37.5c1.4,0,2.6-1.2,2.6-2.6v-4.5
	C111.9,94.4,110.8,93.2,109.3,93.2z"/>
<path style="&st3;" d="M109.3,83.5H71.8c-1.4,0-2.6,1.2-2.6,2.6v4.5c0,1.4,1.2,2.6,2.6,2.6h37.5c1.4,0,2.6-1.2,2.6-2.6v-4.5
	C111.9,84.7,110.8,83.5,109.3,83.5z"/>
<path style="&st3;" d="M109.3,102.9H71.8c-1.4,0-2.6,1.2-2.6,2.6v4.5c0,1.4,1.2,2.6,2.6,2.6h37.5c1.4,0,2.6-1.2,2.6-2.6v-4.5
	C111.9,104.1,110.8,102.9,109.3,102.9z"/>
<path style="&st4;" d="M60.5,101.1c0.3,0,0.5-0.2,0.5-0.5v-5c0-0.3-0.2-0.5-0.5-0.5S60,95.3,60,95.6v5
	C60,100.9,60.2,101.1,60.5,101.1z"/>
<path style="&st4;" d="M52.2,101.1c0.3,0,0.5-0.2,0.5-0.5v-5c0-0.3-0.2-0.5-0.5-0.5s-0.5,0.2-0.5,0.5v5
	C51.7,100.9,51.9,101.1,52.2,101.1z"/>
<path style="&st4;" d="M43.3,101.1c0.3,0,0.5-0.2,0.5-0.5v-5c0-0.3-0.2-0.5-0.5-0.5s-0.5,0.2-0.5,0.5v5
	C42.8,100.9,43,101.1,43.3,101.1z"/>
<path style="&st4;" d="M34.5,101.1c0.3,0,0.5-0.2,0.5-0.5v-5c0-0.3-0.2-0.5-0.5-0.5S34,95.3,34,95.6v5
	C34,100.9,34.2,101.1,34.5,101.1z"/>
<path style="&st4;" d="M60.5,104.7c-0.3,0-0.5,0.2-0.5,0.5v5c0,0.3,0.2,0.5,0.5,0.5s0.5-0.2,0.5-0.5v-5
	C61,104.9,60.8,104.7,60.5,104.7z"/>
<path style="&st4;" d="M52.2,104.7c-0.3,0-0.5,0.2-0.5,0.5v5c0,0.3,0.2,0.5,0.5,0.5s0.5-0.2,0.5-0.5v-5
	C52.7,104.9,52.5,104.7,52.2,104.7z"/>
<path style="&st4;" d="M43.3,104.7c-0.3,0-0.5,0.2-0.5,0.5v5c0,0.3,0.2,0.5,0.5,0.5s0.5-0.2,0.5-0.5v-5
	C43.8,104.9,43.6,104.7,43.3,104.7z"/>
<path style="&st4;" d="M34.5,104.7c-0.3,0-0.5,0.2-0.5,0.5v5c0,0.3,0.2,0.5,0.5,0.5s0.5-0.2,0.5-0.5v-5
	C35,104.9,34.8,104.7,34.5,104.7z"/>
<path style="&st4;" d="M60.5,91.4c0.3,0,0.5-0.2,0.5-0.5v-5c0-0.3-0.2-0.5-0.5-0.5S60,85.6,60,85.9v5C60,91.2,60.2,91.4,60.5,91.4z"
	/>
<path style="&st4;" d="M52.2,91.4c0.3,0,0.5-0.2,0.5-0.5v-5c0-0.3-0.2-0.5-0.5-0.5s-0.5,0.2-0.5,0.5v5
	C51.7,91.2,51.9,91.4,52.2,91.4z"/>
<path style="&st4;" d="M43.3,91.4c0.3,0,0.5-0.2,0.5-0.5v-5c0-0.3-0.2-0.5-0.5-0.5s-0.5,0.2-0.5,0.5v5C42.8,91.2,43,91.4,43.3,91.4z
	"/>
<path style="&st4;" d="M34.5,91.4c0.3,0,0.5-0.2,0.5-0.5v-5c0-0.3-0.2-0.5-0.5-0.5S34,85.6,34,85.9v5C34,91.2,34.2,91.4,34.5,91.4z"
	/>
<path style="&st4;" d="M109.3,73.3H71.5c-1.2,0-2.2,0.7-2.7,1.7c-0.2-0.2-0.3-0.4-0.6-0.6c-0.2-0.2-0.5-0.1-0.7,0.1
	s-0.1,0.5,0.1,0.7c0.4,0.3,0.7,0.8,0.8,1.4v4.1c-0.1,0.5-0.4,1-0.8,1.4c-0.2,0.2-0.3,0.5-0.1,0.7c0.2,0.2,0.5,0.3,0.7,0.1
	c0.2-0.2,0.4-0.4,0.6-0.6c0.3,0.5,0.6,0.9,1.1,1.2c-0.4,0.3-0.7,0.6-1,1c-0.6-0.9-1.5-1.5-2.6-1.5H29.1c-1.7,0-3.1,1.4-3.1,3.1v4.5
	c0,1.1,0.6,2,1.4,2.6c-0.8,0.6-1.4,1.5-1.4,2.6v4.5c0,1.1,0.6,2,1.4,2.6c-0.8,0.6-1.4,1.5-1.4,2.6v4.5c0,1.7,1.4,3.1,3.1,3.1h37.5
	c1.1,0,2-0.6,2.6-1.4c0.6,0.9,1.5,1.4,2.6,1.4h37.5c1.7,0,3.1-1.4,3.1-3.1v-4.5c0-1.1-0.6-2.1-1.4-2.6c0.8-0.6,1.4-1.5,1.4-2.6v-4.5
	c0-1.1-0.6-2.1-1.4-2.6c0.8-0.6,1.4-1.5,1.4-2.6v-4.5c0-1.1-0.6-2.1-1.4-2.6c0.8-0.6,1.4-1.5,1.4-2.6v-4.5
	C112.4,74.6,111.1,73.3,109.3,73.3z M69.2,92.3c0.2,0.4,0.6,0.7,0.9,0.9c-0.4,0.3-0.7,0.6-1,1c-0.2-0.4-0.6-0.7-0.9-1
	C68.6,93,69,92.6,69.2,92.3z M27,90.6v-4.5c0-1.1,1-2.1,2.1-2.1h37.1c1.1,0,2,0.9,2.1,2.1v4.5c0,1.1-1,2.1-2.1,2.1H29.1
	C28,92.7,27,91.7,27,90.6z M27,100.3v-4.5c0-1.1,1-2.1,2.1-2.1h37.5c1.1,0,2,0.9,2.1,2.1v4.5c0,1.1-1,2.1-2.1,2.1H29.1
	C28,102.4,27,101.4,27,100.3z M68.7,110c0,1.1-1,2.1-2.1,2.1H29.1c-1.1,0-2.1-1-2.1-2.1v-4.5c0-1.1,1-2.1,2.1-2.1h37.5
	c1.1,0,2,0.9,2.1,2.1V110z M69.2,103.9c-0.2-0.4-0.6-0.7-0.9-1c0.4-0.2,0.7-0.6,1-1c0.2,0.4,0.6,0.7,0.9,0.9
	C69.8,103.2,69.4,103.5,69.2,103.9z M111.4,105.5v4.5c0,1.1-1,2.1-2.1,2.1H71.8c-1.1,0-2.1-1-2.1-2.1v-4.5c0-1.1,1-2.1,2.1-2.1h37.5
	C110.5,103.4,111.4,104.3,111.4,105.5z M111.4,95.8v4.5c0,1.1-1,2.1-2.1,2.1H71.8c-1.1,0-2.1-1-2.1-2.1v-4.5c0-1.1,1-2.1,2.1-2.1
	h37.5C110.5,93.7,111.4,94.6,111.4,95.8z M111.4,86.1v4.5c0,1.1-1,2.1-2.1,2.1H71.8c-1.1,0-2.1-1-2.1-2.1v-4.5c0-1.1,1-2.1,2.1-2.1
	h37.5C110.5,84,111.4,84.9,111.4,86.1z M111.4,80.9c0,1.1-1,2.1-2.1,2.1H71.8c-1.1,0-2.1-1-2.1-2.1v-4.5c0-1.1,1-2.1,2.1-2.1h37.5
	c1.2,0,2.1,0.9,2.1,2.1V80.9z"/>
<path style="&st4;" d="M103.3,75.6c-0.3,0-0.5,0.2-0.5,0.5v5c0,0.3,0.2,0.5,0.5,0.5s0.5-0.2,0.5-0.5v-5
	C103.8,75.8,103.6,75.6,103.3,75.6z"/>
<path style="&st4;" d="M95,75.6c-0.3,0-0.5,0.2-0.5,0.5v5c0,0.3,0.2,0.5,0.5,0.5s0.5-0.2,0.5-0.5v-5C95.5,75.8,95.3,75.6,95,75.6z"
	/>
<path style="&st4;" d="M86.1,75.6c-0.3,0-0.5,0.2-0.5,0.5v5c0,0.3,0.2,0.5,0.5,0.5s0.5-0.2,0.5-0.5v-5
	C86.6,75.8,86.4,75.6,86.1,75.6z"/>
<path style="&st4;" d="M77.3,75.6c-0.3,0-0.5,0.2-0.5,0.5v5c0,0.3,0.2,0.5,0.5,0.5s0.5-0.2,0.5-0.5v-5
	C77.8,75.8,77.6,75.6,77.3,75.6z"/>
<path style="&st4;" d="M103.3,95.1c-0.3,0-0.5,0.2-0.5,0.5v5c0,0.3,0.2,0.5,0.5,0.5s0.5-0.2,0.5-0.5v-5
	C103.8,95.3,103.6,95.1,103.3,95.1z"/>
<path style="&st4;" d="M95,95.1c-0.3,0-0.5,0.2-0.5,0.5v5c0,0.3,0.2,0.5,0.5,0.5s0.5-0.2,0.5-0.5v-5C95.5,95.3,95.3,95.1,95,95.1z"
	/>
<path style="&st4;" d="M86.1,95.1c-0.3,0-0.5,0.2-0.5,0.5v5c0,0.3,0.2,0.5,0.5,0.5s0.5-0.2,0.5-0.5v-5
	C86.6,95.3,86.4,95.1,86.1,95.1z"/>
<path style="&st4;" d="M77.3,95.1c-0.3,0-0.5,0.2-0.5,0.5v5c0,0.3,0.2,0.5,0.5,0.5s0.5-0.2,0.5-0.5v-5
	C77.8,95.3,77.6,95.1,77.3,95.1z"/>
<path style="&st4;" d="M103.3,85.4c-0.3,0-0.5,0.2-0.5,0.5v5c0,0.3,0.2,0.5,0.5,0.5s0.5-0.2,0.5-0.5v-5
	C103.8,85.6,103.6,85.4,103.3,85.4z"/>
<path style="&st4;" d="M95,85.4c-0.3,0-0.5,0.2-0.5,0.5v5c0,0.3,0.2,0.5,0.5,0.5s0.5-0.2,0.5-0.5v-5C95.5,85.6,95.3,85.4,95,85.4z"
	/>
<path style="&st4;" d="M86.1,85.4c-0.3,0-0.5,0.2-0.5,0.5v5c0,0.3,0.2,0.5,0.5,0.5s0.5-0.2,0.5-0.5v-5
	C86.6,85.6,86.4,85.4,86.1,85.4z"/>
<path style="&st4;" d="M77.3,85.4c-0.3,0-0.5,0.2-0.5,0.5v5c0,0.3,0.2,0.5,0.5,0.5s0.5-0.2,0.5-0.5v-5
	C77.8,85.6,77.6,85.4,77.3,85.4z"/>
<path style="&st4;" d="M103.3,104.7c-0.3,0-0.5,0.2-0.5,0.5v5c0,0.3,0.2,0.5,0.5,0.5s0.5-0.2,0.5-0.5v-5
	C103.8,104.9,103.6,104.7,103.3,104.7z"/>
<path style="&st4;" d="M95,104.7c-0.3,0-0.5,0.2-0.5,0.5v5c0,0.3,0.2,0.5,0.5,0.5s0.5-0.2,0.5-0.5v-5
	C95.5,104.9,95.3,104.7,95,104.7z"/>
<path style="&st4;" d="M86.1,104.7c-0.3,0-0.5,0.2-0.5,0.5v5c0,0.3,0.2,0.5,0.5,0.5s0.5-0.2,0.5-0.5v-5
	C86.6,104.9,86.4,104.7,86.1,104.7z"/>
<path style="&st4;" d="M77.3,104.7c-0.3,0-0.5,0.2-0.5,0.5v5c0,0.3,0.2,0.5,0.5,0.5s0.5-0.2,0.5-0.5v-5
	C77.8,104.9,77.6,104.7,77.3,104.7z"/>
<path style="&st4;" d="M69.2,50.3c0.3,0,0.5-0.2,0.5-0.5v-0.5c0-0.3-0.2-0.5-0.5-0.5s-0.5,0.2-0.5,0.5v0.5
	C68.7,50.1,68.9,50.3,69.2,50.3z"/>
<path style="&st4;" d="M111.9,48.8c-0.3,0-0.5,0.2-0.5,0.5v0.5c0,0.3,0.2,0.5,0.5,0.5s0.5-0.2,0.5-0.5v-0.5
	C112.4,49,112.2,48.8,111.9,48.8z"/>
<path style="&st4;" d="M69.1,47.9C69.2,47.9,69.2,47.9,69.1,47.9c0.3,0,0.5-0.2,0.6-0.4c0.1-0.5,0.4-1,0.8-1.4
	c0.2-0.2,0.3-0.5,0.1-0.7c-0.2-0.2-0.5-0.3-0.7-0.1c-0.6,0.5-1.1,1.2-1.2,2C68.7,47.6,68.9,47.8,69.1,47.9z"/>
<path style="&st4;" d="M77.2,45.2h2c0.3,0,0.5-0.2,0.5-0.5s-0.2-0.5-0.5-0.5h-2c-0.3,0-0.5,0.2-0.5,0.5S76.9,45.2,77.2,45.2z"/>
<path style="&st4;" d="M82.1,45.2h2c0.3,0,0.5-0.2,0.5-0.5s-0.2-0.5-0.5-0.5h-2c-0.3,0-0.5,0.2-0.5,0.5S81.8,45.2,82.1,45.2z"/>
<path style="&st4;" d="M87.1,45.2h2c0.3,0,0.5-0.2,0.5-0.5s-0.2-0.5-0.5-0.5h-2c-0.3,0-0.5,0.2-0.5,0.5S86.8,45.2,87.1,45.2z"/>
<path style="&st4;" d="M92,45.2h2c0.3,0,0.5-0.2,0.5-0.5s-0.2-0.5-0.5-0.5h-2c-0.3,0-0.5,0.2-0.5,0.5S91.8,45.2,92,45.2z"/>
<path style="&st4;" d="M97,45.2h2c0.3,0,0.5-0.2,0.5-0.5s-0.2-0.5-0.5-0.5h-2c-0.3,0-0.5,0.2-0.5,0.5S96.7,45.2,97,45.2z"/>
<path style="&st4;" d="M101.9,45.2h2c0.3,0,0.5-0.2,0.5-0.5s-0.2-0.5-0.5-0.5h-2c-0.3,0-0.5,0.2-0.5,0.5S101.7,45.2,101.9,45.2z"/>
<path style="&st4;" d="M72.2,45.2h2c0.3,0,0.5-0.2,0.5-0.5s-0.2-0.5-0.5-0.5h-2c-0.3,0-0.5,0.2-0.5,0.5S71.9,45.2,72.2,45.2z"/>
<path style="&st4;" d="M111.4,47.5c0,0.2,0.3,0.4,0.5,0.4c0,0,0,0,0.1,0c0.3,0,0.5-0.3,0.4-0.6c-0.1-0.8-0.5-1.5-1.2-2
	c-0.2-0.2-0.5-0.1-0.7,0.1s-0.1,0.5,0.1,0.7C111,46.4,111.3,46.9,111.4,47.5z"/>
<path style="&st4;" d="M106.9,45.2h2c0.3,0,0.5-0.2,0.5-0.5s-0.2-0.5-0.5-0.5h-2c-0.3,0-0.5,0.2-0.5,0.5S106.6,45.2,106.9,45.2z"/>
<path style="&st4;" d="M111.2,53.8c0.6-0.5,1.1-1.2,1.2-2c0-0.3-0.1-0.5-0.4-0.6c0,0,0,0-0.1,0c-0.2,0-0.5,0.2-0.5,0.4
	c-0.1,0.5-0.4,1-0.8,1.4c-0.2,0.2-0.3,0.5-0.1,0.7S111,54,111.2,53.8z"/>
<path style="&st4;" d="M70.5,53c-0.4-0.3-0.7-0.8-0.8-1.4c0-0.2-0.3-0.4-0.5-0.4c0,0,0,0-0.1,0c-0.3,0-0.5,0.3-0.4,0.6
	c0.1,0.8,0.5,1.5,1.2,2c0.2,0.2,0.5,0.1,0.7-0.1C70.8,53.5,70.7,53.2,70.5,53z"/>
<path style="&st4;" d="M69.2,60c0.3,0,0.5-0.2,0.5-0.5V59c0-0.3-0.2-0.5-0.5-0.5s-0.5,0.2-0.5,0.5v0.5C68.7,59.8,68.9,60,69.2,60z"
	/>
<path style="&st4;" d="M111.9,58.5c-0.3,0-0.5,0.2-0.5,0.5v0.5c0,0.3,0.2,0.5,0.5,0.5s0.5-0.2,0.5-0.5V59
	C112.4,58.7,112.2,58.5,111.9,58.5z"/>
<path style="&st4;" d="M70.6,55.1c-0.2-0.2-0.5-0.3-0.7-0.1c-0.6,0.5-1.1,1.2-1.2,2c0,0.3,0.1,0.5,0.4,0.6c0,0,0,0,0.1,0
	c0.2,0,0.5-0.2,0.5-0.4c0.1-0.5,0.4-1,0.8-1.4C70.7,55.6,70.8,55.3,70.6,55.1z"/>
<path style="&st4;" d="M77.2,54.9h2c0.3,0,0.5-0.2,0.5-0.5s-0.2-0.5-0.5-0.5h-2c-0.3,0-0.5,0.2-0.5,0.5S76.9,54.9,77.2,54.9z"/>
<path style="&st4;" d="M82.1,54.9h2c0.3,0,0.5-0.2,0.5-0.5s-0.2-0.5-0.5-0.5h-2c-0.3,0-0.5,0.2-0.5,0.5S81.8,54.9,82.1,54.9z"/>
<path style="&st4;" d="M87.1,54.9h2c0.3,0,0.5-0.2,0.5-0.5s-0.2-0.5-0.5-0.5h-2c-0.3,0-0.5,0.2-0.5,0.5S86.8,54.9,87.1,54.9z"/>
<path style="&st4;" d="M92,54.9h2c0.3,0,0.5-0.2,0.5-0.5s-0.2-0.5-0.5-0.5h-2c-0.3,0-0.5,0.2-0.5,0.5S91.8,54.9,92,54.9z"/>
<path style="&st4;" d="M97,54.9h2c0.3,0,0.5-0.2,0.5-0.5s-0.2-0.5-0.5-0.5h-2c-0.3,0-0.5,0.2-0.5,0.5S96.7,54.9,97,54.9z"/>
<path style="&st4;" d="M101.9,54.9h2c0.3,0,0.5-0.2,0.5-0.5s-0.2-0.5-0.5-0.5h-2c-0.3,0-0.5,0.2-0.5,0.5S101.7,54.9,101.9,54.9z"/>
<path style="&st4;" d="M72.2,54.9h2c0.3,0,0.5-0.2,0.5-0.5s-0.2-0.5-0.5-0.5h-2c-0.3,0-0.5,0.2-0.5,0.5S71.9,54.9,72.2,54.9z"/>
<path style="&st4;" d="M111.4,57.2c0,0.2,0.3,0.4,0.5,0.4c0,0,0,0,0.1,0c0.3,0,0.5-0.3,0.4-0.6c-0.1-0.8-0.5-1.5-1.2-2
	c-0.2-0.2-0.5-0.1-0.7,0.1s-0.1,0.5,0.1,0.7C111,56.1,111.3,56.6,111.4,57.2z"/>
<path style="&st4;" d="M106.9,54.9h2c0.3,0,0.5-0.2,0.5-0.5s-0.2-0.5-0.5-0.5h-2c-0.3,0-0.5,0.2-0.5,0.5S106.6,54.9,106.9,54.9z"/>
<path style="&st4;" d="M111.2,63.5c0.6-0.5,1.1-1.2,1.2-2c0-0.3-0.1-0.5-0.4-0.6c0,0,0,0-0.1,0c-0.2,0-0.5,0.2-0.5,0.4
	c-0.1,0.5-0.4,1-0.8,1.4c-0.2,0.2-0.3,0.5-0.1,0.7S111,63.7,111.2,63.5z"/>
<path style="&st4;" d="M101.9,64.6h2c0.3,0,0.5-0.2,0.5-0.5c0-0.3-0.2-0.5-0.5-0.5h-2c-0.3,0-0.5,0.2-0.5,0.5
	C101.4,64.4,101.7,64.6,101.9,64.6z"/>
<path style="&st4;" d="M97,64.6h2c0.3,0,0.5-0.2,0.5-0.5c0-0.3-0.2-0.5-0.5-0.5h-2c-0.3,0-0.5,0.2-0.5,0.5
	C96.5,64.4,96.7,64.6,97,64.6z"/>
<path style="&st4;" d="M92,64.6h2c0.3,0,0.5-0.2,0.5-0.5c0-0.3-0.2-0.5-0.5-0.5h-2c-0.3,0-0.5,0.2-0.5,0.5
	C91.5,64.4,91.8,64.6,92,64.6z"/>
<path style="&st4;" d="M87.1,64.6h2c0.3,0,0.5-0.2,0.5-0.5c0-0.3-0.2-0.5-0.5-0.5h-2c-0.3,0-0.5,0.2-0.5,0.5
	C86.6,64.4,86.8,64.6,87.1,64.6z"/>
<path style="&st4;" d="M82.1,64.6h2c0.3,0,0.5-0.2,0.5-0.5c0-0.3-0.2-0.5-0.5-0.5h-2c-0.3,0-0.5,0.2-0.5,0.5
	C81.6,64.4,81.8,64.6,82.1,64.6z"/>
<path style="&st4;" d="M77.2,64.6h2c0.3,0,0.5-0.2,0.5-0.5c0-0.3-0.2-0.5-0.5-0.5h-2c-0.3,0-0.5,0.2-0.5,0.5
	C76.7,64.4,76.9,64.6,77.2,64.6z"/>
<path style="&st4;" d="M106.9,64.6h2c0.3,0,0.5-0.2,0.5-0.5c0-0.3-0.2-0.5-0.5-0.5h-2c-0.3,0-0.5,0.2-0.5,0.5
	C106.4,64.4,106.6,64.6,106.9,64.6z"/>
<path style="&st4;" d="M69.7,61.3c0-0.2-0.3-0.4-0.5-0.4c0,0,0,0-0.1,0c-0.3,0-0.5,0.3-0.4,0.6c0.1,0.8,0.5,1.5,1.2,2
	c0.2,0.2,0.5,0.1,0.7-0.1c0.2-0.2,0.1-0.5-0.1-0.7C70.1,62.4,69.8,61.9,69.7,61.3z"/>
<path style="&st4;" d="M72.2,64.6h2c0.3,0,0.5-0.2,0.5-0.5c0-0.3-0.2-0.5-0.5-0.5h-2c-0.3,0-0.5,0.2-0.5,0.5
	C71.7,64.4,71.9,64.6,72.2,64.6z"/>
<path style="&st4;" d="M69.2,68.2c-0.3,0-0.5,0.2-0.5,0.5v0.5c0,0.3,0.2,0.5,0.5,0.5s0.5-0.2,0.5-0.5v-0.5
	C69.7,68.4,69.5,68.2,69.2,68.2z"/>
<path style="&st4;" d="M111.9,68.2c-0.3,0-0.5,0.2-0.5,0.5v0.5c0,0.3,0.2,0.5,0.5,0.5s0.5-0.2,0.5-0.5v-0.5
	C112.4,68.4,112.2,68.2,111.9,68.2z"/>
<path style="&st4;" d="M111.4,66.9c0,0.2,0.3,0.4,0.5,0.4c0,0,0,0,0.1,0c0.3,0,0.5-0.3,0.4-0.6c-0.1-0.8-0.5-1.5-1.2-2
	c-0.2-0.2-0.5-0.1-0.7,0.1s-0.1,0.5,0.1,0.7C111,65.8,111.3,66.3,111.4,66.9z"/>
<path style="&st4;" d="M111.2,73.2c0.6-0.5,1.1-1.2,1.2-2c0-0.3-0.1-0.5-0.4-0.6c0,0,0,0-0.1,0c-0.2,0-0.5,0.2-0.5,0.4
	c-0.1,0.5-0.4,1-0.8,1.4c-0.2,0.2-0.3,0.5-0.1,0.7C110.7,73.3,111,73.4,111.2,73.2z"/>
<path style="&st4;" d="M26.5,69.7c0.3,0,0.5-0.2,0.5-0.5v-0.5c0-0.3-0.2-0.5-0.5-0.5S26,68.4,26,68.7v0.5
	C26,69.5,26.2,69.7,26.5,69.7z"/>
<path style="&st4;" d="M26.4,67.3C26.5,67.3,26.5,67.3,26.4,67.3c0.3,0,0.5-0.2,0.6-0.4c0.1-0.5,0.4-1,0.8-1.4
	c0.2-0.2,0.3-0.5,0.1-0.7c-0.2-0.2-0.5-0.3-0.7-0.1c-0.6,0.5-1.1,1.2-1.2,2C26,67,26.2,67.2,26.4,67.3z"/>
<path style="&st4;" d="M34.5,64.6h2c0.3,0,0.5-0.2,0.5-0.5c0-0.3-0.2-0.5-0.5-0.5h-2c-0.3,0-0.5,0.2-0.5,0.5
	C34,64.4,34.2,64.6,34.5,64.6z"/>
<path style="&st4;" d="M39.4,64.6h2c0.3,0,0.5-0.2,0.5-0.5c0-0.3-0.2-0.5-0.5-0.5h-2c-0.3,0-0.5,0.2-0.5,0.5
	C38.9,64.4,39.1,64.6,39.4,64.6z"/>
<path style="&st4;" d="M44.4,64.6h2c0.3,0,0.5-0.2,0.5-0.5c0-0.3-0.2-0.5-0.5-0.5h-2c-0.3,0-0.5,0.2-0.5,0.5
	C43.9,64.4,44.1,64.6,44.4,64.6z"/>
<path style="&st4;" d="M49.3,64.6h2c0.3,0,0.5-0.2,0.5-0.5c0-0.3-0.2-0.5-0.5-0.5h-2c-0.3,0-0.5,0.2-0.5,0.5
	C48.8,64.4,49.1,64.6,49.3,64.6z"/>
<path style="&st4;" d="M54.3,64.6h2c0.3,0,0.5-0.2,0.5-0.5c0-0.3-0.2-0.5-0.5-0.5h-2c-0.3,0-0.5,0.2-0.5,0.5
	C53.8,64.4,54,64.6,54.3,64.6z"/>
<path style="&st4;" d="M59.2,64.6h2c0.3,0,0.5-0.2,0.5-0.5c0-0.3-0.2-0.5-0.5-0.5h-2c-0.3,0-0.5,0.2-0.5,0.5
	C58.7,64.4,59,64.6,59.2,64.6z"/>
<path style="&st4;" d="M29.5,64.6h2c0.3,0,0.5-0.2,0.5-0.5c0-0.3-0.2-0.5-0.5-0.5h-2c-0.3,0-0.5,0.2-0.5,0.5
	C29,64.4,29.2,64.6,29.5,64.6z"/>
<path style="&st4;" d="M68.7,66.9c0,0.1,0.1,0.2,0.1,0.2l0.1,0.1H69c0,0,0,0,0.1,0c0,0,0,0,0.1,0h0.1l0.1-0.1c0,0,0.1-0.1,0.1-0.2
	c0.1-0.5,0.4-1,0.8-1.4c0.2-0.2,0.3-0.5,0.1-0.7c-0.2-0.2-0.5-0.3-0.7-0.1c-0.3,0.2-0.5,0.5-0.7,0.8c-0.2-0.3-0.4-0.5-0.7-0.8
	c-0.2-0.2-0.5-0.1-0.7,0.1s-0.1,0.5,0.1,0.7C68.3,65.8,68.6,66.3,68.7,66.9z"/>
<path style="&st4;" d="M64.2,64.6h2c0.3,0,0.5-0.2,0.5-0.5c0-0.3-0.2-0.5-0.5-0.5h-2c-0.3,0-0.5,0.2-0.5,0.5
	C63.7,64.4,63.9,64.6,64.2,64.6z"/>
<path style="&st4;" d="M68.5,73.2c0.3-0.2,0.5-0.5,0.7-0.8c0.2,0.3,0.4,0.5,0.7,0.8c0.2,0.2,0.5,0.1,0.7-0.1s0.1-0.5-0.1-0.7
	c-0.4-0.3-0.7-0.8-0.8-1.4c0-0.1,0-0.1-0.1-0.2l-0.1-0.1h-0.1c0,0,0,0-0.1,0c0,0,0,0-0.1,0h-0.1L69,70.8c0,0-0.1,0.1-0.1,0.2
	c-0.1,0.5-0.4,1-0.8,1.4c-0.2,0.2-0.3,0.5-0.1,0.7C68,73.3,68.3,73.4,68.5,73.2z"/>
<path style="&st4;" d="M27.8,72.4c-0.4-0.3-0.7-0.8-0.8-1.4c0-0.2-0.3-0.4-0.5-0.4c0,0,0,0-0.1,0c-0.3,0-0.5,0.3-0.4,0.6
	c0.1,0.8,0.5,1.5,1.2,2c0.2,0.2,0.5,0.1,0.7-0.1C28.1,72.9,28,72.6,27.8,72.4z"/>
<path style="&st4;" d="M26.5,79.4c0.3,0,0.5-0.2,0.5-0.5v-0.5c0-0.3-0.2-0.5-0.5-0.5S26,78.1,26,78.4v0.5
	C26,79.2,26.2,79.4,26.5,79.4z"/>
<path style="&st4;" d="M27.2,74.4c-0.6,0.5-1.1,1.2-1.2,2c0,0.3,0.1,0.5,0.4,0.6c0,0,0,0,0.1,0c0.2,0,0.5-0.2,0.5-0.4
	c0.1-0.5,0.4-1,0.8-1.4c0.2-0.2,0.3-0.5,0.1-0.7S27.4,74.2,27.2,74.4z"/>
<path style="&st4;" d="M34.5,74.3h2c0.3,0,0.5-0.2,0.5-0.5s-0.2-0.5-0.5-0.5h-2c-0.3,0-0.5,0.2-0.5,0.5C34,74.1,34.2,74.3,34.5,74.3
	z"/>
<path style="&st4;" d="M39.4,74.3h2c0.3,0,0.5-0.2,0.5-0.5s-0.2-0.5-0.5-0.5h-2c-0.3,0-0.5,0.2-0.5,0.5
	C38.9,74.1,39.1,74.3,39.4,74.3z"/>
<path style="&st4;" d="M44.4,74.3h2c0.3,0,0.5-0.2,0.5-0.5s-0.2-0.5-0.5-0.5h-2c-0.3,0-0.5,0.2-0.5,0.5
	C43.9,74.1,44.1,74.3,44.4,74.3z"/>
<path style="&st4;" d="M49.3,74.3h2c0.3,0,0.5-0.2,0.5-0.5s-0.2-0.5-0.5-0.5h-2c-0.3,0-0.5,0.2-0.5,0.5
	C48.8,74.1,49.1,74.3,49.3,74.3z"/>
<path style="&st4;" d="M54.3,74.3h2c0.3,0,0.5-0.2,0.5-0.5s-0.2-0.5-0.5-0.5h-2c-0.3,0-0.5,0.2-0.5,0.5C53.8,74.1,54,74.3,54.3,74.3
	z"/>
<path style="&st4;" d="M59.2,74.3h2c0.3,0,0.5-0.2,0.5-0.5s-0.2-0.5-0.5-0.5h-2c-0.3,0-0.5,0.2-0.5,0.5C58.7,74.1,59,74.3,59.2,74.3
	z"/>
<path style="&st4;" d="M29.5,74.3h2c0.3,0,0.5-0.2,0.5-0.5s-0.2-0.5-0.5-0.5h-2c-0.3,0-0.5,0.2-0.5,0.5C29,74.1,29.2,74.3,29.5,74.3
	z"/>
<path style="&st4;" d="M64.2,74.3h2c0.3,0,0.5-0.2,0.5-0.5s-0.2-0.5-0.5-0.5h-2c-0.3,0-0.5,0.2-0.5,0.5
	C63.7,74.1,63.9,74.3,64.2,74.3z"/>
<path style="&st4;" d="M27.2,82.9c0.2,0.2,0.5,0.1,0.7-0.1s0.1-0.5-0.1-0.7c-0.4-0.3-0.7-0.8-0.8-1.4c0-0.2-0.3-0.4-0.5-0.4
	c0,0,0,0-0.1,0c-0.3,0-0.5,0.3-0.4,0.6C26.1,81.7,26.5,82.4,27.2,82.9z"/>
</svg>
