<svg width="100" height="100" viewBox="0 0 100 100" fill="none" xmlns="http://www.w3.org/2000/svg">
<rect width="100" height="100" rx="16" fill="#303247"/>
<path d="M75.2048 74.2754C81.2572 67.9842 85 59.4366 85 50.013C85 45.049 83.9648 40.3505 82.1066 36.0767L64.9318 34.1123C63.9231 34.0062 63.3922 32.8382 64.0027 32.0153C65.675 29.7589 68.6216 25.7771 71.3027 22.2466C68.6216 20.2026 65.6485 18.5037 62.4631 17.2826C60.4191 20.2026 58.2689 23.2819 58.2689 23.4677C58.2689 23.8128 51.6591 29.4935 51.314 30.0775C51.1548 30.3429 51.6857 31.3782 52.3228 32.4665C52.9067 33.4753 52.0042 34.6963 50.8893 34.4309L42.7133 32.5462C42.1559 32.4134 41.7312 31.9356 41.6781 31.3516L41.333 27.1044C41.3064 26.6797 41.4657 26.2549 41.8108 25.9895L45.2882 23.096C45.7661 22.6979 45.8988 22.0342 45.6333 21.4768L42.7133 15.7695C36.1301 17.1499 30.2105 20.415 25.5651 24.9542L29.4938 33.6611C29.6265 33.9531 29.8389 34.1654 30.1309 34.3247L40.749 39.3949C41.1737 39.6072 41.4657 40.0054 41.4923 40.4832L42.1028 47.8894C42.1293 48.1017 42.0763 48.3141 41.9966 48.4999L37.6432 59.0915C37.4574 59.5428 37.537 60.0737 37.8555 60.4453L46.3501 70.8245C46.6155 71.1431 46.7217 71.5943 46.6155 71.9925L46.1642 73.7445C45.9784 74.4347 45.2882 74.8594 44.5981 74.7001L38.121 73.2667C37.1654 73.0543 36.3159 73.9038 36.5283 74.8594L37.1388 77.4078C37.2981 78.0448 36.953 78.7085 36.3425 78.9474L34.8028 79.5579C34.6436 79.611 34.5108 79.7172 34.3781 79.8234L33.3163 80.8056C38.2803 83.4866 43.9344 85.0263 49.9868 85.0263C52.3758 85.0263 54.7118 84.7874 56.9682 84.3361L61.1093 76.0009C61.3216 75.5761 61.7463 75.3107 62.1976 75.2576L75.2048 74.2754ZM54.5526 45.341L62.118 41.1734C62.3834 41.0141 62.702 40.9876 62.994 41.0407L70.3736 42.3414C70.9045 42.4476 71.3292 42.8458 71.4354 43.3767C72.099 46.4559 74.3023 56.7555 74.3023 57.2599C74.3023 57.8439 69.2321 67.1613 68.6481 68.2231C68.1438 69.0991 64.6929 68.2762 63.578 67.9576C63.3391 67.9045 63.1267 67.7718 62.9674 67.6125L59.0122 63.5511C58.7467 63.2856 58.614 62.9406 58.6405 62.5689L58.9591 55.5344C58.9591 55.269 58.906 55.0035 58.7467 54.7646L54.0482 47.2257C53.6766 46.5621 53.8889 45.7126 54.5526 45.341Z" fill="#3D7AF5"/>
<path d="M37.1388 77.4077L36.5283 74.8593C36.2893 73.9037 37.1388 73.0542 38.121 73.2666L44.598 74.7C45.2882 74.8593 46.0049 74.4346 46.1642 73.7444L46.6155 71.9924C46.7217 71.5942 46.6155 71.143 46.35 70.8244L37.8555 60.4452C37.537 60.0736 37.4573 59.5427 37.6432 59.0914L41.9966 48.4998C42.0762 48.314 42.1028 48.1016 42.1028 47.8893L41.4922 40.4831C41.4657 40.0053 41.1737 39.6071 40.749 39.3948L30.1308 34.3246C29.8388 34.1919 29.6265 33.953 29.4937 33.661L25.565 24.9541C19.0349 31.2984 15 40.1911 15 50.0129C15 63.3121 22.4061 74.8858 33.3428 80.8055L34.4046 79.8233C34.5374 79.7171 34.6701 79.6109 34.8293 79.5578L36.369 78.9473C36.953 78.7084 37.2981 78.0447 37.1388 77.4077Z" fill="#42CEC6"/>
<path d="M41.3595 27.132L41.7046 31.3793C41.7577 31.9633 42.1559 32.4411 42.7399 32.5738L50.9158 34.4585C52.0573 34.724 52.9598 33.5029 52.3493 32.4942C51.7122 31.4324 51.1813 30.3705 51.3406 30.1051C51.6857 29.5211 58.2954 23.8404 58.2954 23.4953C58.2954 23.3095 60.4456 20.2302 62.4896 17.3102C58.614 15.8237 54.4198 15.0273 50.0133 15.0273C47.518 15.0273 45.0759 15.2928 42.7399 15.7972L45.6864 21.5044C45.9784 22.0619 45.8191 22.7255 45.3413 23.1237L41.8639 26.0171C41.4922 26.2826 41.333 26.6807 41.3595 27.132Z" fill="#42CEC6"/>
<path d="M62.9939 67.5863C63.1532 67.7456 63.3656 67.8783 63.6045 67.9314C64.7194 68.2234 68.1968 69.0729 68.6746 68.1969C69.2586 67.1351 74.3288 57.8177 74.3288 57.2337C74.3288 56.7293 72.1255 46.4563 71.4619 43.3505C71.3557 42.8196 70.931 42.4214 70.4001 42.3152L62.9939 41.0145C62.7019 40.9614 62.3834 41.0145 62.1179 41.1472L54.5525 45.3414C53.8889 45.713 53.6765 46.5625 54.0747 47.1995L58.7732 54.7384C58.9059 54.9773 58.9856 55.2428 58.9856 55.5082L58.667 62.5427C58.6405 62.9144 58.7998 63.2595 59.0387 63.5249L62.9939 67.5863Z" fill="#42CEC6"/>
<path d="M75.2048 74.2764L62.2241 75.232C61.7463 75.2585 61.3481 75.5505 61.1358 75.9753L56.9947 84.3105C64.0823 82.877 70.4001 79.2934 75.2048 74.2764Z" fill="#42CEC6"/>
<path d="M82.1066 36.0506C79.7175 30.5823 76.0012 25.8307 71.3292 22.2471C68.6481 25.7776 65.7016 29.7594 64.0292 32.0157C63.4187 32.8387 63.923 34.0066 64.9583 34.1128L82.1066 36.0506Z" fill="#42CEC6"/>
<g filter="url(#filter0_d)">
<path d="M62.7032 48.0073L55.8484 47.7459C55.1513 47.7169 54.7156 48.4721 55.0642 49.053L56.1679 50.941C54.1347 52.0447 52.0434 53.1484 49.894 54.165C38.6824 59.5966 27.4707 63.2273 18.3213 64.4472C17.0433 64.6215 15.8524 64.7377 14.6906 64.7958C15.0973 65.7543 15.5039 66.6837 15.9977 67.5842C16.5786 67.5261 17.1305 67.497 17.7404 67.4099C27.5288 66.3352 39.4376 62.5883 51.2301 56.8663C53.4376 55.7916 55.587 54.6879 57.7073 53.526L58.753 55.3559C59.1015 55.9659 59.9729 55.9368 60.2924 55.3269L63.4874 49.2273C63.7489 48.7044 63.3422 48.0073 62.7032 48.0073Z" fill="white"/>
<path d="M77.5456 35.8091C73.5082 39.7303 68.2509 43.6805 62.2385 47.3984L63.5455 47.4565C64.2426 47.4855 64.6783 48.2407 64.3588 48.8507L63.7488 50.0125C70.2551 45.9461 75.919 41.5602 80.2468 37.2033C81.7572 35.693 83.0643 34.1826 84.168 32.7593C83.6742 31.8299 83.1804 30.9004 82.6286 30C81.3506 31.8008 79.6659 33.7759 77.5456 35.8091Z" fill="white"/>
</g>
<defs>
<filter id="filter0_d" x="14.6906" y="30" width="73.4774" height="41.5842" filterUnits="userSpaceOnUse" color-interpolation-filters="sRGB">
<feFlood flood-opacity="0" result="BackgroundImageFix"/>
<feColorMatrix in="SourceAlpha" type="matrix" values="0 0 0 0 0 0 0 0 0 0 0 0 0 0 0 0 0 0 127 0" result="hardAlpha"/>
<feOffset dx="2" dy="2"/>
<feGaussianBlur stdDeviation="1"/>
<feColorMatrix type="matrix" values="0 0 0 0 0 0 0 0 0 0 0 0 0 0 0 0 0 0 0.35 0"/>
<feBlend mode="normal" in2="BackgroundImageFix" result="effect1_dropShadow"/>
<feBlend mode="normal" in="SourceGraphic" in2="effect1_dropShadow" result="shape"/>
</filter>
</defs>
</svg>
