<svg width="139" height="137" viewBox="0 0 139 137" fill="none" xmlns="http://www.w3.org/2000/svg">
<rect x="0.5" width="138" height="137" rx="16" fill="#F7EDED"/>
<path d="M82 108.73H28C26.34 108.73 25 107.39 25 105.73V101.73C25 100.07 26.34 98.7305 28 98.7305H82C83.66 98.7305 85 100.07 85 101.73V105.73C85 107.38 83.66 108.73 82 108.73Z" fill="#D59853"/>
<path d="M70.44 84.4594L40.31 77.1794C39.24 76.9194 38.58 75.8394 38.84 74.7694L39.31 72.8294C39.57 71.7594 40.65 71.0994 41.72 71.3594L71.85 78.6394C72.92 78.8994 73.58 79.9794 73.32 81.0494L72.85 82.9894C72.59 84.0594 71.51 84.7194 70.44 84.4594Z" fill="#A46A28"/>
<path d="M74.08 67.27L77.84 51.72C78.1 50.65 79.18 49.99 80.25 50.25L82.19 50.72C83.26 50.98 83.92 52.06 83.66 53.13L79.9 68.68C79.64 69.75 78.56 70.41 77.49 70.15L75.55 69.68C74.48 69.42 73.82 68.34 74.08 67.27Z" fill="#333333"/>
<path d="M81.14 40.1696L51 32.8896C49.93 32.6296 49.27 31.5496 49.53 30.4796L50 28.5296C50.26 27.4596 51.34 26.7996 52.41 27.0596L82.54 34.3396C83.61 34.5996 84.27 35.6796 84.01 36.7496L83.54 38.6896C83.29 39.7596 82.21 40.4196 81.14 40.1696Z" fill="#A46A28"/>
<path d="M80.6568 40.0498L51.4938 33.0088L42.1058 71.8928L71.2688 78.9338L80.6568 40.0498Z" fill="#D59853"/>
<path d="M80.61 65.76L82.96 56.04L118.93 64.72C120.54 65.11 121.53 66.73 121.14 68.34L120.2 72.23C119.81 73.84 118.19 74.83 116.58 74.44L80.61 65.76Z" fill="#DFB17C"/>
<path d="M80 98.7305H30V96.7305C30 95.0705 31.34 93.7305 33 93.7305H77C78.66 93.7305 80 95.0705 80 96.7305V98.7305Z" fill="#DFB17C"/>
<path d="M32.73 78.8096L36.67 82.6996" stroke="#ED5E5E" stroke-width="2" stroke-miterlimit="10" stroke-linecap="round"/>
<path d="M28.45 84.4902L33.6 86.5402" stroke="#ED5E5E" stroke-width="2" stroke-miterlimit="10" stroke-linecap="round"/>
</svg>
