<svg width="139" height="138" viewBox="0 0 139 138" fill="none" xmlns="http://www.w3.org/2000/svg">
<rect x="0.5" width="138" height="137" rx="16" fill="#EDF2F7"/>
<path d="M98.0563 89H40.4437C33.1139 89 27.25 83.2579 27.25 76.0803V42.9197C27.25 35.7421 33.1139 30 40.4437 30H98.0563C105.386 30 111.25 35.7421 111.25 42.9197V76.0803C111.25 83.1144 105.24 89 98.0563 89Z" fill="#6495F7"/>
<path d="M60.7703 44.5634C60.6262 44.2817 60.3379 44.1408 60.0496 44.1408H52.1212C51.8329 44.1408 51.5445 44.2817 51.4004 44.5634L41.3097 73.0141C41.1656 73.2958 41.3097 73.4366 41.4539 73.7183C41.598 73.8592 41.7422 74 42.0305 74H48.6615C48.9498 74 49.2381 73.8592 49.3823 73.5775L51.4004 67.5211H60.9145L62.9326 73.5775C63.0768 73.8592 63.3651 74 63.6534 74H70.2844C70.5727 74 70.7169 73.8592 70.861 73.7183C71.0052 73.5775 71.0052 73.2958 71.0052 73.0141L60.7703 44.5634ZM58.8963 61.3239H53.5627L56.3016 53.1549L58.8963 61.3239Z" fill="white"/>
<path d="M83.2581 44H72.8791C72.4467 44 72.1584 44.2817 72.1584 44.7042V73.1549C72.1584 73.5775 72.4467 73.8592 72.8791 73.8592H83.2581C92.4839 73.8592 98.25 68.0845 98.25 58.9296C98.1059 49.7746 92.3397 44 83.2581 44ZM79.6543 50.6197H82.8257C88.1593 50.6197 90.4658 53.1549 90.4658 58.9296C90.4658 64.7042 88.1593 67.3803 82.8257 67.3803H79.6543V50.6197Z" fill="white"/>
<path d="M48.9499 79.3999L44.3499 77.0999C43.8499 76.8999 43.2499 77.0999 43.0499 77.4999L29.8499 103.8C29.6499 104.3 29.8499 104.9 30.2499 105.1L34.8499 107.4C35.3499 107.6 35.9499 107.4 36.1499 107L49.3499 80.7999C49.6499 80.2999 49.4499 79.6999 48.9499 79.3999Z" fill="#FFC011"/>
<path d="M73.1499 100.4H43.8499C43.2499 100.4 42.8499 100.8 42.8499 101.4V106.5C42.8499 107.1 43.2499 107.5 43.8499 107.5H73.1499C73.7499 107.5 74.1499 107.1 74.1499 106.5V101.4C74.1499 100.8 73.7499 100.4 73.1499 100.4Z" fill="#FFC011"/>
<path d="M73.1499 93.1999H43.8499C43.2499 93.1999 42.8499 93.5999 42.8499 94.1999V99.2999C42.8499 99.8999 43.2499 100.3 43.8499 100.3H73.1499C73.7499 100.3 74.1499 99.8999 74.1499 99.2999V94.1999C74.1499 93.5999 73.7499 93.1999 73.1499 93.1999Z" fill="#FFC011"/>
<path d="M107.75 100.4H78.4499C77.8499 100.4 77.4499 100.8 77.4499 101.4V106.5C77.4499 107.1 77.8499 107.5 78.4499 107.5H107.75C108.35 107.5 108.75 107.1 108.75 106.5V101.4C108.75 100.8 108.35 100.4 107.75 100.4Z" fill="#FFC011"/>
<path d="M107.75 93.1999H78.4499C77.8499 93.1999 77.4499 93.5999 77.4499 94.1999V99.2999C77.4499 99.8999 77.8499 100.3 78.4499 100.3H107.75C108.35 100.3 108.75 99.8999 108.75 99.2999V94.1999C108.75 93.5999 108.35 93.1999 107.75 93.1999Z" fill="#FFC011"/>
<path d="M107.75 85.9999H78.4499C77.8499 85.9999 77.4499 86.3999 77.4499 86.9999V92.0999C77.4499 92.6999 77.8499 93.0999 78.4499 93.0999H107.75C108.35 93.0999 108.75 92.6999 108.75 92.0999V86.9999C108.75 86.3999 108.35 85.9999 107.75 85.9999Z" fill="#FFC011"/>
<path d="M48.75 101.5C48.45 101.5 48.25 101.7 48.25 102V105.7C48.25 106 48.45 106.2 48.75 106.2C49.05 106.2 49.25 106 49.25 105.7V102C49.25 101.7 48.95 101.5 48.75 101.5Z" fill="#EAA53E"/>
<path d="M55.25 101.5C54.95 101.5 54.75 101.7 54.75 102V105.7C54.75 106 54.95 106.2 55.25 106.2C55.55 106.2 55.75 106 55.75 105.7V102C55.75 101.7 55.55 101.5 55.25 101.5Z" fill="#EAA53E"/>
<path d="M61.75 101.5C61.45 101.5 61.25 101.7 61.25 102V105.7C61.25 106 61.45 106.2 61.75 106.2C62.05 106.2 62.25 106 62.25 105.7V102C62.25 101.7 62.05 101.5 61.75 101.5Z" fill="#EAA53E"/>
<path d="M68.35 101.5C68.05 101.5 67.85 101.7 67.85 102V105.7C67.85 106 68.05 106.2 68.35 106.2C68.65 106.2 68.85 106 68.85 105.7V102C68.85 101.7 68.65 101.5 68.35 101.5Z" fill="#EAA53E"/>
<path d="M73.15 92.6998H43.95L49.85 80.9998C50.25 80.2998 49.95 79.3998 49.15 78.9998L44.55 76.6998C43.85 76.2998 42.95 76.5998 42.55 77.3998L29.45 103.5C29.05 104.2 29.35 105.1 30.15 105.5L34.75 107.8C35.45 108.2 36.35 107.9 36.75 107.1L42.45 95.6998V99.1998C42.45 99.5998 42.65 99.9998 42.85 100.2C42.55 100.5 42.45 100.8 42.45 101.2V106.3C42.45 107.1 43.15 107.8 43.95 107.8H73.25C74.05 107.8 74.75 107.1 74.75 106.3V101.2C74.75 100.8 74.55 100.4 74.35 100.2C74.65 99.8998 74.75 99.5998 74.75 99.1998V94.0998C74.65 93.2998 74.05 92.6998 73.15 92.6998ZM35.75 106.7C35.65 107 35.35 107.1 35.05 107L30.45 104.7C30.25 104.5 30.15 104.2 30.35 104L43.55 77.7998C43.65 77.5998 43.95 77.4998 44.25 77.5998L48.85 79.8998C49.05 79.9998 49.15 80.2998 49.05 80.5998L35.75 106.7ZM73.65 106.5C73.65 106.8 73.45 107 73.15 107H43.85C43.55 107 43.35 106.8 43.35 106.5V101.4C43.35 101.1 43.55 100.9 43.85 100.9H73.15C73.45 100.9 73.65 101.1 73.65 101.4V106.5ZM73.65 99.2998C73.65 99.5998 73.45 99.7998 73.15 99.7998H43.85C43.55 99.7998 43.35 99.5998 43.35 99.2998V94.1998C43.35 93.8998 43.55 93.6998 43.85 93.6998H73.15C73.45 93.6998 73.65 93.8998 73.65 94.1998V99.2998Z" fill="#EAA53E"/>
<path d="M48.75 94.2998C48.45 94.2998 48.25 94.4998 48.25 94.7998V98.4998C48.25 98.7998 48.45 98.9998 48.75 98.9998C49.05 98.9998 49.25 98.7998 49.25 98.4998V94.7998C49.25 94.4998 48.95 94.2998 48.75 94.2998Z" fill="#EAA53E"/>
<path d="M55.25 94.2998C54.95 94.2998 54.75 94.4998 54.75 94.7998V98.4998C54.75 98.7998 54.95 98.9998 55.25 98.9998C55.55 98.9998 55.75 98.7998 55.75 98.4998V94.7998C55.75 94.4998 55.55 94.2998 55.25 94.2998Z" fill="#EAA53E"/>
<path d="M61.75 94.2998C61.45 94.2998 61.25 94.4998 61.25 94.7998V98.4998C61.25 98.7998 61.45 98.9998 61.75 98.9998C62.05 98.9998 62.25 98.7998 62.25 98.4998V94.7998C62.25 94.4998 62.05 94.2998 61.75 94.2998Z" fill="#EAA53E"/>
<path d="M68.35 94.2998C68.05 94.2998 67.85 94.4998 67.85 94.7998V98.4998C67.85 98.7998 68.05 98.9998 68.35 98.9998C68.65 98.9998 68.85 98.7998 68.85 98.4998V94.7998C68.85 94.4998 68.65 94.2998 68.35 94.2998Z" fill="#EAA53E"/>
<path d="M83.35 101.5C83.05 101.5 82.85 101.7 82.85 102V105.7C82.85 106 83.05 106.2 83.35 106.2C83.65 106.2 83.85 106 83.85 105.7V102C83.85 101.7 83.55 101.5 83.35 101.5Z" fill="#EAA53E"/>
<path d="M89.85 101.5C89.55 101.5 89.35 101.7 89.35 102V105.7C89.35 106 89.55 106.2 89.85 106.2C90.15 106.2 90.35 106 90.35 105.7V102C90.35 101.7 90.15 101.5 89.85 101.5Z" fill="#EAA53E"/>
<path d="M96.35 101.5C96.05 101.5 95.85 101.7 95.85 102V105.7C95.85 106 96.05 106.2 96.35 106.2C96.65 106.2 96.85 106 96.85 105.7V102C96.85 101.7 96.65 101.5 96.35 101.5Z" fill="#EAA53E"/>
<path d="M102.95 101.5C102.65 101.5 102.45 101.7 102.45 102V105.7C102.45 106 102.65 106.2 102.95 106.2C103.25 106.2 103.45 106 103.45 105.7V102C103.45 101.7 103.25 101.5 102.95 101.5Z" fill="#EAA53E"/>
<path d="M83.35 94.2998C83.05 94.2998 82.85 94.4998 82.85 94.7998V98.4998C82.85 98.7998 83.05 98.9998 83.35 98.9998C83.65 98.9998 83.85 98.7998 83.85 98.4998V94.7998C83.85 94.4998 83.55 94.2998 83.35 94.2998Z" fill="#EAA53E"/>
<path d="M89.85 94.2998C89.55 94.2998 89.35 94.4998 89.35 94.7998V98.4998C89.35 98.7998 89.55 98.9998 89.85 98.9998C90.15 98.9998 90.35 98.7998 90.35 98.4998V94.7998C90.35 94.4998 90.15 94.2998 89.85 94.2998Z" fill="#EAA53E"/>
<path d="M96.35 94.2998C96.05 94.2998 95.85 94.4998 95.85 94.7998V98.4998C95.85 98.7998 96.05 98.9998 96.35 98.9998C96.65 98.9998 96.85 98.7998 96.85 98.4998V94.7998C96.85 94.4998 96.65 94.2998 96.35 94.2998Z" fill="#EAA53E"/>
<path d="M102.95 94.2998C102.65 94.2998 102.45 94.4998 102.45 94.7998V98.4998C102.45 98.7998 102.65 98.9998 102.95 98.9998C103.25 98.9998 103.45 98.7998 103.45 98.4998V94.7998C103.45 94.4998 103.25 94.2998 102.95 94.2998Z" fill="#EAA53E"/>
<path d="M109.25 86.9998C109.25 86.1998 108.55 85.4998 107.75 85.4998H78.45C77.65 85.4998 76.95 86.1998 76.95 86.9998V92.0998C76.95 92.4998 77.15 92.8998 77.35 93.0998C77.05 93.3998 76.95 93.6998 76.95 94.0998V99.1998C76.95 99.5998 77.15 99.9998 77.35 100.2C77.05 100.5 76.95 100.8 76.95 101.2V106.3C76.95 107.1 77.65 107.8 78.45 107.8H107.75C108.55 107.8 109.25 107.1 109.25 106.3V101.2C109.25 100.8 109.05 100.4 108.85 100.2C109.15 99.8998 109.25 99.5998 109.25 99.1998V94.0998C109.25 93.6998 109.05 93.2998 108.85 93.0998C109.15 92.7998 109.25 92.4998 109.25 92.0998V86.9998ZM108.25 106.5C108.25 106.8 108.05 107 107.75 107H78.45C78.15 107 77.95 106.8 77.95 106.5V101.4C77.95 101.1 78.15 100.9 78.45 100.9H107.75C108.05 100.9 108.25 101.1 108.25 101.4V106.5ZM108.25 99.2998C108.25 99.5998 108.05 99.7998 107.75 99.7998H78.45C78.15 99.7998 77.95 99.5998 77.95 99.2998V94.1998C77.95 93.8998 78.15 93.6998 78.45 93.6998H107.75C108.05 93.6998 108.25 93.8998 108.25 94.1998V99.2998ZM108.25 92.0998C108.25 92.3998 108.05 92.5998 107.75 92.5998H78.45C78.15 92.5998 77.95 92.3998 77.95 92.0998V86.9998C77.95 86.6998 78.15 86.4998 78.45 86.4998H107.75C108.05 86.4998 108.25 86.6998 108.25 86.9998V92.0998Z" fill="#EAA53E"/>
<path d="M83.35 87.0998C83.05 87.0998 82.85 87.2998 82.85 87.5998V91.2998C82.85 91.5998 83.05 91.7998 83.35 91.7998C83.65 91.7998 83.85 91.5998 83.85 91.2998V87.5998C83.85 87.3998 83.55 87.0998 83.35 87.0998Z" fill="#EAA53E"/>
<path d="M89.85 87.0998C89.55 87.0998 89.35 87.2998 89.35 87.5998V91.2998C89.35 91.5998 89.55 91.7998 89.85 91.7998C90.15 91.7998 90.35 91.5998 90.35 91.2998V87.5998C90.35 87.3998 90.15 87.0998 89.85 87.0998Z" fill="#EAA53E"/>
<path d="M96.35 87.0998C96.05 87.0998 95.85 87.2998 95.85 87.5998V91.2998C95.85 91.5998 96.05 91.7998 96.35 91.7998C96.65 91.7998 96.85 91.5998 96.85 91.2998V87.5998C96.85 87.3998 96.65 87.0998 96.35 87.0998Z" fill="#EAA53E"/>
<path d="M102.95 87.0998C102.65 87.0998 102.45 87.2998 102.45 87.5998V91.2998C102.45 91.5998 102.65 91.7998 102.95 91.7998C103.25 91.7998 103.45 91.5998 103.45 91.2998V87.5998C103.45 87.3998 103.25 87.0998 102.95 87.0998Z" fill="#EAA53E"/>
<path d="M37.05 101.4L33.75 99.7998C33.55 99.6998 33.25 99.7998 33.05 99.9998C32.85 100.2 33.05 100.5 33.25 100.7L36.55 102.3C36.75 102.4 37.05 102.3 37.25 102.1C37.35 101.8 37.25 101.5 37.05 101.4Z" fill="#EAA53E"/>
<path d="M39.95 95.4998L36.65 93.8998C36.45 93.7998 36.15 93.8998 35.95 94.0998C35.75 94.2998 35.95 94.5998 36.15 94.7998L39.45 96.3998C39.65 96.4998 39.95 96.3998 40.15 96.1998C40.35 95.9998 40.15 95.5998 39.95 95.4998Z" fill="#EAA53E"/>
<path d="M42.85 89.6998L39.55 87.9998C39.35 87.8998 39.05 87.9998 38.85 88.1998C38.75 88.3998 38.85 88.6998 39.05 88.8998L42.35 90.4998C42.55 90.5998 42.85 90.4998 43.05 90.2998C43.25 90.0998 43.15 89.7998 42.85 89.6998Z" fill="#EAA53E"/>
<path d="M45.85 83.7998L42.55 82.1998C42.35 82.0998 42.05 82.1998 41.85 82.3998C41.75 82.5998 41.85 82.8998 42.05 83.0998L45.35 84.6998C45.55 84.7998 45.85 84.6998 46.05 84.4998C46.25 84.2998 46.05 83.9998 45.85 83.7998Z" fill="#EAA53E"/>
</svg>
