<?xml version="1.0" encoding="utf-8"?>
<!-- Generator: Adobe Illustrator 24.1.2, SVG Export Plug-In . SVG Version: 6.00 Build 0)  -->
<!DOCTYPE svg PUBLIC "-//W3C//DTD SVG 1.1//EN" "http://www.w3.org/Graphics/SVG/1.1/DTD/svg11.dtd" [
	<!ENTITY ns_extend "http://ns.adobe.com/Extensibility/1.0/">
	<!ENTITY ns_ai "http://ns.adobe.com/AdobeIllustrator/10.0/">
	<!ENTITY ns_graphs "http://ns.adobe.com/Graphs/1.0/">
	<!ENTITY ns_vars "http://ns.adobe.com/Variables/1.0/">
	<!ENTITY ns_imrep "http://ns.adobe.com/ImageReplacement/1.0/">
	<!ENTITY ns_sfw "http://ns.adobe.com/SaveForWeb/1.0/">
	<!ENTITY ns_custom "http://ns.adobe.com/GenericCustomNamespace/1.0/">
	<!ENTITY ns_adobe_xpath "http://ns.adobe.com/XPath/1.0/">
	<!ENTITY st0 "fill:#DAEAF2;">
	<!ENTITY st1 "fill:#6495F7;">
	<!ENTITY st2 "fill:#FFFFFF;">
	<!ENTITY st3 "fill:#FFC011;">
	<!ENTITY st4 "fill:#EAA53E;">
]>
<svg version="1.1" id="Layer_1" xmlns:x="&ns_extend;" xmlns:i="&ns_ai;" xmlns:graph="&ns_graphs;"
	 xmlns="http://www.w3.org/2000/svg" xmlns:xlink="http://www.w3.org/1999/xlink" x="0px" y="0px" width="139px" height="138px"
	 viewBox="0 0 139 138" style="enable-background:new 0 0 139 138;" xml:space="preserve">
<metadata>
	<sfw  xmlns="&ns_sfw;">
		<slices></slices>
		<sliceSourceBounds  bottomLeftOrigin="true" height="137" width="138" x="0.5" y="0.5"></sliceSourceBounds>
	</sfw>
</metadata>
<path style="&st0;" d="M16.5,0.5h106c8.837,0,16,7.163,16,16v105c0,8.837-7.163,16-16,16h-106c-8.837,0-16-7.163-16-16v-105
	C0.5,7.663,7.663,0.5,16.5,0.5z"/>
<path style="&st1;" d="M98.056,89.5H40.444c-7.33,0-13.194-5.742-13.194-12.92V43.42c0-7.178,5.864-12.92,13.194-12.92h57.613
	c7.33,0,13.194,5.742,13.194,12.92v33.16C111.25,83.614,105.24,89.5,98.056,89.5z"/>
<path style="&st2;" d="M60.77,45.063c-0.144-0.282-0.432-0.423-0.721-0.423h-7.928c-0.288,0-0.577,0.141-0.721,0.423L41.31,73.514
	c-0.144,0.282,0,0.423,0.144,0.704c0.144,0.141,0.288,0.282,0.577,0.282h6.631c0.288,0,0.577-0.141,0.721-0.423l2.018-6.056h9.514
	l2.018,6.056c0.144,0.282,0.433,0.423,0.721,0.423h6.631c0.288,0,0.433-0.141,0.577-0.282c0.144-0.141,0.144-0.423,0.144-0.704
	L60.77,45.063z M58.896,61.824h-5.334l2.739-8.169L58.896,61.824z"/>
<path style="&st2;" d="M83.258,44.5H72.879c-0.432,0-0.721,0.282-0.721,0.704v28.451c0,0.423,0.288,0.704,0.721,0.704h10.379
	c9.226,0,14.992-5.775,14.992-14.93C98.106,50.275,92.34,44.5,83.258,44.5z M79.654,51.12h3.171c5.334,0,7.64,2.535,7.64,8.31
	s-2.306,8.451-7.64,8.451h-3.171V51.12z"/>
<path style="&st3;" d="M48.95,79.9l-4.6-2.3c-0.5-0.2-1.1,0-1.3,0.4l-13.2,26.3c-0.2,0.5,0,1.1,0.4,1.3l4.6,2.3
	c0.5,0.2,1.1,0,1.3-0.4l13.2-26.2C49.65,80.8,49.45,80.2,48.95,79.9z"/>
<path style="&st3;" d="M73.15,100.9h-29.3c-0.6,0-1,0.4-1,1v5.1c0,0.6,0.4,1,1,1h29.3c0.6,0,1-0.4,1-1v-5.1
	C74.15,101.3,73.75,100.9,73.15,100.9z"/>
<path style="&st3;" d="M73.15,93.7h-29.3c-0.6,0-1,0.4-1,1v5.1c0,0.6,0.4,1,1,1h29.3c0.6,0,1-0.4,1-1v-5.1
	C74.15,94.1,73.75,93.7,73.15,93.7z"/>
<path style="&st3;" d="M107.75,100.9h-29.3c-0.6,0-1,0.4-1,1v5.1c0,0.6,0.4,1,1,1h29.3c0.6,0,1-0.4,1-1v-5.1
	C108.75,101.3,108.35,100.9,107.75,100.9z"/>
<path style="&st3;" d="M107.75,93.7h-29.3c-0.6,0-1,0.4-1,1v5.1c0,0.6,0.4,1,1,1h29.3c0.6,0,1-0.4,1-1v-5.1
	C108.75,94.1,108.35,93.7,107.75,93.7z"/>
<path style="&st3;" d="M107.75,86.5h-29.3c-0.6,0-1,0.4-1,1v5.1c0,0.6,0.4,1,1,1h29.3c0.6,0,1-0.4,1-1v-5.1
	C108.75,86.9,108.35,86.5,107.75,86.5z"/>
<path style="&st4;" d="M48.75,102c-0.3,0-0.5,0.2-0.5,0.5v3.7c0,0.3,0.2,0.5,0.5,0.5s0.5-0.2,0.5-0.5v-3.7
	C49.25,102.2,48.95,102,48.75,102z"/>
<path style="&st4;" d="M55.25,102c-0.3,0-0.5,0.2-0.5,0.5v3.7c0,0.3,0.2,0.5,0.5,0.5s0.5-0.2,0.5-0.5v-3.7
	C55.75,102.2,55.55,102,55.25,102z"/>
<path style="&st4;" d="M61.75,102c-0.3,0-0.5,0.2-0.5,0.5v3.7c0,0.3,0.2,0.5,0.5,0.5s0.5-0.2,0.5-0.5v-3.7
	C62.25,102.2,62.05,102,61.75,102z"/>
<path style="&st4;" d="M68.35,102c-0.3,0-0.5,0.2-0.5,0.5v3.7c0,0.3,0.2,0.5,0.5,0.5s0.5-0.2,0.5-0.5v-3.7
	C68.85,102.2,68.65,102,68.35,102z"/>
<path style="&st4;" d="M73.15,93.2h-29.2l5.9-11.7c0.4-0.7,0.1-1.6-0.7-2l-4.6-2.3c-0.7-0.4-1.6-0.1-2,0.7L29.45,104
	c-0.4,0.7-0.1,1.6,0.7,2l4.6,2.3c0.7,0.4,1.6,0.1,2-0.7l5.7-11.4v3.5c0,0.4,0.2,0.8,0.4,1c-0.3,0.3-0.4,0.6-0.4,1v5.1
	c0,0.8,0.7,1.5,1.5,1.5h29.3c0.8,0,1.5-0.7,1.5-1.5v-5.1c0-0.4-0.2-0.8-0.4-1c0.3-0.3,0.4-0.6,0.4-1v-5.1
	C74.65,93.8,74.05,93.2,73.15,93.2z M35.75,107.2c-0.1,0.3-0.4,0.4-0.7,0.3l-4.6-2.3c-0.2-0.2-0.3-0.5-0.1-0.7l13.2-26.2
	c0.1-0.2,0.4-0.3,0.7-0.2l4.6,2.3c0.2,0.1,0.3,0.4,0.2,0.7L35.75,107.2z M73.65,107c0,0.3-0.2,0.5-0.5,0.5h-29.3
	c-0.3,0-0.5-0.2-0.5-0.5v-5.1c0-0.3,0.2-0.5,0.5-0.5h29.3c0.3,0,0.5,0.2,0.5,0.5V107z M73.65,99.8c0,0.3-0.2,0.5-0.5,0.5h-29.3
	c-0.3,0-0.5-0.2-0.5-0.5v-5.1c0-0.3,0.2-0.5,0.5-0.5h29.3c0.3,0,0.5,0.2,0.5,0.5V99.8z"/>
<path style="&st4;" d="M48.75,94.8c-0.3,0-0.5,0.2-0.5,0.5V99c0,0.3,0.2,0.5,0.5,0.5s0.5-0.2,0.5-0.5v-3.7
	C49.25,95,48.95,94.8,48.75,94.8z"/>
<path style="&st4;" d="M55.25,94.8c-0.3,0-0.5,0.2-0.5,0.5V99c0,0.3,0.2,0.5,0.5,0.5s0.5-0.2,0.5-0.5v-3.7
	C55.75,95,55.55,94.8,55.25,94.8z"/>
<path style="&st4;" d="M61.75,94.8c-0.3,0-0.5,0.2-0.5,0.5V99c0,0.3,0.2,0.5,0.5,0.5s0.5-0.2,0.5-0.5v-3.7
	C62.25,95,62.05,94.8,61.75,94.8z"/>
<path style="&st4;" d="M68.35,94.8c-0.3,0-0.5,0.2-0.5,0.5V99c0,0.3,0.2,0.5,0.5,0.5s0.5-0.2,0.5-0.5v-3.7
	C68.85,95,68.65,94.8,68.35,94.8z"/>
<path style="&st4;" d="M83.35,102c-0.3,0-0.5,0.2-0.5,0.5v3.7c0,0.3,0.2,0.5,0.5,0.5s0.5-0.2,0.5-0.5v-3.7
	C83.85,102.2,83.55,102,83.35,102z"/>
<path style="&st4;" d="M89.85,102c-0.3,0-0.5,0.2-0.5,0.5v3.7c0,0.3,0.2,0.5,0.5,0.5s0.5-0.2,0.5-0.5v-3.7
	C90.35,102.2,90.15,102,89.85,102z"/>
<path style="&st4;" d="M96.35,102c-0.3,0-0.5,0.2-0.5,0.5v3.7c0,0.3,0.2,0.5,0.5,0.5s0.5-0.2,0.5-0.5v-3.7
	C96.85,102.2,96.65,102,96.35,102z"/>
<path style="&st4;" d="M102.95,102c-0.3,0-0.5,0.2-0.5,0.5v3.7c0,0.3,0.2,0.5,0.5,0.5s0.5-0.2,0.5-0.5v-3.7
	C103.45,102.2,103.25,102,102.95,102z"/>
<path style="&st4;" d="M83.35,94.8c-0.3,0-0.5,0.2-0.5,0.5V99c0,0.3,0.2,0.5,0.5,0.5s0.5-0.2,0.5-0.5v-3.7
	C83.85,95,83.55,94.8,83.35,94.8z"/>
<path style="&st4;" d="M89.85,94.8c-0.3,0-0.5,0.2-0.5,0.5V99c0,0.3,0.2,0.5,0.5,0.5s0.5-0.2,0.5-0.5v-3.7
	C90.35,95,90.15,94.8,89.85,94.8z"/>
<path style="&st4;" d="M96.35,94.8c-0.3,0-0.5,0.2-0.5,0.5V99c0,0.3,0.2,0.5,0.5,0.5s0.5-0.2,0.5-0.5v-3.7
	C96.85,95,96.65,94.8,96.35,94.8z"/>
<path style="&st4;" d="M102.95,94.8c-0.3,0-0.5,0.2-0.5,0.5V99c0,0.3,0.2,0.5,0.5,0.5s0.5-0.2,0.5-0.5v-3.7
	C103.45,95,103.25,94.8,102.95,94.8z"/>
<path style="&st4;" d="M109.25,87.5c0-0.8-0.7-1.5-1.5-1.5h-29.3c-0.8,0-1.5,0.7-1.5,1.5v5.1c0,0.4,0.2,0.8,0.4,1
	c-0.3,0.3-0.4,0.6-0.4,1v5.1c0,0.4,0.2,0.8,0.4,1c-0.3,0.3-0.4,0.6-0.4,1v5.1c0,0.8,0.7,1.5,1.5,1.5h29.3c0.8,0,1.5-0.7,1.5-1.5
	v-5.1c0-0.4-0.2-0.8-0.4-1c0.3-0.3,0.4-0.6,0.4-1v-5.1c0-0.4-0.2-0.8-0.4-1c0.3-0.3,0.4-0.6,0.4-1V87.5z M108.25,107
	c0,0.3-0.2,0.5-0.5,0.5h-29.3c-0.3,0-0.5-0.2-0.5-0.5v-5.1c0-0.3,0.2-0.5,0.5-0.5h29.3c0.3,0,0.5,0.2,0.5,0.5V107z M108.25,99.8
	c0,0.3-0.2,0.5-0.5,0.5h-29.3c-0.3,0-0.5-0.2-0.5-0.5v-5.1c0-0.3,0.2-0.5,0.5-0.5h29.3c0.3,0,0.5,0.2,0.5,0.5V99.8z M108.25,92.6
	c0,0.3-0.2,0.5-0.5,0.5h-29.3c-0.3,0-0.5-0.2-0.5-0.5v-5.1c0-0.3,0.2-0.5,0.5-0.5h29.3c0.3,0,0.5,0.2,0.5,0.5V92.6z"/>
<path style="&st4;" d="M83.35,87.6c-0.3,0-0.5,0.2-0.5,0.5v3.7c0,0.3,0.2,0.5,0.5,0.5s0.5-0.2,0.5-0.5v-3.7
	C83.85,87.9,83.55,87.6,83.35,87.6z"/>
<path style="&st4;" d="M89.85,87.6c-0.3,0-0.5,0.2-0.5,0.5v3.7c0,0.3,0.2,0.5,0.5,0.5s0.5-0.2,0.5-0.5v-3.7
	C90.35,87.9,90.15,87.6,89.85,87.6z"/>
<path style="&st4;" d="M96.35,87.6c-0.3,0-0.5,0.2-0.5,0.5v3.7c0,0.3,0.2,0.5,0.5,0.5s0.5-0.2,0.5-0.5v-3.7
	C96.85,87.9,96.65,87.6,96.35,87.6z"/>
<path style="&st4;" d="M102.95,87.6c-0.3,0-0.5,0.2-0.5,0.5v3.7c0,0.3,0.2,0.5,0.5,0.5s0.5-0.2,0.5-0.5v-3.7
	C103.45,87.9,103.25,87.6,102.95,87.6z"/>
<path style="&st4;" d="M37.05,101.9l-3.3-1.6c-0.2-0.1-0.5,0-0.7,0.2s0,0.5,0.2,0.7l3.3,1.6c0.2,0.1,0.5,0,0.7-0.2
	C37.35,102.3,37.25,102,37.05,101.9z"/>
<path style="&st4;" d="M39.95,96l-3.3-1.6c-0.2-0.1-0.5,0-0.7,0.2s0,0.5,0.2,0.7l3.3,1.6c0.2,0.1,0.5,0,0.7-0.2
	C40.35,96.5,40.15,96.1,39.95,96z"/>
<path style="&st4;" d="M42.85,90.2l-3.3-1.7c-0.2-0.1-0.5,0-0.7,0.2c-0.1,0.2,0,0.5,0.2,0.7l3.3,1.6c0.2,0.1,0.5,0,0.7-0.2
	S43.15,90.3,42.85,90.2z"/>
<path style="&st4;" d="M45.85,84.3l-3.3-1.6c-0.2-0.1-0.5,0-0.7,0.2c-0.1,0.2,0,0.5,0.2,0.7l3.3,1.6c0.2,0.1,0.5,0,0.7-0.2
	S46.05,84.5,45.85,84.3z"/>
</svg>
