<svg width="139" height="137" viewBox="0 0 139 137" fill="none" xmlns="http://www.w3.org/2000/svg">
<rect x="0.5" width="138" height="137" rx="16" fill="#F7F2ED"/>
<path d="M50.2999 45.9V25.5C50.2999 25.2 50.0999 25 49.7999 25H45.8999C45.5999 25 45.3999 25.2 45.3999 25.5V45.8C45.3999 46.1 45.1999 46.3 44.8999 46.3H41.4999C41.0999 46.3 40.8999 46.8 41.0999 47.1L47.4999 56.3C47.6999 56.6 48.0999 56.6 48.2999 56.3L54.6999 47.1C54.8999 46.8 54.6999 46.3 54.2999 46.3H50.7999C50.4999 46.4 50.2999 46.2 50.2999 45.9Z" fill="#6495F7"/>
<path d="M66.6 73.7998H29.1C27.7 73.7998 26.5 74.9998 26.5 76.3998V80.8998C26.5 82.2998 27.7 83.4998 29.1 83.4998H66.6C68 83.4998 69.2 82.2998 69.2 80.8998V76.3998C69.1 74.8998 68 73.7998 66.6 73.7998Z" fill="#FFF0D3"/>
<path d="M66.6 64.1002H29.1C27.7 64.1002 26.5 65.3002 26.5 66.7002V71.2002C26.5 72.6002 27.7 73.7998 29.1 73.7998H66.6C68 73.7998 69.2 72.6002 69.2 71.2002V66.7002C69.1 65.2002 68 64.1002 66.6 64.1002Z" fill="#FFF0D3"/>
<path d="M109.3 64.1002H71.8C70.4 64.1002 69.2 65.3002 69.2 66.7002V71.2002C69.2 72.6002 70.4 73.8002 71.8 73.8002H109.3C110.7 73.8002 111.9 72.6002 111.9 71.2002V66.7002C111.9 65.2002 110.8 64.1002 109.3 64.1002Z" fill="#FFF0D3"/>
<path d="M109.3 54.4002H71.8C70.4 54.4002 69.2 55.6002 69.2 57.0002V61.5002C69.2 62.9002 70.4 64.1002 71.8 64.1002H109.3C110.7 64.1002 111.9 62.9002 111.9 61.5002V57.0002C111.9 55.6002 110.8 54.4002 109.3 54.4002Z" fill="#FFF0D3"/>
<path d="M109.3 44.7002H71.8C70.4 44.7002 69.2 45.9002 69.2 47.3002V51.8002C69.2 53.2002 70.4 54.4002 71.8 54.4002H109.3C110.7 54.4002 111.9 53.2002 111.9 51.8002V47.3002C111.9 45.9002 110.8 44.7002 109.3 44.7002Z" fill="#FFF0D3"/>
<path d="M66.6 73.7998H29.1C27.7 73.7998 26.5 74.9998 26.5 76.3998V80.8998C26.5 82.2998 27.7 83.4998 29.1 83.4998H66.6C68 83.4998 69.2 82.2998 69.2 80.8998V76.3998C69.1 74.8998 68 73.7998 66.6 73.7998Z" fill="#FFF0D3"/>
<path d="M66.6 93.1998H29.1C27.7 93.1998 26.5 94.3998 26.5 95.7998V100.3C26.5 101.7 27.7 102.9 29.1 102.9H66.6C68 102.9 69.2 101.7 69.2 100.3V95.7998C69.1 94.3998 68 93.1998 66.6 93.1998Z" fill="#FFC011"/>
<path d="M66.6 102.9H29.1C27.7 102.9 26.5 104.1 26.5 105.5V110C26.5 111.4 27.7 112.6 29.1 112.6H66.6C68 112.6 69.2 111.4 69.2 110V105.5C69.1 104.1 68 102.9 66.6 102.9Z" fill="#FFC011"/>
<path d="M66.6 83.4998H29.1C27.7 83.4998 26.5 84.6998 26.5 86.0998V90.5998C26.5 91.9998 27.7 93.1998 29.1 93.1998H66.6C68 93.1998 69.2 91.9998 69.2 90.5998V86.0998C69.1 84.6998 68 83.4998 66.6 83.4998Z" fill="#FFC011"/>
<path d="M109.3 73.7998H71.8C70.4 73.7998 69.2 74.9998 69.2 76.3998V80.8998C69.2 82.2998 70.4 83.4998 71.8 83.4998H109.3C110.7 83.4998 111.9 82.2998 111.9 80.8998V76.3998C111.9 74.8998 110.8 73.7998 109.3 73.7998Z" fill="#FFC011"/>
<path d="M109.3 93.1998H71.8C70.4 93.1998 69.2 94.3998 69.2 95.7998V100.3C69.2 101.7 70.4 102.9 71.8 102.9H109.3C110.7 102.9 111.9 101.7 111.9 100.3V95.7998C111.9 94.3998 110.8 93.1998 109.3 93.1998Z" fill="#FFC011"/>
<path d="M109.3 83.4998H71.8C70.4 83.4998 69.2 84.6998 69.2 86.0998V90.5998C69.2 91.9998 70.4 93.1998 71.8 93.1998H109.3C110.7 93.1998 111.9 91.9998 111.9 90.5998V86.0998C111.9 84.6998 110.8 83.4998 109.3 83.4998Z" fill="#FFC011"/>
<path d="M109.3 102.9H71.8C70.4 102.9 69.2 104.1 69.2 105.5V110C69.2 111.4 70.4 112.6 71.8 112.6H109.3C110.7 112.6 111.9 111.4 111.9 110V105.5C111.9 104.1 110.8 102.9 109.3 102.9Z" fill="#FFC011"/>
<path d="M60.5 101.1C60.8 101.1 61 100.9 61 100.6V95.6002C61 95.3002 60.8 95.1002 60.5 95.1002C60.2 95.1002 60 95.3002 60 95.6002V100.6C60 100.9 60.2 101.1 60.5 101.1Z" fill="#EAA53E"/>
<path d="M52.2 101.1C52.5 101.1 52.7 100.9 52.7 100.6V95.6002C52.7 95.3002 52.5 95.1002 52.2 95.1002C51.9 95.1002 51.7 95.3002 51.7 95.6002V100.6C51.7 100.9 51.9 101.1 52.2 101.1Z" fill="#EAA53E"/>
<path d="M43.3 101.1C43.6 101.1 43.8 100.9 43.8 100.6V95.6002C43.8 95.3002 43.6 95.1002 43.3 95.1002C43 95.1002 42.8 95.3002 42.8 95.6002V100.6C42.8 100.9 43 101.1 43.3 101.1Z" fill="#EAA53E"/>
<path d="M34.5 101.1C34.8 101.1 35 100.9 35 100.6V95.6002C35 95.3002 34.8 95.1002 34.5 95.1002C34.2 95.1002 34 95.3002 34 95.6002V100.6C34 100.9 34.2 101.1 34.5 101.1Z" fill="#EAA53E"/>
<path d="M60.5 104.7C60.2 104.7 60 104.9 60 105.2V110.2C60 110.5 60.2 110.7 60.5 110.7C60.8 110.7 61 110.5 61 110.2V105.2C61 104.9 60.8 104.7 60.5 104.7Z" fill="#EAA53E"/>
<path d="M52.2 104.7C51.9 104.7 51.7 104.9 51.7 105.2V110.2C51.7 110.5 51.9 110.7 52.2 110.7C52.5 110.7 52.7 110.5 52.7 110.2V105.2C52.7 104.9 52.5 104.7 52.2 104.7Z" fill="#EAA53E"/>
<path d="M43.3 104.7C43 104.7 42.8 104.9 42.8 105.2V110.2C42.8 110.5 43 110.7 43.3 110.7C43.6 110.7 43.8 110.5 43.8 110.2V105.2C43.8 104.9 43.6 104.7 43.3 104.7Z" fill="#EAA53E"/>
<path d="M34.5 104.7C34.2 104.7 34 104.9 34 105.2V110.2C34 110.5 34.2 110.7 34.5 110.7C34.8 110.7 35 110.5 35 110.2V105.2C35 104.9 34.8 104.7 34.5 104.7Z" fill="#EAA53E"/>
<path d="M60.5 91.4002C60.8 91.4002 61 91.2002 61 90.9002V85.9002C61 85.6002 60.8 85.4002 60.5 85.4002C60.2 85.4002 60 85.6002 60 85.9002V90.9002C60 91.2002 60.2 91.4002 60.5 91.4002Z" fill="#EAA53E"/>
<path d="M52.2 91.4002C52.5 91.4002 52.7 91.2002 52.7 90.9002V85.9002C52.7 85.6002 52.5 85.4002 52.2 85.4002C51.9 85.4002 51.7 85.6002 51.7 85.9002V90.9002C51.7 91.2002 51.9 91.4002 52.2 91.4002Z" fill="#EAA53E"/>
<path d="M43.3 91.4002C43.6 91.4002 43.8 91.2002 43.8 90.9002V85.9002C43.8 85.6002 43.6 85.4002 43.3 85.4002C43 85.4002 42.8 85.6002 42.8 85.9002V90.9002C42.8 91.2002 43 91.4002 43.3 91.4002Z" fill="#EAA53E"/>
<path d="M34.5 91.4002C34.8 91.4002 35 91.2002 35 90.9002V85.9002C35 85.6002 34.8 85.4002 34.5 85.4002C34.2 85.4002 34 85.6002 34 85.9002V90.9002C34 91.2002 34.2 91.4002 34.5 91.4002Z" fill="#EAA53E"/>
<path d="M109.3 73.3002H71.5C70.3 73.3002 69.3 74.0002 68.8 75.0002C68.6 74.8002 68.5 74.6002 68.2 74.4002C68 74.2002 67.7 74.3002 67.5 74.5002C67.3 74.7002 67.4 75.0002 67.6 75.2002C68 75.5002 68.3 76.0002 68.4 76.6002V80.7002C68.3 81.2002 68 81.7002 67.6 82.1002C67.4 82.3002 67.3 82.6002 67.5 82.8002C67.7 83.0002 68 83.1002 68.2 82.9002C68.4 82.7002 68.6 82.5002 68.8 82.3002C69.1 82.8002 69.4 83.2002 69.9 83.5002C69.5 83.8002 69.2 84.1002 68.9 84.5002C68.3 83.6002 67.4 83.0002 66.3 83.0002H29.1C27.4 83.0002 26 84.4002 26 86.1002V90.6002C26 91.7002 26.6 92.6002 27.4 93.2002C26.6 93.8002 26 94.7002 26 95.8002V100.3C26 101.4 26.6 102.3 27.4 102.9C26.6 103.5 26 104.4 26 105.5V110C26 111.7 27.4 113.1 29.1 113.1H66.6C67.7 113.1 68.6 112.5 69.2 111.7C69.8 112.6 70.7 113.1 71.8 113.1H109.3C111 113.1 112.4 111.7 112.4 110V105.5C112.4 104.4 111.8 103.4 111 102.9C111.8 102.3 112.4 101.4 112.4 100.3V95.8002C112.4 94.7002 111.8 93.7002 111 93.2002C111.8 92.6002 112.4 91.7002 112.4 90.6002V86.1002C112.4 85.0002 111.8 84.0002 111 83.5002C111.8 82.9002 112.4 82.0002 112.4 80.9002V76.4002C112.4 74.6002 111.1 73.3002 109.3 73.3002ZM69.2 92.3002C69.4 92.7002 69.8 93.0002 70.1 93.2002C69.7 93.5002 69.4 93.8002 69.1 94.2002C68.9 93.8002 68.5 93.5002 68.2 93.2002C68.6 93.0002 69 92.6002 69.2 92.3002ZM27 90.6002V86.1002C27 85.0002 28 84.0002 29.1 84.0002H66.2C67.3 84.0002 68.2 84.9002 68.3 86.1002V90.6002C68.3 91.7002 67.3 92.7002 66.2 92.7002H29.1C28 92.7002 27 91.7002 27 90.6002ZM27 100.3V95.8002C27 94.7002 28 93.7002 29.1 93.7002H66.6C67.7 93.7002 68.6 94.6002 68.7 95.8002V100.3C68.7 101.4 67.7 102.4 66.6 102.4H29.1C28 102.4 27 101.4 27 100.3ZM68.7 110C68.7 111.1 67.7 112.1 66.6 112.1H29.1C28 112.1 27 111.1 27 110V105.5C27 104.4 28 103.4 29.1 103.4H66.6C67.7 103.4 68.6 104.3 68.7 105.5V110ZM69.2 103.9C69 103.5 68.6 103.2 68.3 102.9C68.7 102.7 69 102.3 69.3 101.9C69.5 102.3 69.9 102.6 70.2 102.8C69.8 103.2 69.4 103.5 69.2 103.9ZM111.4 105.5V110C111.4 111.1 110.4 112.1 109.3 112.1H71.8C70.7 112.1 69.7 111.1 69.7 110V105.5C69.7 104.4 70.7 103.4 71.8 103.4H109.3C110.5 103.4 111.4 104.3 111.4 105.5ZM111.4 95.8002V100.3C111.4 101.4 110.4 102.4 109.3 102.4H71.8C70.7 102.4 69.7 101.4 69.7 100.3V95.8002C69.7 94.7002 70.7 93.7002 71.8 93.7002H109.3C110.5 93.7002 111.4 94.6002 111.4 95.8002ZM111.4 86.1002V90.6002C111.4 91.7002 110.4 92.7002 109.3 92.7002H71.8C70.7 92.7002 69.7 91.7002 69.7 90.6002V86.1002C69.7 85.0002 70.7 84.0002 71.8 84.0002H109.3C110.5 84.0002 111.4 84.9002 111.4 86.1002ZM111.4 80.9002C111.4 82.0002 110.4 83.0002 109.3 83.0002H71.8C70.7 83.0002 69.7 82.0002 69.7 80.9002V76.4002C69.7 75.3002 70.7 74.3002 71.8 74.3002H109.3C110.5 74.3002 111.4 75.2002 111.4 76.4002V80.9002Z" fill="#EAA53E"/>
<path d="M103.3 75.6002C103 75.6002 102.8 75.8002 102.8 76.1002V81.1002C102.8 81.4002 103 81.6002 103.3 81.6002C103.6 81.6002 103.8 81.4002 103.8 81.1002V76.1002C103.8 75.8002 103.6 75.6002 103.3 75.6002Z" fill="#EAA53E"/>
<path d="M95 75.6002C94.7 75.6002 94.5 75.8002 94.5 76.1002V81.1002C94.5 81.4002 94.7 81.6002 95 81.6002C95.3 81.6002 95.5 81.4002 95.5 81.1002V76.1002C95.5 75.8002 95.3 75.6002 95 75.6002Z" fill="#EAA53E"/>
<path d="M86.1 75.6002C85.8 75.6002 85.6 75.8002 85.6 76.1002V81.1002C85.6 81.4002 85.8 81.6002 86.1 81.6002C86.4 81.6002 86.6 81.4002 86.6 81.1002V76.1002C86.6 75.8002 86.4 75.6002 86.1 75.6002Z" fill="#EAA53E"/>
<path d="M77.3 75.6002C77 75.6002 76.8 75.8002 76.8 76.1002V81.1002C76.8 81.4002 77 81.6002 77.3 81.6002C77.6 81.6002 77.8 81.4002 77.8 81.1002V76.1002C77.8 75.8002 77.6 75.6002 77.3 75.6002Z" fill="#EAA53E"/>
<path d="M103.3 95.1002C103 95.1002 102.8 95.3002 102.8 95.6002V100.6C102.8 100.9 103 101.1 103.3 101.1C103.6 101.1 103.8 100.9 103.8 100.6V95.6002C103.8 95.3002 103.6 95.1002 103.3 95.1002Z" fill="#EAA53E"/>
<path d="M95 95.1002C94.7 95.1002 94.5 95.3002 94.5 95.6002V100.6C94.5 100.9 94.7 101.1 95 101.1C95.3 101.1 95.5 100.9 95.5 100.6V95.6002C95.5 95.3002 95.3 95.1002 95 95.1002Z" fill="#EAA53E"/>
<path d="M86.1 95.1002C85.8 95.1002 85.6 95.3002 85.6 95.6002V100.6C85.6 100.9 85.8 101.1 86.1 101.1C86.4 101.1 86.6 100.9 86.6 100.6V95.6002C86.6 95.3002 86.4 95.1002 86.1 95.1002Z" fill="#EAA53E"/>
<path d="M77.3 95.1002C77 95.1002 76.8 95.3002 76.8 95.6002V100.6C76.8 100.9 77 101.1 77.3 101.1C77.6 101.1 77.8 100.9 77.8 100.6V95.6002C77.8 95.3002 77.6 95.1002 77.3 95.1002Z" fill="#EAA53E"/>
<path d="M103.3 85.4002C103 85.4002 102.8 85.6002 102.8 85.9002V90.9002C102.8 91.2002 103 91.4002 103.3 91.4002C103.6 91.4002 103.8 91.2002 103.8 90.9002V85.9002C103.8 85.6002 103.6 85.4002 103.3 85.4002Z" fill="#EAA53E"/>
<path d="M95 85.4002C94.7 85.4002 94.5 85.6002 94.5 85.9002V90.9002C94.5 91.2002 94.7 91.4002 95 91.4002C95.3 91.4002 95.5 91.2002 95.5 90.9002V85.9002C95.5 85.6002 95.3 85.4002 95 85.4002Z" fill="#EAA53E"/>
<path d="M86.1 85.4002C85.8 85.4002 85.6 85.6002 85.6 85.9002V90.9002C85.6 91.2002 85.8 91.4002 86.1 91.4002C86.4 91.4002 86.6 91.2002 86.6 90.9002V85.9002C86.6 85.6002 86.4 85.4002 86.1 85.4002Z" fill="#EAA53E"/>
<path d="M77.3 85.4002C77 85.4002 76.8 85.6002 76.8 85.9002V90.9002C76.8 91.2002 77 91.4002 77.3 91.4002C77.6 91.4002 77.8 91.2002 77.8 90.9002V85.9002C77.8 85.6002 77.6 85.4002 77.3 85.4002Z" fill="#EAA53E"/>
<path d="M103.3 104.7C103 104.7 102.8 104.9 102.8 105.2V110.2C102.8 110.5 103 110.7 103.3 110.7C103.6 110.7 103.8 110.5 103.8 110.2V105.2C103.8 104.9 103.6 104.7 103.3 104.7Z" fill="#EAA53E"/>
<path d="M95 104.7C94.7 104.7 94.5 104.9 94.5 105.2V110.2C94.5 110.5 94.7 110.7 95 110.7C95.3 110.7 95.5 110.5 95.5 110.2V105.2C95.5 104.9 95.3 104.7 95 104.7Z" fill="#EAA53E"/>
<path d="M86.1 104.7C85.8 104.7 85.6 104.9 85.6 105.2V110.2C85.6 110.5 85.8 110.7 86.1 110.7C86.4 110.7 86.6 110.5 86.6 110.2V105.2C86.6 104.9 86.4 104.7 86.1 104.7Z" fill="#EAA53E"/>
<path d="M77.3 104.7C77 104.7 76.8 104.9 76.8 105.2V110.2C76.8 110.5 77 110.7 77.3 110.7C77.6 110.7 77.8 110.5 77.8 110.2V105.2C77.8 104.9 77.6 104.7 77.3 104.7Z" fill="#EAA53E"/>
<path d="M69.2 50.3002C69.5 50.3002 69.7 50.1002 69.7 49.8002V49.3002C69.7 49.0002 69.5 48.8002 69.2 48.8002C68.9 48.8002 68.7 49.0002 68.7 49.3002V49.8002C68.7 50.1002 68.9 50.3002 69.2 50.3002Z" fill="#EAA53E"/>
<path d="M111.9 48.8002C111.6 48.8002 111.4 49.0002 111.4 49.3002V49.8002C111.4 50.1002 111.6 50.3002 111.9 50.3002C112.2 50.3002 112.4 50.1002 112.4 49.8002V49.3002C112.4 49.0002 112.2 48.8002 111.9 48.8002Z" fill="#EAA53E"/>
<path d="M69.1 47.9002C69.2 47.9002 69.2 47.9002 69.1 47.9002C69.4 47.9002 69.6 47.7002 69.7 47.5002C69.8 47.0002 70.1 46.5002 70.5 46.1002C70.7 45.9002 70.8 45.6002 70.6 45.4002C70.4 45.2002 70.1 45.1002 69.9 45.3002C69.3 45.8002 68.8 46.5002 68.7 47.3002C68.7 47.6002 68.9 47.8002 69.1 47.9002Z" fill="#EAA53E"/>
<path d="M77.2 45.2002H79.2C79.5 45.2002 79.7 45.0002 79.7 44.7002C79.7 44.4002 79.5 44.2002 79.2 44.2002H77.2C76.9 44.2002 76.7 44.4002 76.7 44.7002C76.7 45.0002 76.9 45.2002 77.2 45.2002Z" fill="#EAA53E"/>
<path d="M82.1 45.2002H84.1C84.4 45.2002 84.6 45.0002 84.6 44.7002C84.6 44.4002 84.4 44.2002 84.1 44.2002H82.1C81.8 44.2002 81.6 44.4002 81.6 44.7002C81.6 45.0002 81.8 45.2002 82.1 45.2002Z" fill="#EAA53E"/>
<path d="M87.1 45.2002H89.1C89.4 45.2002 89.6 45.0002 89.6 44.7002C89.6 44.4002 89.4 44.2002 89.1 44.2002H87.1C86.8 44.2002 86.6 44.4002 86.6 44.7002C86.6 45.0002 86.8 45.2002 87.1 45.2002Z" fill="#EAA53E"/>
<path d="M92 45.2002H94C94.3 45.2002 94.5 45.0002 94.5 44.7002C94.5 44.4002 94.3 44.2002 94 44.2002H92C91.7 44.2002 91.5 44.4002 91.5 44.7002C91.5 45.0002 91.8 45.2002 92 45.2002Z" fill="#EAA53E"/>
<path d="M97 45.2002H99C99.3 45.2002 99.5 45.0002 99.5 44.7002C99.5 44.4002 99.3 44.2002 99 44.2002H97C96.7 44.2002 96.5 44.4002 96.5 44.7002C96.5 45.0002 96.7 45.2002 97 45.2002Z" fill="#EAA53E"/>
<path d="M101.9 45.2002H103.9C104.2 45.2002 104.4 45.0002 104.4 44.7002C104.4 44.4002 104.2 44.2002 103.9 44.2002H101.9C101.6 44.2002 101.4 44.4002 101.4 44.7002C101.4 45.0002 101.7 45.2002 101.9 45.2002Z" fill="#EAA53E"/>
<path d="M72.2 45.2002H74.2C74.5 45.2002 74.7 45.0002 74.7 44.7002C74.7 44.4002 74.5 44.2002 74.2 44.2002H72.2C71.9 44.2002 71.7 44.4002 71.7 44.7002C71.7 45.0002 71.9 45.2002 72.2 45.2002Z" fill="#EAA53E"/>
<path d="M111.4 47.5002C111.4 47.7002 111.7 47.9002 111.9 47.9002C111.9 47.9002 111.9 47.9002 112 47.9002C112.3 47.9002 112.5 47.6002 112.4 47.3002C112.3 46.5002 111.9 45.8002 111.2 45.3002C111 45.1002 110.7 45.2002 110.5 45.4002C110.3 45.6002 110.4 45.9002 110.6 46.1002C111 46.4002 111.3 46.9002 111.4 47.5002Z" fill="#EAA53E"/>
<path d="M106.9 45.2002H108.9C109.2 45.2002 109.4 45.0002 109.4 44.7002C109.4 44.4002 109.2 44.2002 108.9 44.2002H106.9C106.6 44.2002 106.4 44.4002 106.4 44.7002C106.4 45.0002 106.6 45.2002 106.9 45.2002Z" fill="#EAA53E"/>
<path d="M111.2 53.8002C111.8 53.3002 112.3 52.6002 112.4 51.8002C112.4 51.5002 112.3 51.3002 112 51.2002C112 51.2002 112 51.2002 111.9 51.2002C111.7 51.2002 111.4 51.4002 111.4 51.6002C111.3 52.1002 111 52.6002 110.6 53.0002C110.4 53.2002 110.3 53.5002 110.5 53.7002C110.7 53.9002 111 54.0002 111.2 53.8002Z" fill="#EAA53E"/>
<path d="M70.5 53.0002C70.1 52.7002 69.8 52.2002 69.7 51.6002C69.7 51.4002 69.4 51.2002 69.2 51.2002C69.2 51.2002 69.2 51.2002 69.1 51.2002C68.8 51.2002 68.6 51.5002 68.7 51.8002C68.8 52.6002 69.2 53.3002 69.9 53.8002C70.1 54.0002 70.4 53.9002 70.6 53.7002C70.8 53.5002 70.7 53.2002 70.5 53.0002Z" fill="#EAA53E"/>
<path d="M69.2 60.0002C69.5 60.0002 69.7 59.8002 69.7 59.5002V59.0002C69.7 58.7002 69.5 58.5002 69.2 58.5002C68.9 58.5002 68.7 58.7002 68.7 59.0002V59.5002C68.7 59.8002 68.9 60.0002 69.2 60.0002Z" fill="#EAA53E"/>
<path d="M111.9 58.5002C111.6 58.5002 111.4 58.7002 111.4 59.0002V59.5002C111.4 59.8002 111.6 60.0002 111.9 60.0002C112.2 60.0002 112.4 59.8002 112.4 59.5002V59.0002C112.4 58.7002 112.2 58.5002 111.9 58.5002Z" fill="#EAA53E"/>
<path d="M70.6 55.1002C70.4 54.9002 70.1 54.8002 69.9 55.0002C69.3 55.5002 68.8 56.2002 68.7 57.0002C68.7 57.3002 68.8 57.5002 69.1 57.6002C69.1 57.6002 69.1 57.6002 69.2 57.6002C69.4 57.6002 69.7 57.4002 69.7 57.2002C69.8 56.7002 70.1 56.2002 70.5 55.8002C70.7 55.6002 70.8 55.3002 70.6 55.1002Z" fill="#EAA53E"/>
<path d="M77.2 54.9002H79.2C79.5 54.9002 79.7 54.7002 79.7 54.4002C79.7 54.1002 79.5 53.9002 79.2 53.9002H77.2C76.9 53.9002 76.7 54.1002 76.7 54.4002C76.7 54.7002 76.9 54.9002 77.2 54.9002Z" fill="#EAA53E"/>
<path d="M82.1 54.9002H84.1C84.4 54.9002 84.6 54.7002 84.6 54.4002C84.6 54.1002 84.4 53.9002 84.1 53.9002H82.1C81.8 53.9002 81.6 54.1002 81.6 54.4002C81.6 54.7002 81.8 54.9002 82.1 54.9002Z" fill="#EAA53E"/>
<path d="M87.1 54.9002H89.1C89.4 54.9002 89.6 54.7002 89.6 54.4002C89.6 54.1002 89.4 53.9002 89.1 53.9002H87.1C86.8 53.9002 86.6 54.1002 86.6 54.4002C86.6 54.7002 86.8 54.9002 87.1 54.9002Z" fill="#EAA53E"/>
<path d="M92 54.9002H94C94.3 54.9002 94.5 54.7002 94.5 54.4002C94.5 54.1002 94.3 53.9002 94 53.9002H92C91.7 53.9002 91.5 54.1002 91.5 54.4002C91.5 54.7002 91.8 54.9002 92 54.9002Z" fill="#EAA53E"/>
<path d="M97 54.9002H99C99.3 54.9002 99.5 54.7002 99.5 54.4002C99.5 54.1002 99.3 53.9002 99 53.9002H97C96.7 53.9002 96.5 54.1002 96.5 54.4002C96.5 54.7002 96.7 54.9002 97 54.9002Z" fill="#EAA53E"/>
<path d="M101.9 54.9002H103.9C104.2 54.9002 104.4 54.7002 104.4 54.4002C104.4 54.1002 104.2 53.9002 103.9 53.9002H101.9C101.6 53.9002 101.4 54.1002 101.4 54.4002C101.4 54.7002 101.7 54.9002 101.9 54.9002Z" fill="#EAA53E"/>
<path d="M72.2 54.9002H74.2C74.5 54.9002 74.7 54.7002 74.7 54.4002C74.7 54.1002 74.5 53.9002 74.2 53.9002H72.2C71.9 53.9002 71.7 54.1002 71.7 54.4002C71.7 54.7002 71.9 54.9002 72.2 54.9002Z" fill="#EAA53E"/>
<path d="M111.4 57.2002C111.4 57.4002 111.7 57.6002 111.9 57.6002C111.9 57.6002 111.9 57.6002 112 57.6002C112.3 57.6002 112.5 57.3002 112.4 57.0002C112.3 56.2002 111.9 55.5002 111.2 55.0002C111 54.8002 110.7 54.9002 110.5 55.1002C110.3 55.3002 110.4 55.6002 110.6 55.8002C111 56.1002 111.3 56.6002 111.4 57.2002Z" fill="#EAA53E"/>
<path d="M106.9 54.9002H108.9C109.2 54.9002 109.4 54.7002 109.4 54.4002C109.4 54.1002 109.2 53.9002 108.9 53.9002H106.9C106.6 53.9002 106.4 54.1002 106.4 54.4002C106.4 54.7002 106.6 54.9002 106.9 54.9002Z" fill="#EAA53E"/>
<path d="M111.2 63.5002C111.8 63.0002 112.3 62.3002 112.4 61.5002C112.4 61.2002 112.3 61.0002 112 60.9002C112 60.9002 112 60.9002 111.9 60.9002C111.7 60.9002 111.4 61.1002 111.4 61.3002C111.3 61.8002 111 62.3002 110.6 62.7002C110.4 62.9002 110.3 63.2002 110.5 63.4002C110.7 63.6002 111 63.7002 111.2 63.5002Z" fill="#EAA53E"/>
<path d="M101.9 64.6002H103.9C104.2 64.6002 104.4 64.4002 104.4 64.1002C104.4 63.8002 104.2 63.6002 103.9 63.6002H101.9C101.6 63.6002 101.4 63.8002 101.4 64.1002C101.4 64.4002 101.7 64.6002 101.9 64.6002Z" fill="#EAA53E"/>
<path d="M97 64.6002H99C99.3 64.6002 99.5 64.4002 99.5 64.1002C99.5 63.8002 99.3 63.6002 99 63.6002H97C96.7 63.6002 96.5 63.8002 96.5 64.1002C96.5 64.4002 96.7 64.6002 97 64.6002Z" fill="#EAA53E"/>
<path d="M92 64.6002H94C94.3 64.6002 94.5 64.4002 94.5 64.1002C94.5 63.8002 94.3 63.6002 94 63.6002H92C91.7 63.6002 91.5 63.8002 91.5 64.1002C91.5 64.4002 91.8 64.6002 92 64.6002Z" fill="#EAA53E"/>
<path d="M87.1 64.6002H89.1C89.4 64.6002 89.6 64.4002 89.6 64.1002C89.6 63.8002 89.4 63.6002 89.1 63.6002H87.1C86.8 63.6002 86.6 63.8002 86.6 64.1002C86.6 64.4002 86.8 64.6002 87.1 64.6002Z" fill="#EAA53E"/>
<path d="M82.1 64.6002H84.1C84.4 64.6002 84.6 64.4002 84.6 64.1002C84.6 63.8002 84.4 63.6002 84.1 63.6002H82.1C81.8 63.6002 81.6 63.8002 81.6 64.1002C81.6 64.4002 81.8 64.6002 82.1 64.6002Z" fill="#EAA53E"/>
<path d="M77.2 64.6002H79.2C79.5 64.6002 79.7 64.4002 79.7 64.1002C79.7 63.8002 79.5 63.6002 79.2 63.6002H77.2C76.9 63.6002 76.7 63.8002 76.7 64.1002C76.7 64.4002 76.9 64.6002 77.2 64.6002Z" fill="#EAA53E"/>
<path d="M106.9 64.6002H108.9C109.2 64.6002 109.4 64.4002 109.4 64.1002C109.4 63.8002 109.2 63.6002 108.9 63.6002H106.9C106.6 63.6002 106.4 63.8002 106.4 64.1002C106.4 64.4002 106.6 64.6002 106.9 64.6002Z" fill="#EAA53E"/>
<path d="M69.7 61.3002C69.7 61.1002 69.4 60.9002 69.2 60.9002C69.2 60.9002 69.2 60.9002 69.1 60.9002C68.8 60.9002 68.6 61.2002 68.7 61.5002C68.8 62.3002 69.2 63.0002 69.9 63.5002C70.1 63.7002 70.4 63.6002 70.6 63.4002C70.8 63.2002 70.7 62.9002 70.5 62.7002C70.1 62.4002 69.8 61.9002 69.7 61.3002Z" fill="#EAA53E"/>
<path d="M72.2 64.6002H74.2C74.5 64.6002 74.7 64.4002 74.7 64.1002C74.7 63.8002 74.5 63.6002 74.2 63.6002H72.2C71.9 63.6002 71.7 63.8002 71.7 64.1002C71.7 64.4002 71.9 64.6002 72.2 64.6002Z" fill="#EAA53E"/>
<path d="M69.2 68.2002C68.9 68.2002 68.7 68.4002 68.7 68.7002V69.2002C68.7 69.5002 68.9 69.7002 69.2 69.7002C69.5 69.7002 69.7 69.5002 69.7 69.2002V68.7002C69.7 68.4002 69.5 68.2002 69.2 68.2002Z" fill="#EAA53E"/>
<path d="M111.9 68.2002C111.6 68.2002 111.4 68.4002 111.4 68.7002V69.2002C111.4 69.5002 111.6 69.7002 111.9 69.7002C112.2 69.7002 112.4 69.5002 112.4 69.2002V68.7002C112.4 68.4002 112.2 68.2002 111.9 68.2002Z" fill="#EAA53E"/>
<path d="M111.4 66.9002C111.4 67.1002 111.7 67.3002 111.9 67.3002C111.9 67.3002 111.9 67.3002 112 67.3002C112.3 67.3002 112.5 67.0002 112.4 66.7002C112.3 65.9002 111.9 65.2002 111.2 64.7002C111 64.5002 110.7 64.6002 110.5 64.8002C110.3 65.0002 110.4 65.3002 110.6 65.5002C111 65.8002 111.3 66.3002 111.4 66.9002Z" fill="#EAA53E"/>
<path d="M111.2 73.2002C111.8 72.7002 112.3 72.0002 112.4 71.2002C112.4 70.9002 112.3 70.7002 112 70.6002C112 70.6002 112 70.6002 111.9 70.6002C111.7 70.6002 111.4 70.8002 111.4 71.0002C111.3 71.5002 111 72.0002 110.6 72.4002C110.4 72.6002 110.3 72.9002 110.5 73.1002C110.7 73.3002 111 73.4002 111.2 73.2002Z" fill="#EAA53E"/>
<path d="M26.5 69.7002C26.8 69.7002 27 69.5002 27 69.2002V68.7002C27 68.4002 26.8 68.2002 26.5 68.2002C26.2 68.2002 26 68.4002 26 68.7002V69.2002C26 69.5002 26.2 69.7002 26.5 69.7002Z" fill="#EAA53E"/>
<path d="M26.4 67.3002C26.5 67.3002 26.5 67.3002 26.4 67.3002C26.7 67.3002 26.9 67.1002 27 66.9002C27.1 66.4002 27.4 65.9002 27.8 65.5002C28 65.3002 28.1 65.0002 27.9 64.8002C27.7 64.6002 27.4 64.5002 27.2 64.7002C26.6 65.2002 26.1 65.9002 26 66.7002C26 67.0002 26.2 67.2002 26.4 67.3002Z" fill="#EAA53E"/>
<path d="M34.5 64.6002H36.5C36.8 64.6002 37 64.4002 37 64.1002C37 63.8002 36.8 63.6002 36.5 63.6002H34.5C34.2 63.6002 34 63.8002 34 64.1002C34 64.4002 34.2 64.6002 34.5 64.6002Z" fill="#EAA53E"/>
<path d="M39.4 64.6002H41.4C41.7 64.6002 41.9 64.4002 41.9 64.1002C41.9 63.8002 41.7 63.6002 41.4 63.6002H39.4C39.1 63.6002 38.9 63.8002 38.9 64.1002C38.9 64.4002 39.1 64.6002 39.4 64.6002Z" fill="#EAA53E"/>
<path d="M44.4 64.6002H46.4C46.7 64.6002 46.9 64.4002 46.9 64.1002C46.9 63.8002 46.7 63.6002 46.4 63.6002H44.4C44.1 63.6002 43.9 63.8002 43.9 64.1002C43.9 64.4002 44.1 64.6002 44.4 64.6002Z" fill="#EAA53E"/>
<path d="M49.3 64.6002H51.3C51.6 64.6002 51.8 64.4002 51.8 64.1002C51.8 63.8002 51.6 63.6002 51.3 63.6002H49.3C49 63.6002 48.8 63.8002 48.8 64.1002C48.8 64.4002 49.1 64.6002 49.3 64.6002Z" fill="#EAA53E"/>
<path d="M54.3 64.6002H56.3C56.6 64.6002 56.8 64.4002 56.8 64.1002C56.8 63.8002 56.6 63.6002 56.3 63.6002H54.3C54 63.6002 53.8 63.8002 53.8 64.1002C53.8 64.4002 54 64.6002 54.3 64.6002Z" fill="#EAA53E"/>
<path d="M59.2 64.6002H61.2C61.5 64.6002 61.7 64.4002 61.7 64.1002C61.7 63.8002 61.5 63.6002 61.2 63.6002H59.2C58.9 63.6002 58.7 63.8002 58.7 64.1002C58.7 64.4002 59 64.6002 59.2 64.6002Z" fill="#EAA53E"/>
<path d="M29.5 64.6002H31.5C31.8 64.6002 32 64.4002 32 64.1002C32 63.8002 31.8 63.6002 31.5 63.6002H29.5C29.2 63.6002 29 63.8002 29 64.1002C29 64.4002 29.2 64.6002 29.5 64.6002Z" fill="#EAA53E"/>
<path d="M68.7 66.9002C68.7 67.0002 68.8 67.1002 68.8 67.1002L68.9 67.2002H69C69 67.2002 69 67.2002 69.1 67.2002C69.1 67.2002 69.1 67.2002 69.2 67.2002H69.3L69.4 67.1002C69.4 67.1002 69.5 67.0002 69.5 66.9002C69.6 66.4002 69.9 65.9002 70.3 65.5002C70.5 65.3002 70.6 65.0002 70.4 64.8002C70.2 64.6002 69.9 64.5002 69.7 64.7002C69.4 64.9002 69.2 65.2002 69 65.5002C68.8 65.2002 68.6 65.0002 68.3 64.7002C68.1 64.5002 67.8 64.6002 67.6 64.8002C67.4 65.0002 67.5 65.3002 67.7 65.5002C68.3 65.8002 68.6 66.3002 68.7 66.9002Z" fill="#EAA53E"/>
<path d="M64.2 64.6002H66.2C66.5 64.6002 66.7 64.4002 66.7 64.1002C66.7 63.8002 66.5 63.6002 66.2 63.6002H64.2C63.9 63.6002 63.7 63.8002 63.7 64.1002C63.7 64.4002 63.9 64.6002 64.2 64.6002Z" fill="#EAA53E"/>
<path d="M68.5 73.2002C68.8 73.0002 69 72.7002 69.2 72.4002C69.4 72.7002 69.6 72.9002 69.9 73.2002C70.1 73.4002 70.4 73.3002 70.6 73.1002C70.8 72.9002 70.7 72.6002 70.5 72.4002C70.1 72.1002 69.8 71.6002 69.7 71.0002C69.7 70.9002 69.7 70.9002 69.6 70.8002L69.5 70.7002H69.4C69.4 70.7002 69.4 70.7002 69.3 70.7002C69.3 70.7002 69.3 70.7002 69.2 70.7002H69.1L69 70.8002C69 70.8002 68.9 70.9002 68.9 71.0002C68.8 71.5002 68.5 72.0002 68.1 72.4002C67.9 72.6002 67.8 72.9002 68 73.1002C68 73.3002 68.3 73.4002 68.5 73.2002Z" fill="#EAA53E"/>
<path d="M27.8 72.4002C27.4 72.1002 27.1 71.6002 27 71.0002C27 70.8002 26.7 70.6002 26.5 70.6002C26.5 70.6002 26.5 70.6002 26.4 70.6002C26.1 70.6002 25.9 70.9002 26 71.2002C26.1 72.0002 26.5 72.7002 27.2 73.2002C27.4 73.4002 27.7 73.3002 27.9 73.1002C28.1 72.9002 28 72.6002 27.8 72.4002Z" fill="#EAA53E"/>
<path d="M26.5 79.4002C26.8 79.4002 27 79.2002 27 78.9002V78.4002C27 78.1002 26.8 77.9002 26.5 77.9002C26.2 77.9002 26 78.1002 26 78.4002V78.9002C26 79.2002 26.2 79.4002 26.5 79.4002Z" fill="#EAA53E"/>
<path d="M27.2 74.4002C26.6 74.9002 26.1 75.6002 26 76.4002C26 76.7002 26.1 76.9002 26.4 77.0002C26.4 77.0002 26.4 77.0002 26.5 77.0002C26.7 77.0002 27 76.8002 27 76.6002C27.1 76.1002 27.4 75.6002 27.8 75.2002C28 75.0002 28.1 74.7002 27.9 74.5002C27.7 74.3002 27.4 74.2002 27.2 74.4002Z" fill="#EAA53E"/>
<path d="M34.5 74.3002H36.5C36.8 74.3002 37 74.1002 37 73.8002C37 73.5002 36.8 73.3002 36.5 73.3002H34.5C34.2 73.3002 34 73.5002 34 73.8002C34 74.1002 34.2 74.3002 34.5 74.3002Z" fill="#EAA53E"/>
<path d="M39.4 74.3002H41.4C41.7 74.3002 41.9 74.1002 41.9 73.8002C41.9 73.5002 41.7 73.3002 41.4 73.3002H39.4C39.1 73.3002 38.9 73.5002 38.9 73.8002C38.9 74.1002 39.1 74.3002 39.4 74.3002Z" fill="#EAA53E"/>
<path d="M44.4 74.3002H46.4C46.7 74.3002 46.9 74.1002 46.9 73.8002C46.9 73.5002 46.7 73.3002 46.4 73.3002H44.4C44.1 73.3002 43.9 73.5002 43.9 73.8002C43.9 74.1002 44.1 74.3002 44.4 74.3002Z" fill="#EAA53E"/>
<path d="M49.3 74.3002H51.3C51.6 74.3002 51.8 74.1002 51.8 73.8002C51.8 73.5002 51.6 73.3002 51.3 73.3002H49.3C49 73.3002 48.8 73.5002 48.8 73.8002C48.8 74.1002 49.1 74.3002 49.3 74.3002Z" fill="#EAA53E"/>
<path d="M54.3 74.3002H56.3C56.6 74.3002 56.8 74.1002 56.8 73.8002C56.8 73.5002 56.6 73.3002 56.3 73.3002H54.3C54 73.3002 53.8 73.5002 53.8 73.8002C53.8 74.1002 54 74.3002 54.3 74.3002Z" fill="#EAA53E"/>
<path d="M59.2 74.3002H61.2C61.5 74.3002 61.7 74.1002 61.7 73.8002C61.7 73.5002 61.5 73.3002 61.2 73.3002H59.2C58.9 73.3002 58.7 73.5002 58.7 73.8002C58.7 74.1002 59 74.3002 59.2 74.3002Z" fill="#EAA53E"/>
<path d="M29.5 74.3002H31.5C31.8 74.3002 32 74.1002 32 73.8002C32 73.5002 31.8 73.3002 31.5 73.3002H29.5C29.2 73.3002 29 73.5002 29 73.8002C29 74.1002 29.2 74.3002 29.5 74.3002Z" fill="#EAA53E"/>
<path d="M64.2 74.3002H66.2C66.5 74.3002 66.7 74.1002 66.7 73.8002C66.7 73.5002 66.5 73.3002 66.2 73.3002H64.2C63.9 73.3002 63.7 73.5002 63.7 73.8002C63.7 74.1002 63.9 74.3002 64.2 74.3002Z" fill="#EAA53E"/>
<path d="M27.2 82.9002C27.4 83.1002 27.7 83.0002 27.9 82.8002C28.1 82.6002 28 82.3002 27.8 82.1002C27.4 81.8002 27.1 81.3002 27 80.7002C27 80.5002 26.7 80.3002 26.5 80.3002C26.5 80.3002 26.5 80.3002 26.4 80.3002C26.1 80.3002 25.9 80.6002 26 80.9002C26.1 81.7002 26.5 82.4002 27.2 82.9002Z" fill="#EAA53E"/>
</svg>
