<?xml version="1.0" encoding="utf-8"?>
<!-- Generator: Adobe Illustrator 24.1.2, SVG Export Plug-In . SVG Version: 6.00 Build 0)  -->
<!DOCTYPE svg PUBLIC "-//W3C//DTD SVG 1.1//EN" "http://www.w3.org/Graphics/SVG/1.1/DTD/svg11.dtd" [
	<!ENTITY ns_extend "http://ns.adobe.com/Extensibility/1.0/">
	<!ENTITY ns_ai "http://ns.adobe.com/AdobeIllustrator/10.0/">
	<!ENTITY ns_graphs "http://ns.adobe.com/Graphs/1.0/">
	<!ENTITY ns_vars "http://ns.adobe.com/Variables/1.0/">
	<!ENTITY ns_imrep "http://ns.adobe.com/ImageReplacement/1.0/">
	<!ENTITY ns_sfw "http://ns.adobe.com/SaveForWeb/1.0/">
	<!ENTITY ns_custom "http://ns.adobe.com/GenericCustomNamespace/1.0/">
	<!ENTITY ns_adobe_xpath "http://ns.adobe.com/XPath/1.0/">
]>
<svg version="1.1" id="Layer_1" xmlns:x="&ns_extend;" xmlns:i="&ns_ai;" xmlns:graph="&ns_graphs;"
	 xmlns="http://www.w3.org/2000/svg" xmlns:xlink="http://www.w3.org/1999/xlink" x="0px" y="0px" width="139px" height="137px"
	 viewBox="0 0 139 137" style="enable-background:new 0 0 139 137;" xml:space="preserve">
<style type="text/css">
	.st0{fill:#E6EDEA;}
	.st1{clip-path:url(#SVGID_2_);}
	.st2{fill:#42CEC6;}
	.st3{fill:#2FB2B6;}
	.st4{fill:#C4C4C4;}
	.st5{fill:#A8A8A8;}
</style>
<metadata>
	<sfw  xmlns="&ns_sfw;">
		<slices></slices>
		<sliceSourceBounds  bottomLeftOrigin="true" height="137" width="138" x="0.5" y="0"></sliceSourceBounds>
	</sfw>
</metadata>
<path class="st0" d="M16.5,0h106c8.837,0,16,7.163,16,16v105c0,8.837-7.163,16-16,16h-106c-8.837,0-16-7.163-16-16V16
	C0.5,7.163,7.663,0,16.5,0z"/>
<g>
	<defs>
		<rect id="SVGID_1_" x="46" y="32" width="63" height="80.5"/>
	</defs>
	<clipPath id="SVGID_2_">
		<use xlink:href="#SVGID_1_"  style="overflow:visible;"/>
	</clipPath>
	<g class="st1">
		<path class="st2" d="M72.1,56.7c6.7-1.6,10.9-8.3,9.3-15s-8.3-10.9-15-9.3c-6.7,1.6-10.9,8.3-9.3,15
			C58.6,54.1,65.4,58.3,72.1,56.7z"/>
		<path class="st3" d="M72,95c0-10.8,8.7-19.5,19.5-19.5c0.2,0,0.3,0,0.5,0c-0.3-7.8-6.8-14-14.8-14H60.8C52.6,61.5,46,68,46,76.1
			v22c0,4.1,3.3,7.3,7.4,7.3h21.7C73.1,102.4,72,98.8,72,95z"/>
		<path class="st4" d="M83.3,98.7h1.1c0.1,0,0.3,0.1,0.3,0.2c0.2,0.3,0.3,0.6,0.5,0.9c0.1,0.1,0.1,0.3,0,0.4l-0.4,0.8
			c-0.1,0.2-0.1,0.4,0,0.5l1,1c0.1,0.1,0.3,0.1,0.5,0l0.9-0.6c0.1-0.1,0.3-0.1,0.4,0c0.3,0.2,0.6,0.4,0.9,0.5
			c0.1,0.1,0.2,0.2,0.2,0.3v1c0,0.3,0.1,0.4,0.3,0.5l1.3,0.4c0.2,0,0.3,0,0.4-0.2l0.5-1c0.1-0.1,0.2-0.2,0.3-0.2c0.3,0,0.7,0,1.1,0
			c0.1,0,0.3,0.1,0.3,0.2l0.5,0.9c0.1,0.2,0.3,0.3,0.5,0.3l1.3-0.4c0.2,0,0.3-0.2,0.3-0.4v-1.1c0-0.1,0.1-0.3,0.2-0.3
			c0.3-0.2,0.6-0.3,0.9-0.5c0.1-0.1,0.3-0.1,0.4,0l0.8,0.5c0.2,0.1,0.4,0.1,0.5,0l1-1c0.1-0.1,0.1-0.3,0-0.5l-0.6-0.9
			c-0.1-0.1-0.1-0.3,0-0.4c0.2-0.3,0.4-0.6,0.5-0.9c0.1-0.1,0.2-0.2,0.3-0.2h1c0.3,0,0.4-0.1,0.5-0.3l0.3-1.3c0-0.2,0-0.3-0.2-0.4
			l-1-0.5c-0.1-0.1-0.2-0.2-0.2-0.3c0-0.3,0-0.7,0-1.1c0-0.1,0.1-0.3,0.2-0.3L101,94c0.2-0.1,0.3-0.3,0.3-0.5l-0.3-1.3
			c0-0.2-0.2-0.3-0.4-0.3h-1.1c-0.1,0-0.3-0.1-0.3-0.2c-0.2-0.3-0.3-0.6-0.5-0.9c-0.1-0.1-0.1-0.3,0-0.4l0.5-0.8
			c0.1-0.2,0.1-0.4,0-0.5l-1-1c-0.1-0.1-0.3-0.1-0.5,0l-0.9,0.6c-0.1,0.1-0.3,0.1-0.4,0c-0.3-0.2-0.6-0.4-0.9-0.5
			c-0.1-0.1-0.2-0.2-0.2-0.3v-1c0-0.3-0.1-0.4-0.3-0.5L93.7,86c-0.2,0-0.3,0-0.4,0.2l-0.5,1c-0.1,0.1-0.2,0.2-0.3,0.2
			c-0.4,0-0.7,0-1.1,0c-0.1,0-0.3-0.1-0.3-0.2l-0.5-0.9c-0.1-0.2-0.3-0.3-0.5-0.3l-1.3,0.3c-0.2,0-0.3,0.2-0.3,0.4v1.1
			c0,0.1-0.1,0.3-0.2,0.3c-0.3,0.2-0.6,0.3-0.9,0.5c-0.1,0.1-0.3,0.1-0.4,0l-0.8-0.5c-0.2-0.2-0.4-0.1-0.5,0l-1,1
			c-0.1,0.1-0.1,0.3,0,0.5l0.6,0.9c0.1,0.1,0.1,0.3,0,0.4c-0.2,0.3-0.4,0.6-0.5,0.9c-0.1,0.1-0.2,0.2-0.3,0.2h-1
			c-0.3,0-0.4,0.1-0.5,0.3l-0.3,1.3c0,0.2,0,0.3,0.2,0.4l1,0.5c0.1,0.1,0.2,0.2,0.2,0.3c0,0.3,0,0.7,0,1.1c0,0.1-0.1,0.3-0.2,0.3
			L83,96.7c-0.2,0.1-0.3,0.3-0.3,0.5l0.3,1.3C83,98.6,83.2,98.7,83.3,98.7z M93.6,101.6c-1.7,0.4-3.3,0.2-4.7-0.5
			c-0.6-0.3-0.8-1.2-0.2-1.7l3-3c0.3-0.3,0.7-0.4,1.1-0.3l4.1,1.1c0.7,0.2,1,1,0.7,1.6C96.6,100.2,95.3,101.2,93.6,101.6z
			 M98.2,93.6c0.1,0.5,0.2,1,0.2,1.5c0,0.7-0.7,1.2-1.4,1.1l-4-1.1c-0.4-0.1-0.7-0.4-0.8-0.8l-1.1-4.1c-0.2-0.7,0.4-1.4,1.1-1.4
			C95,88.9,97.5,90.8,98.2,93.6z M90.1,90.5l1.1,4.1c0.1,0.4,0,0.8-0.3,1.1l-3,3c-0.5,0.5-1.4,0.4-1.7-0.2c-0.2-0.4-0.4-0.9-0.5-1.4
			c-0.8-2.8,0.5-5.7,2.8-7.2C89,89.4,89.9,89.8,90.1,90.5z"/>
		<path class="st5" d="M108.5,93.6l-1.9-0.4c-0.2,0-0.4-0.3-0.5-0.5c-0.1-0.6-0.3-1.2-0.5-1.8c-0.1-0.2,0-0.5,0.2-0.7l1.3-1.2
			c0.4-0.3,0.4-0.7,0.2-0.9l-1.2-2.1c-0.2-0.3-0.5-0.4-0.8-0.3l-1.9,0.6c-0.2,0.1-0.5,0-0.7-0.2c-0.4-0.5-0.9-0.9-1.4-1.4
			c-0.2-0.2-0.3-0.4-0.2-0.7l0.5-1.7c0.1-0.5,0-0.8-0.2-0.9l-2.1-1.2c-0.3-0.2-0.6-0.1-0.8,0.1l-1.3,1.4c-0.2,0.2-0.4,0.2-0.7,0.2
			c-0.6-0.2-1.2-0.4-1.9-0.5c-0.2,0-0.5-0.2-0.5-0.5l-0.4-1.7c-0.1-0.5-0.4-0.7-0.7-0.7h-2.4c-0.3,0-0.6,0.2-0.6,0.5l-0.4,1.9
			c0,0.2-0.3,0.4-0.5,0.5c-0.6,0.1-1.2,0.3-1.8,0.5c-0.2,0.1-0.5,0-0.7-0.2l-1.2-1.3c-0.3-0.4-0.7-0.4-0.9-0.2l-2.1,1.2
			c-0.3,0.2-0.4,0.5-0.3,0.8l0.6,1.9c0.1,0.2,0,0.5-0.2,0.7c-0.5,0.4-0.9,0.9-1.4,1.4c-0.2,0.2-0.4,0.3-0.7,0.2l-1.7-0.5
			c-0.5-0.2-0.8,0-0.9,0.2L76.7,88c-0.2,0.3-0.1,0.6,0.1,0.8l1.4,1.3c0.2,0.2,0.2,0.4,0.2,0.7c-0.2,0.6-0.4,1.2-0.5,1.9
			c0,0.2-0.2,0.5-0.5,0.5l-1.7,0.4C75.2,93.7,75,94,75,94.3v2.4c0,0.3,0.2,0.6,0.5,0.6l1.9,0.4c0.2,0,0.4,0.3,0.5,0.5
			c0.1,0.6,0.3,1.2,0.5,1.8c0.1,0.2,0,0.5-0.2,0.7l-1.3,1.3c-0.4,0.3-0.4,0.7-0.2,0.9l1.2,2.1c0.2,0.3,0.5,0.4,0.8,0.3l1.9-0.6
			c0.2-0.1,0.5,0,0.7,0.2c0.4,0.5,0.9,0.9,1.4,1.4c0.2,0.2,0.3,0.4,0.2,0.7l-0.5,1.7c-0.1,0.5,0,0.8,0.2,0.9l2.1,1.2
			c0.3,0.2,0.6,0.1,0.8-0.1l1.3-1.4c0.2-0.2,0.4-0.2,0.7-0.2c0.6,0.2,1.2,0.4,1.9,0.5c0.2,0,0.5,0.2,0.5,0.5l0.4,1.7
			c0.1,0.5,0.4,0.7,0.7,0.7h2.4c0.3,0,0.6-0.2,0.6-0.5l0.4-1.9c0-0.2,0.3-0.4,0.5-0.5c0.6-0.1,1.2-0.3,1.8-0.5
			c0.2-0.1,0.5,0,0.7,0.2l1.2,1.3c0.3,0.4,0.7,0.4,0.9,0.2l2.1-1.2c0.3-0.2,0.4-0.5,0.3-0.8l-0.6-1.8c-0.1-0.2,0-0.5,0.2-0.7
			c0.5-0.4,0.9-0.9,1.4-1.4c0.2-0.2,0.4-0.3,0.7-0.2l1.7,0.5c0.5,0.1,0.8,0,0.9-0.2l1.2-2.1c0.2-0.3,0.1-0.6-0.1-0.8l-1.4-1.3
			c-0.2-0.2-0.2-0.4-0.2-0.7c0.2-0.6,0.4-1.2,0.5-1.9c0-0.2,0.2-0.5,0.5-0.5l1.7-0.4c0.5-0.1,0.7-0.4,0.7-0.7v-2.4
			C109,93.9,108.8,93.7,108.5,93.6z M81.3,90.4c1-2.1,2.6-3.9,4.8-5.2c2.2-1.2,4.5-1.7,6.8-1.5c1.9,0.2,3,2.3,2.1,3.9l-3,5.2
			c-1,0-1.8,0.6-2.3,1.4h-6C81.8,94.2,80.5,92.2,81.3,90.4z M93.3,95.5c0,0.7-0.6,1.3-1.3,1.3s-1.3-0.6-1.3-1.3s0.6-1.3,1.3-1.3
			S93.3,94.8,93.3,95.5z M93.1,107.2c-4.4,0.4-8.9-1.7-11.3-5.8c-0.2-0.3-0.3-0.6-0.5-0.9c-0.8-1.7,0.5-3.6,2.4-3.6h6
			c0.5,0.8,1.3,1.3,2.2,1.3l3,5.2C95.9,104.9,94.9,107,93.1,107.2z M101.6,102.3c-1.1,1.5-3.4,1.4-4.4-0.3l-2.7-4.6
			c-0.1-0.2-0.2-0.4-0.3-0.7c0.2-0.4,0.3-0.8,0.3-1.2c0-0.5-0.1-0.9-0.3-1.3l3-5.2c0.9-1.6,3.3-1.8,4.4-0.3c0.2,0.3,0.4,0.6,0.6,0.9
			C104.6,93.7,104.2,98.6,101.6,102.3z"/>
	</g>
</g>
</svg>
