<svg width="100" height="100" viewBox="0 0 100 100" fill="none" xmlns="http://www.w3.org/2000/svg">
<rect width="100" height="100" rx="16" fill="#303247"/>
<path d="M62.0357 88H54.9643C53.8643 88 53 87.2619 53 86.3226V37.6774C53 36.7381 53.8643 36 54.9643 36H62.0357C63.1357 36 64 36.7381 64 37.6774V86.3226C64 87.2284 63.1357 88 62.0357 88Z" fill="#81A9F8"/>
<path d="M80.0357 88H72.9643C71.8643 88 71 87.259 71 86.316V17.684C71 16.741 71.8643 16 72.9643 16H80.0357C81.1357 16 82 16.741 82 17.684V86.316C82 87.2254 81.0964 88 80.0357 88Z" fill="#6495F7"/>
<path d="M44.0357 88H36.9643C35.8643 88 35 87.258 35 86.3137V46.6863C35 45.742 35.8643 45 36.9643 45H44.0357C45.1357 45 46 45.742 46 46.6863V86.3137C46 87.2243 45.1357 88 44.0357 88Z" fill="#A3C0FA"/>
<path d="M26.0357 88H18.9643C17.8643 88 17 87.2589 17 86.3157V54.6843C17 53.7411 17.8643 53 18.9643 53H26.0357C27.1357 53 28 53.7411 28 54.6843V86.3157C28 87.2252 27.1357 88 26.0357 88Z" fill="#CFDEFC"/>
<path d="M54.2782 16.1459L43.0737 16C42.4897 16 42.1248 16.6201 42.4532 17.0942L43.9131 19.4651C44.1321 19.7934 44.0226 20.2675 43.6576 20.4864L17.3434 36.6081C17.0149 36.827 16.9054 37.2647 17.0879 37.6294L18.9492 40.6568C19.1682 40.9851 19.6062 41.0945 19.9712 40.9121L46.2854 24.7904C46.6139 24.5715 47.0883 24.681 47.3073 25.0457L48.7307 27.3801C49.0227 27.8542 49.7526 27.8542 50.0081 27.3071L54.9352 17.2766C55.1542 16.7295 54.7892 16.1824 54.2782 16.1459Z" fill="#42CEC6"/>
</svg>
