<?xml version="1.0" encoding="utf-8"?>
<!-- Generator: Adobe Illustrator 24.1.2, SVG Export Plug-In . SVG Version: 6.00 Build 0)  -->
<svg version="1.1" id="Layer_1" xmlns="http://www.w3.org/2000/svg" xmlns:xlink="http://www.w3.org/1999/xlink" x="0px" y="0px"
	 viewBox="0 0 267 443" style="enable-background:new 0 0 267 443;" xml:space="preserve">
<style type="text/css">
	.st0{fill:#F3F7FC;}
	.st1{fill:#B6C3D2;}
	.st2{fill:#ED5E5E;}
	.st3{fill:#F7BABA;}
	.st4{fill:#C14E4E;}
</style>
<g>
	<path class="st0" d="M16,0h235c8.8,0,16,7.2,16,16v411c0,8.8-7.2,16-16,16H16c-8.8,0-16-7.2-16-16V16C0,7.2,7.2,0,16,0z"/>
	<path class="st1" d="M24,20h98c2.2,0,4,1.8,4,4v117c0,2.2-1.8,4-4,4H24c-2.2,0-4-1.8-4-4V24C20,21.8,21.8,20,24,20z"/>
	<path class="st2" d="M24,160h98c2.2,0,4,1.8,4,4v117c0,2.2-1.8,4-4,4H24c-2.2,0-4-1.8-4-4V164C20,161.8,21.8,160,24,160z"/>
	<path class="st3" d="M59,213v-8.7h-1.6v5.9h-0.1l-4.1-5.9h-1.4v8.7h1.6v-5.9h0.1l4.1,5.9H59z M60.2,213h1.7l0.7-2.2h3.3l0.7,2.2
		h1.7l-3.1-8.7h-2L60.2,213z M65.5,209.6H63l1.2-3.5h0.1L65.5,209.6z M68,204.3v1.3h2.7v7.4h1.6v-7.4H75v-1.3H68z M77.9,213v-8.7
		h-1.6v8.7H77.9z M83,211.1l-2.3-6.9H79l3.1,8.7h2l3.1-8.7h-1.7L83,211.1L83,211.1z M88.3,204.3v8.7H94v-1.3h-4.1v-2.4h3.8V208h-3.8
		v-2.4H94v-1.3H88.3z"/>
	<path class="st4" d="M58,219h30c4.4,0,8,3.6,8,8v10c0,4.4-3.6,8-8,8H58c-4.4,0-8-3.6-8-8v-10C50,222.6,53.6,219,58,219z"/>
	<path class="st3" d="M62.4,237h2.1l0.9-2.7h4.1l0.9,2.7h2.1l-3.8-10.9h-2.4L62.4,237z M68.9,232.7h-3l1.5-4.4h0.1L68.9,232.7z
		 M73.9,237h3.7c3.3,0,5.3-2.1,5.3-5.5c0-3.4-2-5.4-5.2-5.4h-3.8V237z M77.5,235.3h-1.6v-7.5h1.7c2.2,0,3.4,1.2,3.4,3.7
		C81,234,79.8,235.3,77.5,235.3z"/>
	<path class="st1" d="M145,20h98c2.2,0,4,1.8,4,4v257c0,2.2-1.8,4-4,4h-98c-2.2,0-4-1.8-4-4V24C141,21.8,142.8,20,145,20z"/>
	<path class="st1" d="M24,300h219c2.2,0,4,1.8,4,4v115c0,2.2-1.8,4-4,4H24c-2.2,0-4-1.8-4-4V304C20,301.8,21.8,300,24,300z"/>
</g>
</svg>
